M48
;GenerationSoftware,Autodesk,EAGLE,9.6.2*%
;CreationDate,2023-10-27T21:09:49Z*%
FMAT,2
ICI,OFF
METRIC,TZ,000.000
T10C0.200
T9C0.300
T8C0.350
T7C0.400
T6C0.450
T5C0.500
T4C0.550
T3C0.600
T2C1.000
T1C2.500
%
G90
M71
T1
X2500Y31500
X2500Y2500
X55500Y31500
X55500Y2500
T2
X52710Y2450
X50170Y2450
T3
X5680Y12680
X5680Y21320
X1500Y12680
X1500Y21320
T4
X5180Y14110
X5180Y19890
T5
X31555Y33000
X32825Y33000
X34095Y33000
X35365Y33000
X36635Y33000
X37905Y33000
X39175Y33000
X40445Y33000
X41715Y33000
X42985Y33000
X44255Y33000
X45525Y33000
X46795Y33000
X48065Y33000
X23935Y1000
X25205Y1000
X26475Y1000
X27745Y1000
X29015Y1000
X30285Y1000
X31555Y1000
X32825Y1000
X34095Y1000
X35365Y1000
X36635Y1000
X37905Y1000
X39175Y1000
X40445Y1000
X41715Y1000
X42985Y1000
X44255Y1000
X45525Y1000
X46795Y1000
X48065Y1000
X9700Y32950
X8500Y32950
X30285Y33000
X29015Y33000
X27745Y33000
X26475Y33000
X25205Y33000
X23935Y33000
T6
X30200Y28390
X30200Y29090
T7
X16200Y25750
X22100Y26600
X15551Y25750
X21540Y31650
X57100Y26800
X1550Y24180
X18590Y21320
X25660Y8360
X38620Y31190
X44750Y31430
X44750Y32090
X37992Y31190
T8
X38398Y30285
X27240Y2650
X10980Y32890
X2600Y17500
T9
X25430Y27310
X25410Y28700
X25460Y21940
X25434Y30414
X49280Y16240
X22600Y7900
X30320Y17020
X22957Y1517
X23450Y2000
X27648Y30652
X29400Y15260
X54860Y27830
X49200Y29760
X6700Y26900
X10870Y24020
X900Y29300
X900Y28700
X5420Y31820
X5810Y32200
T10
X49000Y1000
X50000Y1000
X51000Y1000
X52000Y1000
X53000Y1000
X54000Y1000
X57000Y1000
X57000Y4000
X56000Y5000
X57000Y5000
X57000Y6000
X56000Y8000
X56000Y11000
X56000Y12000
X56000Y13000
X56000Y14000
X56000Y16000
X55000Y16000
X18100Y21700
X15000Y23000
X14000Y23000
X8000Y21000
X8000Y20000
X9000Y20000
X9000Y21000
X10000Y21000
X10000Y20000
X11000Y21000
X9000Y16000
X1000Y11000
X1000Y9000
X1000Y7000
X1000Y5000
X51000Y33000
X52000Y33000
X53000Y33000
X54000Y33000
X57000Y33000
X57000Y30000
X56000Y29000
X57000Y29000
X57000Y28000
X53000Y32000
X8000Y14000
X8000Y8000
X10000Y10000
X10000Y12000
X10000Y14000
X10000Y16000
X12000Y16000
X12000Y14000
X12000Y12000
X12000Y10000
X7000Y33000
X5000Y33000
X13000Y4000
X13000Y3000
X5390Y25920
X9658Y27490
X16360Y32050
X7100Y29700
X6600Y29700
X23600Y22600
X5100Y24960
X7827Y26697
X42000Y5000
X36000Y9000
X36000Y8000
X7300Y1600
X20000Y9000
X23000Y12000
X28000Y9000
X26000Y9000
X27000Y9000
X23610Y32110
X30000Y10000
X31000Y9000
X38000Y8000
X20675Y26975
X22330Y29920
X22330Y29280
X16938Y29275
X19380Y26990
X39000Y9000
X41000Y9000
X22700Y4700
X23800Y7400
X16810Y4070
X11990Y1540
X22700Y4070
X42000Y9000
X43000Y9000
X15800Y10800
X24400Y7400
X23000Y12800
X19400Y12800
X18800Y9100
X17200Y17400
X26120Y17200
X45000Y9000
X17220Y19210
X47600Y7500
X15600Y18000
X26047Y25307
X47100Y7500
X46600Y7500
X23000Y21070
X47100Y9500
X24060Y24180
X6000Y2498
X24400Y2600
X54070Y7180
X48900Y4800
X53500Y6400
X22330Y28630
X46600Y9500
X46600Y8000
X46600Y8500
X22330Y30580
X46600Y9000
X47600Y10400
X45700Y15500
X33111Y18889
X44889Y17889
X31111Y17889
X31111Y18889
X44410Y30260
X33111Y17889
X38560Y5509
X33111Y16111
X39260Y5860
X33111Y15111
X37960Y7060
X37111Y16111
X40310Y9080
X37111Y13111
X31900Y7500
X45100Y14500
X38889Y13111
X35200Y7500
X26240Y18300
X37252Y29670
X26242Y17800
X37752Y29670
X22300Y10340
X21780Y10220
X45600Y5000
X41200Y5000
X41900Y12100
X43200Y5000
X42889Y12111
X43800Y5000
X43889Y10111
X44400Y5000
X43889Y11111
X46200Y5000
X53500Y15600
X42889Y13111
X21300Y1700
X48870Y1820
X16512Y19470
X16500Y16800
X24780Y17600
X16800Y21700
X17820Y13600
X18220Y12310
X26080Y18800
X13980Y7980
X24780Y16360
X24780Y16860
X18720Y32230
X22180Y10920
X20102Y10920
X17550Y7270
X19640Y24120
X29000Y28700
X18190Y32230
X22780Y11280
X16600Y6700
X19460Y11300
X18757Y26330
X1000Y1000
X29400Y29100
X25040Y25305
X44420Y29705
X39889Y14111
X37111Y14111
X35111Y14111
X34111Y15111
X46760Y16190
X47400Y14510
X46800Y14900
X20025Y26975
X46800Y15500
X25180Y20090
X48600Y14618
X41889Y18889
X41889Y16111
X40889Y17889
X40889Y15111
X39889Y18889
X38889Y15111
X37111Y18889
X36111Y15111
X35111Y18889
X35111Y16111
X22580Y19380
X40889Y19889
X38889Y19889
X36111Y19889
X14000Y11400
X24390Y32110
X51000Y15600
X52250Y6400
X48100Y10000
X33111Y11111
X30300Y11000
X34111Y12111
X30300Y11900
X33111Y12111
X30300Y12400
X52200Y15600
X49300Y3400
X51000Y6400
X45100Y16500
X48600Y7490
X21800Y1700
X49720Y6410
X48400Y3390
X32111Y17889
X31111Y15111
X34111Y17889
X18070Y6580
X27950Y11780
X30580Y14000
X7776Y22400
X5900Y29800
X7400Y22024
X4830Y22510
X8300Y22400
X10400Y27580
X9944Y22882
X11830Y22540
X10497Y22893
X10530Y20540
X47600Y9500
X43889Y12111
X46990Y11909
X41889Y14111
X47600Y11000
X37111Y12111
X37100Y9800
X36111Y12111
X33051Y9051
X35111Y12111
X33040Y9551
X36111Y13111
X33040Y10060
X52293Y20057
X39889Y23889
X50907Y20057
X36111Y21889
X50157Y20057
X38889Y20889
X52293Y20807
X39889Y22889
X50907Y20807
X37111Y20889
X52293Y21557
X39889Y21889
X50907Y21557
X37111Y23889
X50907Y22307
X38889Y23889
X53043Y25943
X34111Y21889
X53793Y20057
X42889Y20889
X53043Y20807
X44889Y19889
X50157Y20807
X37111Y21889
X53043Y20057
X44889Y20889
X50157Y25193
X41889Y22889
X52293Y25943
X34690Y26080
X34111Y22889
X50907Y25943
X31111Y21889
X30500Y22890
X50157Y25943
X33110Y19890
X52293Y25193
X34111Y23889
X50907Y25193
X30270Y21890
X31091Y20889
X52293Y24443
X35111Y20889
X50907Y24443
X31111Y19889
X50907Y23693
X31111Y22889
X30702Y25613
X52293Y22307
X39889Y20889
X53793Y25943
X33111Y23889
X49407Y20807
X36111Y22889
X50157Y21557
X37111Y22889
X49407Y21557
X36111Y23889
X50157Y22307
X40889Y22889
X50157Y23693
X36111Y20889
X50157Y24443
X32110Y20890
X31631Y25610
X49407Y24443
X33111Y20889
X49407Y25193
X32111Y23889
X32111Y25383
X53793Y20807
X43889Y19889
X53793Y21557
X43889Y18889
X53043Y21557
X42889Y19889
X53043Y22307
X40889Y20889
X53043Y23693
X35111Y21889
X53043Y24443
X34111Y19889
X53793Y24443
X33111Y22889
X53793Y25193
X33111Y21889
X33090Y25720
X46900Y13000
X38889Y11111
X35111Y11111
X32111Y11111
X20280Y19380
X29020Y11120
X49320Y5560
X45480Y8050
X32111Y18889
X32111Y16111
X19400Y19200
X38889Y22889
X35111Y22889
X32111Y22889
X49407Y22307
X53793Y23693
X54630Y9880
X26120Y16000
X7800Y15700
X7800Y18300
X37690Y9800
X37111Y17889
X38290Y9800
X39889Y16111
X21200Y24100
X20600Y24100
X21800Y24100
X13100Y18300
X22400Y24100
X18500Y22154
X25541Y25310
X36780Y31180
X24460Y5720
X45100Y13500
X5090Y24390
X22200Y22045
X11500Y21760
X15660Y23005
X26060Y11660
X35500Y29700
X26080Y13160
X31800Y29700
X26080Y12160
X33800Y29700
X26080Y12660
X32800Y29700
X21400Y22025
X16000Y24100
X21800Y22345
X17100Y24100
X18100Y24100
X22400Y22841
X31111Y16111
X29250Y17030
X15580Y27680
X41880Y13120
X45100Y15500
X5900Y22650
X32111Y12111
X49407Y23693
X53793Y22307
X44889Y23889
X42889Y22889
X31111Y10111
X31111Y23889
X32111Y15111
X32111Y19889
X32111Y21889
X34111Y16111
X34111Y18889
X34111Y20889
X34111Y13111
X34111Y14111
X35111Y15111
X35111Y17889
X35111Y19889
X35111Y10111
X35111Y23889
X36111Y16111
X36111Y17889
X36111Y18889
X36111Y14111
X37111Y15111
X37111Y19889
X38889Y18889
X38889Y21889
X38889Y12111
X38889Y14111
X39889Y15111
X39889Y19889
X40889Y16111
X40889Y18889
X40889Y21889
X40889Y10111
X40889Y14111
X40889Y23889
X41889Y15111
X41889Y17889
X41889Y19889
X42889Y15111
X42889Y16111
X42889Y17889
X42889Y18889
X42889Y11111
X43889Y17889
X43889Y20889
X44889Y18889
X44889Y10111
X19140Y24140
M30