G04 EAGLE Gerber RS-274X export*
G75*
%MOMM*%
%FSLAX34Y34*%
%LPD*%
%IN*%
%IPPOS*%
%AMOC8*
5,1,8,0,0,1.08239X$1,22.5*%
G01*
%ADD10C,0.254000*%


D10*
X0Y0D02*
X578000Y0D01*
X578000Y340000D01*
X0Y340000D01*
X0Y0D01*
X48300Y126800D02*
X48311Y126539D01*
X48346Y126279D01*
X48402Y126024D01*
X48481Y125774D01*
X48581Y125532D01*
X48702Y125300D01*
X48843Y125079D01*
X49002Y124872D01*
X49179Y124679D01*
X49372Y124502D01*
X49579Y124343D01*
X49800Y124202D01*
X50032Y124081D01*
X50274Y123981D01*
X50524Y123902D01*
X50779Y123846D01*
X51039Y123811D01*
X51300Y123800D01*
X62300Y123800D01*
X62561Y123811D01*
X62821Y123846D01*
X63076Y123902D01*
X63326Y123981D01*
X63568Y124081D01*
X63800Y124202D01*
X64021Y124343D01*
X64228Y124502D01*
X64421Y124679D01*
X64598Y124872D01*
X64757Y125079D01*
X64898Y125300D01*
X65019Y125532D01*
X65119Y125774D01*
X65198Y126024D01*
X65254Y126279D01*
X65289Y126539D01*
X65300Y126800D01*
X65289Y127061D01*
X65254Y127321D01*
X65198Y127576D01*
X65119Y127826D01*
X65019Y128068D01*
X64898Y128300D01*
X64757Y128521D01*
X64598Y128728D01*
X64421Y128921D01*
X64228Y129098D01*
X64021Y129257D01*
X63800Y129398D01*
X63568Y129519D01*
X63326Y129619D01*
X63076Y129698D01*
X62821Y129754D01*
X62561Y129789D01*
X62300Y129800D01*
X51300Y129800D01*
X51039Y129789D01*
X50779Y129754D01*
X50524Y129698D01*
X50274Y129619D01*
X50032Y129519D01*
X49800Y129398D01*
X49579Y129257D01*
X49372Y129098D01*
X49179Y128921D01*
X49002Y128728D01*
X48843Y128521D01*
X48702Y128300D01*
X48581Y128068D01*
X48481Y127826D01*
X48402Y127576D01*
X48346Y127321D01*
X48311Y127061D01*
X48300Y126800D01*
X8000Y126800D02*
X8011Y126539D01*
X8046Y126279D01*
X8102Y126024D01*
X8181Y125774D01*
X8281Y125532D01*
X8402Y125300D01*
X8543Y125079D01*
X8702Y124872D01*
X8879Y124679D01*
X9072Y124502D01*
X9279Y124343D01*
X9500Y124202D01*
X9732Y124081D01*
X9974Y123981D01*
X10224Y123902D01*
X10479Y123846D01*
X10739Y123811D01*
X11000Y123800D01*
X19000Y123800D01*
X19261Y123811D01*
X19521Y123846D01*
X19776Y123902D01*
X20026Y123981D01*
X20268Y124081D01*
X20500Y124202D01*
X20721Y124343D01*
X20928Y124502D01*
X21121Y124679D01*
X21298Y124872D01*
X21457Y125079D01*
X21598Y125300D01*
X21719Y125532D01*
X21819Y125774D01*
X21898Y126024D01*
X21954Y126279D01*
X21989Y126539D01*
X22000Y126800D01*
X21989Y127061D01*
X21954Y127321D01*
X21898Y127576D01*
X21819Y127826D01*
X21719Y128068D01*
X21598Y128300D01*
X21457Y128521D01*
X21298Y128728D01*
X21121Y128921D01*
X20928Y129098D01*
X20721Y129257D01*
X20500Y129398D01*
X20268Y129519D01*
X20026Y129619D01*
X19776Y129698D01*
X19521Y129754D01*
X19261Y129789D01*
X19000Y129800D01*
X11000Y129800D01*
X10739Y129789D01*
X10479Y129754D01*
X10224Y129698D01*
X9974Y129619D01*
X9732Y129519D01*
X9500Y129398D01*
X9279Y129257D01*
X9072Y129098D01*
X8879Y128921D01*
X8702Y128728D01*
X8543Y128521D01*
X8402Y128300D01*
X8281Y128068D01*
X8181Y127826D01*
X8102Y127576D01*
X8046Y127321D01*
X8011Y127061D01*
X8000Y126800D01*
X8000Y213200D02*
X8011Y212939D01*
X8046Y212679D01*
X8102Y212424D01*
X8181Y212174D01*
X8281Y211932D01*
X8402Y211700D01*
X8543Y211479D01*
X8702Y211272D01*
X8879Y211079D01*
X9072Y210902D01*
X9279Y210743D01*
X9500Y210602D01*
X9732Y210481D01*
X9974Y210381D01*
X10224Y210302D01*
X10479Y210246D01*
X10739Y210211D01*
X11000Y210200D01*
X19000Y210200D01*
X19261Y210211D01*
X19521Y210246D01*
X19776Y210302D01*
X20026Y210381D01*
X20268Y210481D01*
X20500Y210602D01*
X20721Y210743D01*
X20928Y210902D01*
X21121Y211079D01*
X21298Y211272D01*
X21457Y211479D01*
X21598Y211700D01*
X21719Y211932D01*
X21819Y212174D01*
X21898Y212424D01*
X21954Y212679D01*
X21989Y212939D01*
X22000Y213200D01*
X21989Y213461D01*
X21954Y213721D01*
X21898Y213976D01*
X21819Y214226D01*
X21719Y214468D01*
X21598Y214700D01*
X21457Y214921D01*
X21298Y215128D01*
X21121Y215321D01*
X20928Y215498D01*
X20721Y215657D01*
X20500Y215798D01*
X20268Y215919D01*
X20026Y216019D01*
X19776Y216098D01*
X19521Y216154D01*
X19261Y216189D01*
X19000Y216200D01*
X11000Y216200D01*
X10739Y216189D01*
X10479Y216154D01*
X10224Y216098D01*
X9974Y216019D01*
X9732Y215919D01*
X9500Y215798D01*
X9279Y215657D01*
X9072Y215498D01*
X8879Y215321D01*
X8702Y215128D01*
X8543Y214921D01*
X8402Y214700D01*
X8281Y214468D01*
X8181Y214226D01*
X8102Y213976D01*
X8046Y213721D01*
X8011Y213461D01*
X8000Y213200D01*
X48300Y213200D02*
X48311Y212939D01*
X48346Y212679D01*
X48402Y212424D01*
X48481Y212174D01*
X48581Y211932D01*
X48702Y211700D01*
X48843Y211479D01*
X49002Y211272D01*
X49179Y211079D01*
X49372Y210902D01*
X49579Y210743D01*
X49800Y210602D01*
X50032Y210481D01*
X50274Y210381D01*
X50524Y210302D01*
X50779Y210246D01*
X51039Y210211D01*
X51300Y210200D01*
X62300Y210200D01*
X62561Y210211D01*
X62821Y210246D01*
X63076Y210302D01*
X63326Y210381D01*
X63568Y210481D01*
X63800Y210602D01*
X64021Y210743D01*
X64228Y210902D01*
X64421Y211079D01*
X64598Y211272D01*
X64757Y211479D01*
X64898Y211700D01*
X65019Y211932D01*
X65119Y212174D01*
X65198Y212424D01*
X65254Y212679D01*
X65289Y212939D01*
X65300Y213200D01*
X65289Y213461D01*
X65254Y213721D01*
X65198Y213976D01*
X65119Y214226D01*
X65019Y214468D01*
X64898Y214700D01*
X64757Y214921D01*
X64598Y215128D01*
X64421Y215321D01*
X64228Y215498D01*
X64021Y215657D01*
X63800Y215798D01*
X63568Y215919D01*
X63326Y216019D01*
X63076Y216098D01*
X62821Y216154D01*
X62561Y216189D01*
X62300Y216200D01*
X51300Y216200D01*
X51039Y216189D01*
X50779Y216154D01*
X50524Y216098D01*
X50274Y216019D01*
X50032Y215919D01*
X49800Y215798D01*
X49579Y215657D01*
X49372Y215498D01*
X49179Y215321D01*
X49002Y215128D01*
X48843Y214921D01*
X48702Y214700D01*
X48581Y214468D01*
X48481Y214226D01*
X48402Y213976D01*
X48346Y213721D01*
X48311Y213461D01*
X48300Y213200D01*
X37500Y314509D02*
X37423Y313530D01*
X37269Y312560D01*
X37040Y311604D01*
X36736Y310670D01*
X36361Y309763D01*
X35915Y308888D01*
X35401Y308050D01*
X34824Y307255D01*
X34186Y306508D01*
X33492Y305814D01*
X32745Y305176D01*
X31950Y304599D01*
X31112Y304085D01*
X30237Y303639D01*
X29330Y303264D01*
X28396Y302960D01*
X27441Y302731D01*
X26470Y302577D01*
X25491Y302500D01*
X24509Y302500D01*
X23530Y302577D01*
X22560Y302731D01*
X21604Y302960D01*
X20670Y303264D01*
X19763Y303639D01*
X18888Y304085D01*
X18050Y304599D01*
X17255Y305176D01*
X16508Y305814D01*
X15814Y306508D01*
X15176Y307255D01*
X14599Y308050D01*
X14085Y308888D01*
X13639Y309763D01*
X13264Y310670D01*
X12960Y311604D01*
X12731Y312560D01*
X12577Y313530D01*
X12500Y314509D01*
X12500Y315491D01*
X12577Y316470D01*
X12731Y317441D01*
X12960Y318396D01*
X13264Y319330D01*
X13639Y320237D01*
X14085Y321112D01*
X14599Y321950D01*
X15176Y322745D01*
X15814Y323492D01*
X16508Y324186D01*
X17255Y324824D01*
X18050Y325401D01*
X18888Y325915D01*
X19763Y326361D01*
X20670Y326736D01*
X21604Y327040D01*
X22560Y327269D01*
X23530Y327423D01*
X24509Y327500D01*
X25491Y327500D01*
X26470Y327423D01*
X27441Y327269D01*
X28396Y327040D01*
X29330Y326736D01*
X30237Y326361D01*
X31112Y325915D01*
X31950Y325401D01*
X32745Y324824D01*
X33492Y324186D01*
X34186Y323492D01*
X34824Y322745D01*
X35401Y321950D01*
X35915Y321112D01*
X36361Y320237D01*
X36736Y319330D01*
X37040Y318396D01*
X37269Y317441D01*
X37423Y316470D01*
X37500Y315491D01*
X37500Y314509D01*
X37500Y24509D02*
X37423Y23530D01*
X37269Y22560D01*
X37040Y21604D01*
X36736Y20670D01*
X36361Y19763D01*
X35915Y18888D01*
X35401Y18050D01*
X34824Y17255D01*
X34186Y16508D01*
X33492Y15814D01*
X32745Y15176D01*
X31950Y14599D01*
X31112Y14085D01*
X30237Y13639D01*
X29330Y13264D01*
X28396Y12960D01*
X27441Y12731D01*
X26470Y12577D01*
X25491Y12500D01*
X24509Y12500D01*
X23530Y12577D01*
X22560Y12731D01*
X21604Y12960D01*
X20670Y13264D01*
X19763Y13639D01*
X18888Y14085D01*
X18050Y14599D01*
X17255Y15176D01*
X16508Y15814D01*
X15814Y16508D01*
X15176Y17255D01*
X14599Y18050D01*
X14085Y18888D01*
X13639Y19763D01*
X13264Y20670D01*
X12960Y21604D01*
X12731Y22560D01*
X12577Y23530D01*
X12500Y24509D01*
X12500Y25491D01*
X12577Y26470D01*
X12731Y27441D01*
X12960Y28396D01*
X13264Y29330D01*
X13639Y30237D01*
X14085Y31112D01*
X14599Y31950D01*
X15176Y32745D01*
X15814Y33492D01*
X16508Y34186D01*
X17255Y34824D01*
X18050Y35401D01*
X18888Y35915D01*
X19763Y36361D01*
X20670Y36736D01*
X21604Y37040D01*
X22560Y37269D01*
X23530Y37423D01*
X24509Y37500D01*
X25491Y37500D01*
X26470Y37423D01*
X27441Y37269D01*
X28396Y37040D01*
X29330Y36736D01*
X30237Y36361D01*
X31112Y35915D01*
X31950Y35401D01*
X32745Y34824D01*
X33492Y34186D01*
X34186Y33492D01*
X34824Y32745D01*
X35401Y31950D01*
X35915Y31112D01*
X36361Y30237D01*
X36736Y29330D01*
X37040Y28396D01*
X37269Y27441D01*
X37423Y26470D01*
X37500Y25491D01*
X37500Y24509D01*
X567500Y314509D02*
X567423Y313530D01*
X567269Y312560D01*
X567040Y311604D01*
X566736Y310670D01*
X566361Y309763D01*
X565915Y308888D01*
X565401Y308050D01*
X564824Y307255D01*
X564186Y306508D01*
X563492Y305814D01*
X562745Y305176D01*
X561950Y304599D01*
X561112Y304085D01*
X560237Y303639D01*
X559330Y303264D01*
X558396Y302960D01*
X557441Y302731D01*
X556470Y302577D01*
X555491Y302500D01*
X554509Y302500D01*
X553530Y302577D01*
X552560Y302731D01*
X551604Y302960D01*
X550670Y303264D01*
X549763Y303639D01*
X548888Y304085D01*
X548050Y304599D01*
X547255Y305176D01*
X546508Y305814D01*
X545814Y306508D01*
X545176Y307255D01*
X544599Y308050D01*
X544085Y308888D01*
X543639Y309763D01*
X543264Y310670D01*
X542960Y311604D01*
X542731Y312560D01*
X542577Y313530D01*
X542500Y314509D01*
X542500Y315491D01*
X542577Y316470D01*
X542731Y317441D01*
X542960Y318396D01*
X543264Y319330D01*
X543639Y320237D01*
X544085Y321112D01*
X544599Y321950D01*
X545176Y322745D01*
X545814Y323492D01*
X546508Y324186D01*
X547255Y324824D01*
X548050Y325401D01*
X548888Y325915D01*
X549763Y326361D01*
X550670Y326736D01*
X551604Y327040D01*
X552560Y327269D01*
X553530Y327423D01*
X554509Y327500D01*
X555491Y327500D01*
X556470Y327423D01*
X557441Y327269D01*
X558396Y327040D01*
X559330Y326736D01*
X560237Y326361D01*
X561112Y325915D01*
X561950Y325401D01*
X562745Y324824D01*
X563492Y324186D01*
X564186Y323492D01*
X564824Y322745D01*
X565401Y321950D01*
X565915Y321112D01*
X566361Y320237D01*
X566736Y319330D01*
X567040Y318396D01*
X567269Y317441D01*
X567423Y316470D01*
X567500Y315491D01*
X567500Y314509D01*
X567500Y24509D02*
X567423Y23530D01*
X567269Y22560D01*
X567040Y21604D01*
X566736Y20670D01*
X566361Y19763D01*
X565915Y18888D01*
X565401Y18050D01*
X564824Y17255D01*
X564186Y16508D01*
X563492Y15814D01*
X562745Y15176D01*
X561950Y14599D01*
X561112Y14085D01*
X560237Y13639D01*
X559330Y13264D01*
X558396Y12960D01*
X557441Y12731D01*
X556470Y12577D01*
X555491Y12500D01*
X554509Y12500D01*
X553530Y12577D01*
X552560Y12731D01*
X551604Y12960D01*
X550670Y13264D01*
X549763Y13639D01*
X548888Y14085D01*
X548050Y14599D01*
X547255Y15176D01*
X546508Y15814D01*
X545814Y16508D01*
X545176Y17255D01*
X544599Y18050D01*
X544085Y18888D01*
X543639Y19763D01*
X543264Y20670D01*
X542960Y21604D01*
X542731Y22560D01*
X542577Y23530D01*
X542500Y24509D01*
X542500Y25491D01*
X542577Y26470D01*
X542731Y27441D01*
X542960Y28396D01*
X543264Y29330D01*
X543639Y30237D01*
X544085Y31112D01*
X544599Y31950D01*
X545176Y32745D01*
X545814Y33492D01*
X546508Y34186D01*
X547255Y34824D01*
X548050Y35401D01*
X548888Y35915D01*
X549763Y36361D01*
X550670Y36736D01*
X551604Y37040D01*
X552560Y37269D01*
X553530Y37423D01*
X554509Y37500D01*
X555491Y37500D01*
X556470Y37423D01*
X557441Y37269D01*
X558396Y37040D01*
X559330Y36736D01*
X560237Y36361D01*
X561112Y35915D01*
X561950Y35401D01*
X562745Y34824D01*
X563492Y34186D01*
X564186Y33492D01*
X564824Y32745D01*
X565401Y31950D01*
X565915Y31112D01*
X566361Y30237D01*
X566736Y29330D01*
X567040Y28396D01*
X567269Y27441D01*
X567423Y26470D01*
X567500Y25491D01*
X567500Y24509D01*
X51584Y138350D02*
X51156Y138418D01*
X50744Y138551D01*
X50359Y138748D01*
X50009Y139002D01*
X49702Y139309D01*
X49448Y139659D01*
X49251Y140044D01*
X49118Y140456D01*
X49050Y140884D01*
X49050Y141316D01*
X49118Y141744D01*
X49251Y142156D01*
X49448Y142541D01*
X49702Y142892D01*
X50009Y143198D01*
X50359Y143452D01*
X50744Y143649D01*
X51156Y143782D01*
X51584Y143850D01*
X52016Y143850D01*
X52444Y143782D01*
X52856Y143649D01*
X53241Y143452D01*
X53592Y143198D01*
X53898Y142892D01*
X54152Y142541D01*
X54349Y142156D01*
X54482Y141744D01*
X54550Y141316D01*
X54550Y140884D01*
X54482Y140456D01*
X54349Y140044D01*
X54152Y139659D01*
X53898Y139309D01*
X53592Y139002D01*
X53241Y138748D01*
X52856Y138551D01*
X52444Y138418D01*
X52016Y138350D01*
X51584Y138350D01*
X51584Y196150D02*
X51156Y196218D01*
X50744Y196351D01*
X50359Y196548D01*
X50009Y196802D01*
X49702Y197109D01*
X49448Y197459D01*
X49251Y197844D01*
X49118Y198256D01*
X49050Y198684D01*
X49050Y199116D01*
X49118Y199544D01*
X49251Y199956D01*
X49448Y200341D01*
X49702Y200692D01*
X50009Y200998D01*
X50359Y201252D01*
X50744Y201449D01*
X51156Y201582D01*
X51584Y201650D01*
X52016Y201650D01*
X52444Y201582D01*
X52856Y201449D01*
X53241Y201252D01*
X53592Y200998D01*
X53898Y200692D01*
X54152Y200341D01*
X54349Y199956D01*
X54482Y199544D01*
X54550Y199116D01*
X54550Y198684D01*
X54482Y198256D01*
X54349Y197844D01*
X54152Y197459D01*
X53898Y197109D01*
X53592Y196802D01*
X53241Y196548D01*
X52856Y196351D01*
X52444Y196218D01*
X52016Y196150D01*
X51584Y196150D01*
M02*
