G04 EAGLE Gerber RS-274X export*
G75*
%MOMM*%
%FSLAX34Y34*%
%LPD*%
%INSilkscreen Bottom*%
%IPPOS*%
%AMOC8*
5,1,8,0,0,1.08239X$1,22.5*%
G01*
%ADD10C,0.127000*%
%ADD11C,0.150000*%
%ADD12C,0.100000*%
%ADD13C,0.500000*%
%ADD14C,0.152400*%
%ADD15C,0.200000*%
%ADD16C,0.101600*%


D10*
X401479Y82781D02*
X408365Y82781D01*
X408365Y98275D01*
X401479Y98275D01*
X403200Y91389D02*
X408365Y91389D01*
X395509Y98275D02*
X395509Y82781D01*
X386901Y82781D02*
X395509Y98275D01*
X386901Y98275D02*
X386901Y82781D01*
X377330Y82781D02*
X380773Y93110D01*
X373887Y93110D02*
X377330Y82781D01*
X368255Y82781D02*
X363090Y82781D01*
X362975Y82783D01*
X362860Y82789D01*
X362745Y82798D01*
X362631Y82812D01*
X362517Y82829D01*
X362404Y82850D01*
X362292Y82875D01*
X362180Y82903D01*
X362070Y82936D01*
X361961Y82972D01*
X361853Y83011D01*
X361746Y83054D01*
X361641Y83101D01*
X361537Y83151D01*
X361435Y83205D01*
X361335Y83262D01*
X361237Y83322D01*
X361141Y83385D01*
X361048Y83452D01*
X360956Y83522D01*
X360867Y83595D01*
X360780Y83670D01*
X360696Y83749D01*
X360615Y83830D01*
X360536Y83914D01*
X360461Y84001D01*
X360388Y84090D01*
X360318Y84182D01*
X360251Y84275D01*
X360188Y84371D01*
X360128Y84469D01*
X360071Y84569D01*
X360017Y84671D01*
X359967Y84775D01*
X359920Y84880D01*
X359877Y84987D01*
X359838Y85095D01*
X359802Y85204D01*
X359769Y85314D01*
X359741Y85426D01*
X359716Y85538D01*
X359695Y85651D01*
X359678Y85765D01*
X359664Y85879D01*
X359655Y85994D01*
X359649Y86109D01*
X359647Y86224D01*
X359647Y87946D01*
X359649Y88061D01*
X359655Y88176D01*
X359664Y88291D01*
X359678Y88405D01*
X359695Y88519D01*
X359716Y88632D01*
X359741Y88744D01*
X359769Y88856D01*
X359802Y88966D01*
X359838Y89075D01*
X359877Y89183D01*
X359920Y89290D01*
X359967Y89395D01*
X360017Y89499D01*
X360071Y89601D01*
X360128Y89701D01*
X360188Y89799D01*
X360251Y89895D01*
X360318Y89988D01*
X360388Y90080D01*
X360461Y90169D01*
X360537Y90256D01*
X360615Y90340D01*
X360696Y90421D01*
X360781Y90500D01*
X360867Y90575D01*
X360956Y90648D01*
X361048Y90718D01*
X361141Y90785D01*
X361237Y90848D01*
X361335Y90908D01*
X361435Y90965D01*
X361537Y91019D01*
X361641Y91069D01*
X361746Y91116D01*
X361853Y91159D01*
X361961Y91199D01*
X362070Y91234D01*
X362180Y91267D01*
X362292Y91295D01*
X362404Y91320D01*
X362517Y91341D01*
X362631Y91358D01*
X362745Y91372D01*
X362860Y91381D01*
X362975Y91387D01*
X363090Y91389D01*
X368255Y91389D01*
X368255Y98275D01*
X359647Y98275D01*
X344879Y98275D02*
X344879Y82781D01*
X344879Y98275D02*
X340576Y98275D01*
X340446Y98273D01*
X340316Y98267D01*
X340186Y98257D01*
X340057Y98244D01*
X339928Y98226D01*
X339800Y98205D01*
X339673Y98179D01*
X339546Y98150D01*
X339420Y98117D01*
X339296Y98080D01*
X339172Y98040D01*
X339050Y97995D01*
X338929Y97947D01*
X338810Y97896D01*
X338692Y97841D01*
X338576Y97782D01*
X338462Y97720D01*
X338349Y97654D01*
X338239Y97585D01*
X338131Y97513D01*
X338025Y97438D01*
X337922Y97359D01*
X337821Y97277D01*
X337722Y97193D01*
X337626Y97105D01*
X337533Y97014D01*
X337442Y96921D01*
X337354Y96825D01*
X337270Y96726D01*
X337188Y96625D01*
X337109Y96522D01*
X337034Y96416D01*
X336962Y96308D01*
X336893Y96198D01*
X336827Y96085D01*
X336765Y95971D01*
X336706Y95855D01*
X336651Y95737D01*
X336600Y95618D01*
X336552Y95497D01*
X336507Y95375D01*
X336467Y95251D01*
X336430Y95127D01*
X336397Y95001D01*
X336368Y94874D01*
X336342Y94747D01*
X336321Y94619D01*
X336303Y94490D01*
X336290Y94361D01*
X336280Y94231D01*
X336274Y94101D01*
X336272Y93971D01*
X336274Y93841D01*
X336280Y93711D01*
X336290Y93581D01*
X336303Y93452D01*
X336321Y93323D01*
X336342Y93195D01*
X336368Y93068D01*
X336397Y92941D01*
X336430Y92815D01*
X336467Y92691D01*
X336507Y92567D01*
X336552Y92445D01*
X336600Y92324D01*
X336651Y92205D01*
X336706Y92087D01*
X336765Y91971D01*
X336827Y91857D01*
X336893Y91744D01*
X336962Y91634D01*
X337034Y91526D01*
X337109Y91420D01*
X337188Y91317D01*
X337270Y91216D01*
X337354Y91117D01*
X337442Y91021D01*
X337533Y90928D01*
X337626Y90837D01*
X337722Y90749D01*
X337821Y90665D01*
X337922Y90583D01*
X338025Y90504D01*
X338131Y90429D01*
X338239Y90357D01*
X338349Y90288D01*
X338462Y90222D01*
X338576Y90160D01*
X338692Y90101D01*
X338810Y90046D01*
X338929Y89995D01*
X339050Y89947D01*
X339172Y89902D01*
X339296Y89862D01*
X339420Y89825D01*
X339546Y89792D01*
X339673Y89763D01*
X339800Y89737D01*
X339928Y89716D01*
X340057Y89698D01*
X340186Y89685D01*
X340316Y89675D01*
X340446Y89669D01*
X340576Y89667D01*
X344879Y89667D01*
X339715Y89667D02*
X336272Y82781D01*
X327647Y82781D02*
X323343Y82781D01*
X327647Y82781D02*
X327746Y82783D01*
X327845Y82789D01*
X327943Y82798D01*
X328041Y82811D01*
X328139Y82828D01*
X328235Y82849D01*
X328331Y82873D01*
X328426Y82901D01*
X328520Y82933D01*
X328612Y82968D01*
X328703Y83007D01*
X328793Y83049D01*
X328880Y83095D01*
X328966Y83144D01*
X329050Y83196D01*
X329132Y83251D01*
X329212Y83310D01*
X329290Y83371D01*
X329365Y83435D01*
X329437Y83503D01*
X329507Y83573D01*
X329575Y83645D01*
X329639Y83720D01*
X329700Y83798D01*
X329759Y83878D01*
X329814Y83960D01*
X329866Y84044D01*
X329915Y84130D01*
X329961Y84217D01*
X330003Y84307D01*
X330042Y84398D01*
X330077Y84490D01*
X330109Y84584D01*
X330137Y84679D01*
X330161Y84775D01*
X330182Y84871D01*
X330199Y84969D01*
X330212Y85067D01*
X330221Y85165D01*
X330227Y85264D01*
X330229Y85363D01*
X330229Y89667D01*
X330227Y89783D01*
X330221Y89899D01*
X330211Y90015D01*
X330198Y90131D01*
X330180Y90246D01*
X330159Y90360D01*
X330133Y90474D01*
X330104Y90586D01*
X330071Y90698D01*
X330034Y90808D01*
X329994Y90917D01*
X329950Y91025D01*
X329902Y91131D01*
X329851Y91235D01*
X329796Y91338D01*
X329738Y91439D01*
X329677Y91537D01*
X329612Y91634D01*
X329544Y91728D01*
X329473Y91820D01*
X329398Y91910D01*
X329321Y91997D01*
X329241Y92081D01*
X329158Y92162D01*
X329072Y92241D01*
X328984Y92317D01*
X328893Y92390D01*
X328800Y92459D01*
X328705Y92526D01*
X328607Y92589D01*
X328508Y92649D01*
X328406Y92705D01*
X328302Y92758D01*
X328197Y92808D01*
X328090Y92853D01*
X327982Y92896D01*
X327872Y92934D01*
X327761Y92969D01*
X327649Y93000D01*
X327536Y93027D01*
X327422Y93051D01*
X327307Y93070D01*
X327192Y93086D01*
X327076Y93098D01*
X326960Y93106D01*
X326844Y93110D01*
X326728Y93110D01*
X326612Y93106D01*
X326496Y93098D01*
X326380Y93086D01*
X326265Y93070D01*
X326150Y93051D01*
X326036Y93027D01*
X325923Y93000D01*
X325811Y92969D01*
X325700Y92934D01*
X325590Y92896D01*
X325482Y92853D01*
X325375Y92808D01*
X325270Y92758D01*
X325166Y92705D01*
X325065Y92649D01*
X324965Y92589D01*
X324867Y92526D01*
X324772Y92459D01*
X324679Y92390D01*
X324588Y92317D01*
X324500Y92241D01*
X324414Y92162D01*
X324331Y92081D01*
X324251Y91997D01*
X324174Y91910D01*
X324099Y91820D01*
X324028Y91728D01*
X323960Y91634D01*
X323895Y91537D01*
X323834Y91439D01*
X323776Y91338D01*
X323721Y91235D01*
X323670Y91131D01*
X323622Y91025D01*
X323578Y90917D01*
X323538Y90808D01*
X323501Y90698D01*
X323468Y90586D01*
X323439Y90474D01*
X323413Y90360D01*
X323392Y90246D01*
X323374Y90131D01*
X323361Y90015D01*
X323351Y89899D01*
X323345Y89783D01*
X323343Y89667D01*
X323343Y87946D01*
X330229Y87946D01*
X317841Y93110D02*
X314398Y82781D01*
X310955Y93110D01*
X305909Y83642D02*
X305909Y82781D01*
X305909Y83642D02*
X305048Y83642D01*
X305048Y82781D01*
X305909Y82781D01*
X290768Y94402D02*
X290770Y94524D01*
X290776Y94645D01*
X290785Y94767D01*
X290799Y94888D01*
X290816Y95008D01*
X290837Y95128D01*
X290861Y95247D01*
X290890Y95365D01*
X290922Y95483D01*
X290958Y95599D01*
X290997Y95714D01*
X291040Y95828D01*
X291087Y95941D01*
X291137Y96051D01*
X291190Y96161D01*
X291247Y96268D01*
X291307Y96374D01*
X291371Y96478D01*
X291438Y96580D01*
X291508Y96679D01*
X291581Y96776D01*
X291657Y96871D01*
X291736Y96964D01*
X291818Y97054D01*
X291903Y97141D01*
X291990Y97226D01*
X292080Y97308D01*
X292173Y97387D01*
X292268Y97463D01*
X292365Y97536D01*
X292464Y97606D01*
X292566Y97673D01*
X292670Y97737D01*
X292776Y97797D01*
X292883Y97854D01*
X292993Y97907D01*
X293103Y97957D01*
X293216Y98004D01*
X293330Y98047D01*
X293445Y98086D01*
X293561Y98122D01*
X293679Y98154D01*
X293797Y98183D01*
X293916Y98207D01*
X294036Y98228D01*
X294156Y98245D01*
X294277Y98259D01*
X294399Y98268D01*
X294520Y98274D01*
X294642Y98276D01*
X294642Y98275D02*
X294781Y98273D01*
X294920Y98267D01*
X295059Y98258D01*
X295197Y98244D01*
X295335Y98226D01*
X295472Y98205D01*
X295609Y98180D01*
X295745Y98151D01*
X295880Y98118D01*
X296015Y98082D01*
X296148Y98042D01*
X296280Y97998D01*
X296410Y97950D01*
X296540Y97899D01*
X296667Y97844D01*
X296794Y97786D01*
X296918Y97724D01*
X297041Y97659D01*
X297162Y97590D01*
X297281Y97518D01*
X297398Y97442D01*
X297512Y97364D01*
X297625Y97282D01*
X297735Y97197D01*
X297843Y97109D01*
X297948Y97018D01*
X298050Y96924D01*
X298150Y96828D01*
X298248Y96728D01*
X298342Y96626D01*
X298434Y96522D01*
X298522Y96414D01*
X298608Y96305D01*
X298690Y96193D01*
X298769Y96078D01*
X298845Y95962D01*
X298918Y95844D01*
X298988Y95723D01*
X299054Y95601D01*
X299116Y95476D01*
X299175Y95351D01*
X299231Y95223D01*
X299283Y95094D01*
X299331Y94964D01*
X299376Y94832D01*
X292059Y91389D02*
X291970Y91476D01*
X291884Y91566D01*
X291800Y91659D01*
X291719Y91754D01*
X291641Y91851D01*
X291566Y91951D01*
X291494Y92053D01*
X291425Y92157D01*
X291360Y92263D01*
X291297Y92371D01*
X291238Y92481D01*
X291182Y92593D01*
X291129Y92706D01*
X291080Y92820D01*
X291035Y92937D01*
X290992Y93054D01*
X290954Y93173D01*
X290919Y93292D01*
X290887Y93413D01*
X290859Y93535D01*
X290835Y93657D01*
X290815Y93780D01*
X290798Y93904D01*
X290785Y94028D01*
X290775Y94153D01*
X290770Y94277D01*
X290768Y94402D01*
X292060Y91389D02*
X299377Y82781D01*
X290769Y82781D01*
X399757Y69256D02*
X399759Y69378D01*
X399765Y69499D01*
X399774Y69621D01*
X399788Y69742D01*
X399805Y69862D01*
X399826Y69982D01*
X399850Y70101D01*
X399879Y70219D01*
X399911Y70337D01*
X399947Y70453D01*
X399986Y70568D01*
X400029Y70682D01*
X400076Y70795D01*
X400126Y70905D01*
X400179Y71015D01*
X400236Y71122D01*
X400296Y71228D01*
X400360Y71332D01*
X400427Y71434D01*
X400497Y71533D01*
X400570Y71630D01*
X400646Y71725D01*
X400725Y71818D01*
X400807Y71908D01*
X400892Y71995D01*
X400979Y72080D01*
X401069Y72162D01*
X401162Y72241D01*
X401257Y72317D01*
X401354Y72390D01*
X401453Y72460D01*
X401555Y72527D01*
X401659Y72591D01*
X401765Y72651D01*
X401872Y72708D01*
X401982Y72761D01*
X402092Y72811D01*
X402205Y72858D01*
X402319Y72901D01*
X402434Y72940D01*
X402550Y72976D01*
X402668Y73008D01*
X402786Y73037D01*
X402905Y73061D01*
X403025Y73082D01*
X403145Y73099D01*
X403266Y73113D01*
X403388Y73122D01*
X403509Y73128D01*
X403631Y73130D01*
X403631Y73129D02*
X403770Y73127D01*
X403909Y73121D01*
X404048Y73112D01*
X404186Y73098D01*
X404324Y73080D01*
X404461Y73059D01*
X404598Y73034D01*
X404734Y73005D01*
X404869Y72972D01*
X405004Y72936D01*
X405137Y72896D01*
X405269Y72852D01*
X405399Y72804D01*
X405529Y72753D01*
X405656Y72698D01*
X405783Y72640D01*
X405907Y72578D01*
X406030Y72513D01*
X406151Y72444D01*
X406270Y72372D01*
X406387Y72296D01*
X406501Y72218D01*
X406614Y72136D01*
X406724Y72051D01*
X406832Y71963D01*
X406937Y71872D01*
X407039Y71778D01*
X407139Y71682D01*
X407237Y71582D01*
X407331Y71480D01*
X407423Y71376D01*
X407511Y71268D01*
X407597Y71159D01*
X407679Y71047D01*
X407758Y70932D01*
X407834Y70816D01*
X407907Y70698D01*
X407977Y70577D01*
X408043Y70455D01*
X408105Y70330D01*
X408164Y70205D01*
X408220Y70077D01*
X408272Y69948D01*
X408320Y69818D01*
X408365Y69686D01*
X401048Y66243D02*
X400959Y66330D01*
X400873Y66420D01*
X400789Y66513D01*
X400708Y66608D01*
X400630Y66705D01*
X400555Y66805D01*
X400483Y66907D01*
X400414Y67011D01*
X400349Y67117D01*
X400286Y67225D01*
X400227Y67335D01*
X400171Y67447D01*
X400118Y67560D01*
X400069Y67674D01*
X400024Y67791D01*
X399981Y67908D01*
X399943Y68027D01*
X399908Y68146D01*
X399876Y68267D01*
X399848Y68389D01*
X399824Y68511D01*
X399804Y68634D01*
X399787Y68758D01*
X399774Y68882D01*
X399764Y69007D01*
X399759Y69131D01*
X399757Y69256D01*
X401048Y66243D02*
X408365Y57635D01*
X399757Y57635D01*
X393499Y65382D02*
X393495Y65687D01*
X393484Y65991D01*
X393466Y66296D01*
X393441Y66599D01*
X393408Y66902D01*
X393368Y67205D01*
X393321Y67506D01*
X393267Y67806D01*
X393205Y68104D01*
X393137Y68401D01*
X393061Y68697D01*
X392979Y68990D01*
X392889Y69281D01*
X392792Y69570D01*
X392689Y69857D01*
X392579Y70141D01*
X392462Y70423D01*
X392338Y70701D01*
X392208Y70977D01*
X392170Y71080D01*
X392130Y71182D01*
X392085Y71282D01*
X392037Y71381D01*
X391986Y71478D01*
X391932Y71573D01*
X391874Y71667D01*
X391813Y71758D01*
X391749Y71847D01*
X391682Y71934D01*
X391612Y72018D01*
X391539Y72100D01*
X391463Y72180D01*
X391385Y72257D01*
X391304Y72331D01*
X391220Y72402D01*
X391134Y72470D01*
X391046Y72536D01*
X390956Y72598D01*
X390863Y72657D01*
X390769Y72713D01*
X390673Y72766D01*
X390575Y72815D01*
X390475Y72861D01*
X390374Y72903D01*
X390271Y72942D01*
X390167Y72977D01*
X390062Y73009D01*
X389956Y73037D01*
X389849Y73061D01*
X389741Y73082D01*
X389633Y73099D01*
X389524Y73112D01*
X389414Y73121D01*
X389305Y73127D01*
X389195Y73129D01*
X389085Y73127D01*
X388976Y73121D01*
X388866Y73112D01*
X388757Y73099D01*
X388649Y73082D01*
X388541Y73061D01*
X388434Y73037D01*
X388328Y73009D01*
X388223Y72977D01*
X388119Y72942D01*
X388016Y72903D01*
X387915Y72861D01*
X387815Y72815D01*
X387717Y72766D01*
X387621Y72713D01*
X387527Y72657D01*
X387434Y72598D01*
X387344Y72536D01*
X387256Y72470D01*
X387170Y72402D01*
X387086Y72331D01*
X387005Y72257D01*
X386927Y72180D01*
X386851Y72101D01*
X386778Y72018D01*
X386708Y71934D01*
X386641Y71847D01*
X386577Y71758D01*
X386516Y71667D01*
X386458Y71573D01*
X386404Y71478D01*
X386353Y71381D01*
X386305Y71282D01*
X386260Y71182D01*
X386220Y71080D01*
X386182Y70977D01*
X386183Y70977D02*
X386053Y70701D01*
X385929Y70423D01*
X385812Y70141D01*
X385702Y69857D01*
X385599Y69570D01*
X385502Y69281D01*
X385412Y68990D01*
X385330Y68697D01*
X385254Y68401D01*
X385186Y68104D01*
X385124Y67806D01*
X385070Y67506D01*
X385023Y67205D01*
X384983Y66902D01*
X384950Y66599D01*
X384925Y66296D01*
X384907Y65991D01*
X384896Y65687D01*
X384892Y65382D01*
X393499Y65382D02*
X393495Y65077D01*
X393484Y64773D01*
X393466Y64468D01*
X393441Y64165D01*
X393408Y63862D01*
X393368Y63559D01*
X393321Y63258D01*
X393267Y62958D01*
X393205Y62660D01*
X393137Y62363D01*
X393061Y62067D01*
X392979Y61774D01*
X392889Y61483D01*
X392792Y61194D01*
X392689Y60907D01*
X392579Y60623D01*
X392462Y60341D01*
X392338Y60063D01*
X392208Y59787D01*
X392170Y59684D01*
X392130Y59582D01*
X392085Y59482D01*
X392037Y59383D01*
X391986Y59286D01*
X391932Y59191D01*
X391874Y59097D01*
X391813Y59006D01*
X391749Y58917D01*
X391682Y58830D01*
X391612Y58746D01*
X391539Y58663D01*
X391463Y58584D01*
X391385Y58507D01*
X391304Y58433D01*
X391220Y58362D01*
X391134Y58294D01*
X391046Y58228D01*
X390956Y58166D01*
X390863Y58107D01*
X390769Y58051D01*
X390673Y57998D01*
X390575Y57949D01*
X390475Y57903D01*
X390374Y57861D01*
X390271Y57822D01*
X390167Y57787D01*
X390062Y57755D01*
X389956Y57727D01*
X389849Y57703D01*
X389741Y57682D01*
X389633Y57665D01*
X389524Y57652D01*
X389414Y57643D01*
X389305Y57637D01*
X389195Y57635D01*
X386183Y59787D02*
X386053Y60063D01*
X385929Y60341D01*
X385812Y60623D01*
X385702Y60907D01*
X385599Y61194D01*
X385502Y61483D01*
X385412Y61774D01*
X385330Y62067D01*
X385254Y62363D01*
X385186Y62660D01*
X385124Y62958D01*
X385070Y63258D01*
X385023Y63559D01*
X384983Y63862D01*
X384950Y64165D01*
X384925Y64468D01*
X384907Y64773D01*
X384896Y65077D01*
X384892Y65382D01*
X386182Y59787D02*
X386220Y59684D01*
X386260Y59582D01*
X386305Y59482D01*
X386353Y59383D01*
X386404Y59286D01*
X386458Y59191D01*
X386516Y59097D01*
X386577Y59006D01*
X386641Y58917D01*
X386708Y58830D01*
X386778Y58745D01*
X386851Y58663D01*
X386927Y58584D01*
X387005Y58507D01*
X387086Y58433D01*
X387170Y58362D01*
X387256Y58294D01*
X387344Y58228D01*
X387434Y58166D01*
X387527Y58107D01*
X387621Y58051D01*
X387717Y57998D01*
X387816Y57949D01*
X387915Y57903D01*
X388016Y57861D01*
X388119Y57822D01*
X388223Y57787D01*
X388328Y57755D01*
X388434Y57727D01*
X388541Y57703D01*
X388649Y57682D01*
X388757Y57665D01*
X388866Y57652D01*
X388976Y57643D01*
X389085Y57637D01*
X389195Y57635D01*
X392639Y61078D02*
X385752Y69686D01*
X373899Y73130D02*
X373777Y73128D01*
X373656Y73122D01*
X373534Y73113D01*
X373413Y73099D01*
X373293Y73082D01*
X373173Y73061D01*
X373054Y73037D01*
X372936Y73008D01*
X372818Y72976D01*
X372702Y72940D01*
X372587Y72901D01*
X372473Y72858D01*
X372360Y72811D01*
X372250Y72761D01*
X372140Y72708D01*
X372033Y72651D01*
X371927Y72591D01*
X371823Y72527D01*
X371721Y72460D01*
X371622Y72390D01*
X371525Y72317D01*
X371430Y72241D01*
X371337Y72162D01*
X371247Y72080D01*
X371160Y71995D01*
X371075Y71908D01*
X370993Y71818D01*
X370914Y71725D01*
X370838Y71630D01*
X370765Y71533D01*
X370695Y71434D01*
X370628Y71332D01*
X370564Y71228D01*
X370504Y71122D01*
X370447Y71015D01*
X370394Y70905D01*
X370344Y70795D01*
X370297Y70682D01*
X370254Y70568D01*
X370215Y70453D01*
X370179Y70337D01*
X370147Y70219D01*
X370118Y70101D01*
X370094Y69982D01*
X370073Y69862D01*
X370056Y69742D01*
X370042Y69621D01*
X370033Y69499D01*
X370027Y69378D01*
X370025Y69256D01*
X373899Y73129D02*
X374038Y73127D01*
X374177Y73121D01*
X374316Y73112D01*
X374454Y73098D01*
X374592Y73080D01*
X374729Y73059D01*
X374866Y73034D01*
X375002Y73005D01*
X375137Y72972D01*
X375272Y72936D01*
X375405Y72896D01*
X375537Y72852D01*
X375667Y72804D01*
X375797Y72753D01*
X375924Y72698D01*
X376051Y72640D01*
X376175Y72578D01*
X376298Y72513D01*
X376419Y72444D01*
X376538Y72372D01*
X376655Y72296D01*
X376769Y72218D01*
X376882Y72136D01*
X376992Y72051D01*
X377100Y71963D01*
X377205Y71872D01*
X377307Y71778D01*
X377407Y71682D01*
X377505Y71582D01*
X377599Y71480D01*
X377691Y71376D01*
X377779Y71268D01*
X377865Y71159D01*
X377947Y71047D01*
X378026Y70932D01*
X378102Y70816D01*
X378175Y70698D01*
X378245Y70577D01*
X378311Y70455D01*
X378373Y70330D01*
X378432Y70205D01*
X378488Y70077D01*
X378540Y69948D01*
X378588Y69818D01*
X378633Y69686D01*
X371316Y66243D02*
X371227Y66330D01*
X371141Y66420D01*
X371057Y66513D01*
X370976Y66608D01*
X370898Y66705D01*
X370823Y66805D01*
X370751Y66907D01*
X370682Y67011D01*
X370617Y67117D01*
X370554Y67225D01*
X370495Y67335D01*
X370439Y67447D01*
X370386Y67560D01*
X370337Y67674D01*
X370292Y67791D01*
X370249Y67908D01*
X370211Y68027D01*
X370176Y68146D01*
X370144Y68267D01*
X370116Y68389D01*
X370092Y68511D01*
X370072Y68634D01*
X370055Y68758D01*
X370042Y68882D01*
X370032Y69007D01*
X370027Y69131D01*
X370025Y69256D01*
X371317Y66243D02*
X378634Y57635D01*
X370026Y57635D01*
X363768Y57635D02*
X359464Y57635D01*
X359334Y57637D01*
X359204Y57643D01*
X359074Y57653D01*
X358945Y57666D01*
X358816Y57684D01*
X358688Y57705D01*
X358561Y57731D01*
X358434Y57760D01*
X358308Y57793D01*
X358184Y57830D01*
X358060Y57870D01*
X357938Y57915D01*
X357817Y57963D01*
X357698Y58014D01*
X357580Y58069D01*
X357464Y58128D01*
X357350Y58190D01*
X357237Y58256D01*
X357127Y58325D01*
X357019Y58397D01*
X356913Y58472D01*
X356810Y58551D01*
X356709Y58633D01*
X356610Y58717D01*
X356514Y58805D01*
X356421Y58896D01*
X356330Y58989D01*
X356242Y59085D01*
X356158Y59184D01*
X356076Y59285D01*
X355997Y59388D01*
X355922Y59494D01*
X355850Y59602D01*
X355781Y59712D01*
X355715Y59825D01*
X355653Y59939D01*
X355594Y60055D01*
X355539Y60173D01*
X355488Y60292D01*
X355440Y60413D01*
X355395Y60535D01*
X355355Y60659D01*
X355318Y60783D01*
X355285Y60909D01*
X355256Y61036D01*
X355230Y61163D01*
X355209Y61291D01*
X355191Y61420D01*
X355178Y61549D01*
X355168Y61679D01*
X355162Y61809D01*
X355160Y61939D01*
X355162Y62069D01*
X355168Y62199D01*
X355178Y62329D01*
X355191Y62458D01*
X355209Y62587D01*
X355230Y62715D01*
X355256Y62842D01*
X355285Y62969D01*
X355318Y63095D01*
X355355Y63219D01*
X355395Y63343D01*
X355440Y63465D01*
X355488Y63586D01*
X355539Y63705D01*
X355594Y63823D01*
X355653Y63939D01*
X355715Y64053D01*
X355781Y64166D01*
X355850Y64276D01*
X355922Y64384D01*
X355997Y64490D01*
X356076Y64593D01*
X356158Y64694D01*
X356242Y64793D01*
X356330Y64889D01*
X356421Y64982D01*
X356514Y65073D01*
X356610Y65161D01*
X356709Y65245D01*
X356810Y65327D01*
X356913Y65406D01*
X357019Y65481D01*
X357127Y65553D01*
X357237Y65622D01*
X357350Y65688D01*
X357464Y65750D01*
X357580Y65809D01*
X357698Y65864D01*
X357817Y65915D01*
X357938Y65963D01*
X358060Y66008D01*
X358184Y66048D01*
X358308Y66085D01*
X358434Y66118D01*
X358561Y66147D01*
X358688Y66173D01*
X358816Y66194D01*
X358945Y66212D01*
X359074Y66225D01*
X359204Y66235D01*
X359334Y66241D01*
X359464Y66243D01*
X358603Y73129D02*
X363768Y73129D01*
X358603Y73129D02*
X358487Y73127D01*
X358371Y73121D01*
X358255Y73111D01*
X358139Y73098D01*
X358024Y73080D01*
X357910Y73059D01*
X357796Y73033D01*
X357684Y73004D01*
X357572Y72971D01*
X357462Y72934D01*
X357353Y72894D01*
X357245Y72850D01*
X357139Y72802D01*
X357035Y72751D01*
X356932Y72696D01*
X356831Y72638D01*
X356733Y72577D01*
X356636Y72512D01*
X356542Y72444D01*
X356450Y72373D01*
X356360Y72298D01*
X356273Y72221D01*
X356189Y72141D01*
X356108Y72058D01*
X356029Y71972D01*
X355953Y71884D01*
X355880Y71793D01*
X355811Y71700D01*
X355744Y71605D01*
X355681Y71507D01*
X355621Y71408D01*
X355565Y71306D01*
X355512Y71202D01*
X355462Y71097D01*
X355417Y70990D01*
X355374Y70882D01*
X355336Y70772D01*
X355301Y70661D01*
X355270Y70549D01*
X355243Y70436D01*
X355219Y70322D01*
X355200Y70207D01*
X355184Y70092D01*
X355172Y69976D01*
X355164Y69860D01*
X355160Y69744D01*
X355160Y69628D01*
X355164Y69512D01*
X355172Y69396D01*
X355184Y69280D01*
X355200Y69165D01*
X355219Y69050D01*
X355243Y68936D01*
X355270Y68823D01*
X355301Y68711D01*
X355336Y68600D01*
X355374Y68490D01*
X355417Y68382D01*
X355462Y68275D01*
X355512Y68170D01*
X355565Y68066D01*
X355621Y67965D01*
X355681Y67865D01*
X355744Y67767D01*
X355811Y67672D01*
X355880Y67579D01*
X355953Y67488D01*
X356029Y67400D01*
X356108Y67314D01*
X356189Y67231D01*
X356273Y67151D01*
X356360Y67074D01*
X356450Y66999D01*
X356542Y66928D01*
X356636Y66860D01*
X356733Y66795D01*
X356831Y66734D01*
X356932Y66676D01*
X357035Y66621D01*
X357139Y66570D01*
X357245Y66522D01*
X357353Y66478D01*
X357462Y66438D01*
X357572Y66401D01*
X357684Y66368D01*
X357796Y66339D01*
X357910Y66313D01*
X358024Y66292D01*
X358139Y66274D01*
X358255Y66261D01*
X358371Y66251D01*
X358487Y66245D01*
X358603Y66243D01*
X362046Y66243D01*
X348772Y63660D02*
X338442Y63660D01*
X332054Y65382D02*
X332050Y65687D01*
X332039Y65991D01*
X332021Y66296D01*
X331996Y66599D01*
X331963Y66902D01*
X331923Y67205D01*
X331876Y67506D01*
X331822Y67806D01*
X331760Y68104D01*
X331692Y68401D01*
X331616Y68697D01*
X331534Y68990D01*
X331444Y69281D01*
X331347Y69570D01*
X331244Y69857D01*
X331134Y70141D01*
X331017Y70423D01*
X330893Y70701D01*
X330763Y70977D01*
X330725Y71080D01*
X330685Y71182D01*
X330640Y71282D01*
X330592Y71381D01*
X330541Y71478D01*
X330487Y71573D01*
X330429Y71667D01*
X330368Y71758D01*
X330304Y71847D01*
X330237Y71934D01*
X330167Y72018D01*
X330094Y72100D01*
X330018Y72180D01*
X329940Y72257D01*
X329859Y72331D01*
X329775Y72402D01*
X329689Y72470D01*
X329601Y72536D01*
X329511Y72598D01*
X329418Y72657D01*
X329324Y72713D01*
X329228Y72766D01*
X329130Y72815D01*
X329030Y72861D01*
X328929Y72903D01*
X328826Y72942D01*
X328722Y72977D01*
X328617Y73009D01*
X328511Y73037D01*
X328404Y73061D01*
X328296Y73082D01*
X328188Y73099D01*
X328079Y73112D01*
X327969Y73121D01*
X327860Y73127D01*
X327750Y73129D01*
X327640Y73127D01*
X327531Y73121D01*
X327421Y73112D01*
X327312Y73099D01*
X327204Y73082D01*
X327096Y73061D01*
X326989Y73037D01*
X326883Y73009D01*
X326778Y72977D01*
X326674Y72942D01*
X326571Y72903D01*
X326470Y72861D01*
X326370Y72815D01*
X326272Y72766D01*
X326176Y72713D01*
X326082Y72657D01*
X325989Y72598D01*
X325899Y72536D01*
X325811Y72470D01*
X325725Y72402D01*
X325641Y72331D01*
X325560Y72257D01*
X325482Y72180D01*
X325406Y72101D01*
X325333Y72018D01*
X325263Y71934D01*
X325196Y71847D01*
X325132Y71758D01*
X325071Y71667D01*
X325013Y71573D01*
X324959Y71478D01*
X324908Y71381D01*
X324860Y71282D01*
X324815Y71182D01*
X324775Y71080D01*
X324737Y70977D01*
X324607Y70701D01*
X324483Y70423D01*
X324366Y70141D01*
X324256Y69857D01*
X324153Y69570D01*
X324056Y69281D01*
X323966Y68990D01*
X323884Y68697D01*
X323808Y68401D01*
X323740Y68104D01*
X323678Y67806D01*
X323624Y67506D01*
X323577Y67205D01*
X323537Y66902D01*
X323504Y66599D01*
X323479Y66296D01*
X323461Y65991D01*
X323450Y65687D01*
X323446Y65382D01*
X332054Y65382D02*
X332050Y65077D01*
X332039Y64773D01*
X332021Y64468D01*
X331996Y64165D01*
X331963Y63862D01*
X331923Y63559D01*
X331876Y63258D01*
X331822Y62958D01*
X331760Y62660D01*
X331692Y62363D01*
X331616Y62067D01*
X331534Y61774D01*
X331444Y61483D01*
X331347Y61194D01*
X331244Y60907D01*
X331134Y60623D01*
X331017Y60341D01*
X330893Y60063D01*
X330763Y59787D01*
X330725Y59684D01*
X330685Y59582D01*
X330640Y59482D01*
X330592Y59383D01*
X330541Y59286D01*
X330487Y59191D01*
X330429Y59097D01*
X330368Y59006D01*
X330304Y58917D01*
X330237Y58830D01*
X330167Y58746D01*
X330094Y58663D01*
X330018Y58584D01*
X329940Y58507D01*
X329859Y58433D01*
X329775Y58362D01*
X329689Y58294D01*
X329601Y58228D01*
X329511Y58166D01*
X329418Y58107D01*
X329324Y58051D01*
X329228Y57998D01*
X329130Y57949D01*
X329030Y57903D01*
X328929Y57861D01*
X328826Y57822D01*
X328722Y57787D01*
X328617Y57755D01*
X328511Y57727D01*
X328404Y57703D01*
X328296Y57682D01*
X328188Y57665D01*
X328079Y57652D01*
X327969Y57643D01*
X327860Y57637D01*
X327750Y57635D01*
X324738Y59787D02*
X324608Y60063D01*
X324484Y60341D01*
X324367Y60623D01*
X324257Y60907D01*
X324154Y61194D01*
X324057Y61483D01*
X323967Y61774D01*
X323885Y62067D01*
X323809Y62363D01*
X323741Y62660D01*
X323679Y62958D01*
X323625Y63258D01*
X323578Y63559D01*
X323538Y63862D01*
X323505Y64165D01*
X323480Y64468D01*
X323462Y64773D01*
X323451Y65077D01*
X323447Y65382D01*
X324737Y59787D02*
X324775Y59684D01*
X324815Y59582D01*
X324860Y59482D01*
X324908Y59383D01*
X324959Y59286D01*
X325013Y59191D01*
X325071Y59097D01*
X325132Y59006D01*
X325196Y58917D01*
X325263Y58830D01*
X325333Y58745D01*
X325406Y58663D01*
X325482Y58584D01*
X325560Y58507D01*
X325641Y58433D01*
X325725Y58362D01*
X325811Y58294D01*
X325899Y58228D01*
X325989Y58166D01*
X326082Y58107D01*
X326176Y58051D01*
X326272Y57998D01*
X326371Y57949D01*
X326470Y57903D01*
X326571Y57861D01*
X326674Y57822D01*
X326778Y57787D01*
X326883Y57755D01*
X326989Y57727D01*
X327096Y57703D01*
X327204Y57682D01*
X327312Y57665D01*
X327421Y57652D01*
X327531Y57643D01*
X327640Y57637D01*
X327750Y57635D01*
X331193Y61078D02*
X324307Y69686D01*
X317188Y71407D02*
X317188Y73129D01*
X308581Y73129D01*
X312885Y57635D01*
X302192Y63660D02*
X291863Y63660D01*
X285475Y65382D02*
X285471Y65687D01*
X285460Y65991D01*
X285442Y66296D01*
X285417Y66599D01*
X285384Y66902D01*
X285344Y67205D01*
X285297Y67506D01*
X285243Y67806D01*
X285181Y68104D01*
X285113Y68401D01*
X285037Y68697D01*
X284955Y68990D01*
X284865Y69281D01*
X284768Y69570D01*
X284665Y69857D01*
X284555Y70141D01*
X284438Y70423D01*
X284314Y70701D01*
X284184Y70977D01*
X284146Y71080D01*
X284106Y71182D01*
X284061Y71282D01*
X284013Y71381D01*
X283962Y71478D01*
X283908Y71573D01*
X283850Y71667D01*
X283789Y71758D01*
X283725Y71847D01*
X283658Y71934D01*
X283588Y72018D01*
X283515Y72100D01*
X283439Y72180D01*
X283361Y72257D01*
X283280Y72331D01*
X283196Y72402D01*
X283110Y72470D01*
X283022Y72536D01*
X282932Y72598D01*
X282839Y72657D01*
X282745Y72713D01*
X282649Y72766D01*
X282551Y72815D01*
X282451Y72861D01*
X282350Y72903D01*
X282247Y72942D01*
X282143Y72977D01*
X282038Y73009D01*
X281932Y73037D01*
X281825Y73061D01*
X281717Y73082D01*
X281609Y73099D01*
X281500Y73112D01*
X281390Y73121D01*
X281281Y73127D01*
X281171Y73129D01*
X281061Y73127D01*
X280952Y73121D01*
X280842Y73112D01*
X280733Y73099D01*
X280625Y73082D01*
X280517Y73061D01*
X280410Y73037D01*
X280304Y73009D01*
X280199Y72977D01*
X280095Y72942D01*
X279992Y72903D01*
X279891Y72861D01*
X279791Y72815D01*
X279693Y72766D01*
X279597Y72713D01*
X279503Y72657D01*
X279410Y72598D01*
X279320Y72536D01*
X279232Y72470D01*
X279146Y72402D01*
X279062Y72331D01*
X278981Y72257D01*
X278903Y72180D01*
X278827Y72101D01*
X278754Y72018D01*
X278684Y71934D01*
X278617Y71847D01*
X278553Y71758D01*
X278492Y71667D01*
X278434Y71573D01*
X278380Y71478D01*
X278329Y71381D01*
X278281Y71282D01*
X278236Y71182D01*
X278196Y71080D01*
X278158Y70977D01*
X278028Y70701D01*
X277904Y70423D01*
X277787Y70141D01*
X277677Y69857D01*
X277574Y69570D01*
X277477Y69281D01*
X277387Y68990D01*
X277305Y68697D01*
X277229Y68401D01*
X277161Y68104D01*
X277099Y67806D01*
X277045Y67506D01*
X276998Y67205D01*
X276958Y66902D01*
X276925Y66599D01*
X276900Y66296D01*
X276882Y65991D01*
X276871Y65687D01*
X276867Y65382D01*
X285474Y65382D02*
X285470Y65077D01*
X285459Y64773D01*
X285441Y64468D01*
X285416Y64165D01*
X285383Y63862D01*
X285343Y63559D01*
X285296Y63258D01*
X285242Y62958D01*
X285180Y62660D01*
X285112Y62363D01*
X285036Y62067D01*
X284954Y61774D01*
X284864Y61483D01*
X284767Y61194D01*
X284664Y60907D01*
X284554Y60623D01*
X284437Y60341D01*
X284313Y60063D01*
X284183Y59787D01*
X284184Y59787D02*
X284146Y59684D01*
X284106Y59582D01*
X284061Y59482D01*
X284013Y59383D01*
X283962Y59286D01*
X283908Y59191D01*
X283850Y59097D01*
X283789Y59006D01*
X283725Y58917D01*
X283658Y58830D01*
X283588Y58746D01*
X283515Y58663D01*
X283439Y58584D01*
X283361Y58507D01*
X283280Y58433D01*
X283196Y58362D01*
X283110Y58294D01*
X283022Y58228D01*
X282932Y58166D01*
X282839Y58107D01*
X282745Y58051D01*
X282649Y57998D01*
X282551Y57949D01*
X282451Y57903D01*
X282350Y57861D01*
X282247Y57822D01*
X282143Y57787D01*
X282038Y57755D01*
X281932Y57727D01*
X281825Y57703D01*
X281717Y57682D01*
X281609Y57665D01*
X281500Y57652D01*
X281390Y57643D01*
X281281Y57637D01*
X281171Y57635D01*
X278158Y59787D02*
X278028Y60063D01*
X277904Y60341D01*
X277787Y60623D01*
X277677Y60907D01*
X277574Y61194D01*
X277477Y61483D01*
X277387Y61774D01*
X277305Y62067D01*
X277229Y62363D01*
X277161Y62660D01*
X277099Y62958D01*
X277045Y63258D01*
X276998Y63559D01*
X276958Y63862D01*
X276925Y64165D01*
X276900Y64468D01*
X276882Y64773D01*
X276871Y65077D01*
X276867Y65382D01*
X278158Y59787D02*
X278196Y59684D01*
X278236Y59582D01*
X278281Y59482D01*
X278329Y59383D01*
X278380Y59286D01*
X278434Y59191D01*
X278492Y59097D01*
X278553Y59006D01*
X278617Y58917D01*
X278684Y58830D01*
X278754Y58745D01*
X278827Y58663D01*
X278903Y58584D01*
X278981Y58507D01*
X279062Y58433D01*
X279146Y58362D01*
X279232Y58294D01*
X279320Y58228D01*
X279410Y58166D01*
X279503Y58107D01*
X279597Y58051D01*
X279693Y57998D01*
X279792Y57949D01*
X279891Y57903D01*
X279992Y57861D01*
X280095Y57822D01*
X280199Y57787D01*
X280304Y57755D01*
X280410Y57727D01*
X280517Y57703D01*
X280625Y57682D01*
X280733Y57665D01*
X280842Y57652D01*
X280952Y57643D01*
X281061Y57637D01*
X281171Y57635D01*
X284614Y61078D02*
X277728Y69686D01*
X270609Y57635D02*
X266305Y57635D01*
X266175Y57637D01*
X266045Y57643D01*
X265915Y57653D01*
X265786Y57666D01*
X265657Y57684D01*
X265529Y57705D01*
X265402Y57731D01*
X265275Y57760D01*
X265149Y57793D01*
X265025Y57830D01*
X264901Y57870D01*
X264779Y57915D01*
X264658Y57963D01*
X264539Y58014D01*
X264421Y58069D01*
X264305Y58128D01*
X264191Y58190D01*
X264078Y58256D01*
X263968Y58325D01*
X263860Y58397D01*
X263754Y58472D01*
X263651Y58551D01*
X263550Y58633D01*
X263451Y58717D01*
X263355Y58805D01*
X263262Y58896D01*
X263171Y58989D01*
X263083Y59085D01*
X262999Y59184D01*
X262917Y59285D01*
X262838Y59388D01*
X262763Y59494D01*
X262691Y59602D01*
X262622Y59712D01*
X262556Y59825D01*
X262494Y59939D01*
X262435Y60055D01*
X262380Y60173D01*
X262329Y60292D01*
X262281Y60413D01*
X262236Y60535D01*
X262196Y60659D01*
X262159Y60783D01*
X262126Y60909D01*
X262097Y61036D01*
X262071Y61163D01*
X262050Y61291D01*
X262032Y61420D01*
X262019Y61549D01*
X262009Y61679D01*
X262003Y61809D01*
X262001Y61939D01*
X262003Y62069D01*
X262009Y62199D01*
X262019Y62329D01*
X262032Y62458D01*
X262050Y62587D01*
X262071Y62715D01*
X262097Y62842D01*
X262126Y62969D01*
X262159Y63095D01*
X262196Y63219D01*
X262236Y63343D01*
X262281Y63465D01*
X262329Y63586D01*
X262380Y63705D01*
X262435Y63823D01*
X262494Y63939D01*
X262556Y64053D01*
X262622Y64166D01*
X262691Y64276D01*
X262763Y64384D01*
X262838Y64490D01*
X262917Y64593D01*
X262999Y64694D01*
X263083Y64793D01*
X263171Y64889D01*
X263262Y64982D01*
X263355Y65073D01*
X263451Y65161D01*
X263550Y65245D01*
X263651Y65327D01*
X263754Y65406D01*
X263860Y65481D01*
X263968Y65553D01*
X264078Y65622D01*
X264191Y65688D01*
X264305Y65750D01*
X264421Y65809D01*
X264539Y65864D01*
X264658Y65915D01*
X264779Y65963D01*
X264901Y66008D01*
X265025Y66048D01*
X265149Y66085D01*
X265275Y66118D01*
X265402Y66147D01*
X265529Y66173D01*
X265657Y66194D01*
X265786Y66212D01*
X265915Y66225D01*
X266045Y66235D01*
X266175Y66241D01*
X266305Y66243D01*
X265444Y73129D02*
X270609Y73129D01*
X265444Y73129D02*
X265328Y73127D01*
X265212Y73121D01*
X265096Y73111D01*
X264980Y73098D01*
X264865Y73080D01*
X264751Y73059D01*
X264637Y73033D01*
X264525Y73004D01*
X264413Y72971D01*
X264303Y72934D01*
X264194Y72894D01*
X264086Y72850D01*
X263980Y72802D01*
X263876Y72751D01*
X263773Y72696D01*
X263672Y72638D01*
X263574Y72577D01*
X263477Y72512D01*
X263383Y72444D01*
X263291Y72373D01*
X263201Y72298D01*
X263114Y72221D01*
X263030Y72141D01*
X262949Y72058D01*
X262870Y71972D01*
X262794Y71884D01*
X262721Y71793D01*
X262652Y71700D01*
X262585Y71605D01*
X262522Y71507D01*
X262462Y71408D01*
X262406Y71306D01*
X262353Y71202D01*
X262303Y71097D01*
X262258Y70990D01*
X262215Y70882D01*
X262177Y70772D01*
X262142Y70661D01*
X262111Y70549D01*
X262084Y70436D01*
X262060Y70322D01*
X262041Y70207D01*
X262025Y70092D01*
X262013Y69976D01*
X262005Y69860D01*
X262001Y69744D01*
X262001Y69628D01*
X262005Y69512D01*
X262013Y69396D01*
X262025Y69280D01*
X262041Y69165D01*
X262060Y69050D01*
X262084Y68936D01*
X262111Y68823D01*
X262142Y68711D01*
X262177Y68600D01*
X262215Y68490D01*
X262258Y68382D01*
X262303Y68275D01*
X262353Y68170D01*
X262406Y68066D01*
X262462Y67965D01*
X262522Y67865D01*
X262585Y67767D01*
X262652Y67672D01*
X262721Y67579D01*
X262794Y67488D01*
X262870Y67400D01*
X262949Y67314D01*
X263030Y67231D01*
X263114Y67151D01*
X263201Y67074D01*
X263291Y66999D01*
X263383Y66928D01*
X263477Y66860D01*
X263574Y66795D01*
X263672Y66734D01*
X263773Y66676D01*
X263876Y66621D01*
X263980Y66570D01*
X264086Y66522D01*
X264194Y66478D01*
X264303Y66438D01*
X264413Y66401D01*
X264525Y66368D01*
X264637Y66339D01*
X264751Y66313D01*
X264865Y66292D01*
X264980Y66274D01*
X265096Y66261D01*
X265212Y66251D01*
X265328Y66245D01*
X265444Y66243D01*
X268887Y66243D01*
D11*
X41500Y155000D02*
X10500Y155000D01*
X10500Y137000D01*
X41500Y137000D01*
X41500Y155000D01*
X489000Y19000D02*
X489000Y1000D01*
X231000Y1000D02*
X231000Y19000D01*
D12*
X350000Y1000D02*
X355000Y1000D01*
X365000Y19000D02*
X370000Y19000D01*
D11*
X489000Y19000D02*
X231000Y19000D01*
X231000Y1000D02*
X489000Y1000D01*
D10*
X492000Y10000D02*
X492002Y10089D01*
X492008Y10178D01*
X492018Y10267D01*
X492032Y10355D01*
X492049Y10442D01*
X492071Y10528D01*
X492097Y10614D01*
X492126Y10698D01*
X492159Y10781D01*
X492195Y10862D01*
X492236Y10942D01*
X492279Y11019D01*
X492326Y11095D01*
X492377Y11168D01*
X492430Y11239D01*
X492487Y11308D01*
X492547Y11374D01*
X492610Y11438D01*
X492675Y11498D01*
X492743Y11556D01*
X492814Y11610D01*
X492887Y11661D01*
X492962Y11709D01*
X493039Y11754D01*
X493118Y11795D01*
X493199Y11832D01*
X493281Y11866D01*
X493365Y11897D01*
X493450Y11923D01*
X493536Y11946D01*
X493623Y11964D01*
X493711Y11979D01*
X493800Y11990D01*
X493889Y11997D01*
X493978Y12000D01*
X494067Y11999D01*
X494156Y11994D01*
X494244Y11985D01*
X494333Y11972D01*
X494420Y11955D01*
X494507Y11935D01*
X494593Y11910D01*
X494677Y11882D01*
X494760Y11850D01*
X494842Y11814D01*
X494922Y11775D01*
X495000Y11732D01*
X495076Y11686D01*
X495150Y11636D01*
X495222Y11583D01*
X495291Y11527D01*
X495358Y11468D01*
X495422Y11406D01*
X495483Y11342D01*
X495542Y11274D01*
X495597Y11204D01*
X495649Y11132D01*
X495698Y11057D01*
X495743Y10981D01*
X495785Y10902D01*
X495823Y10822D01*
X495858Y10740D01*
X495889Y10656D01*
X495917Y10571D01*
X495940Y10485D01*
X495960Y10398D01*
X495976Y10311D01*
X495988Y10222D01*
X495996Y10134D01*
X496000Y10045D01*
X496000Y9955D01*
X495996Y9866D01*
X495988Y9778D01*
X495976Y9689D01*
X495960Y9602D01*
X495940Y9515D01*
X495917Y9429D01*
X495889Y9344D01*
X495858Y9260D01*
X495823Y9178D01*
X495785Y9098D01*
X495743Y9019D01*
X495698Y8943D01*
X495649Y8868D01*
X495597Y8796D01*
X495542Y8726D01*
X495483Y8658D01*
X495422Y8594D01*
X495358Y8532D01*
X495291Y8473D01*
X495222Y8417D01*
X495150Y8364D01*
X495076Y8314D01*
X495000Y8268D01*
X494922Y8225D01*
X494842Y8186D01*
X494760Y8150D01*
X494677Y8118D01*
X494593Y8090D01*
X494507Y8065D01*
X494420Y8045D01*
X494333Y8028D01*
X494244Y8015D01*
X494156Y8006D01*
X494067Y8001D01*
X493978Y8000D01*
X493889Y8003D01*
X493800Y8010D01*
X493711Y8021D01*
X493623Y8036D01*
X493536Y8054D01*
X493450Y8077D01*
X493365Y8103D01*
X493281Y8134D01*
X493199Y8168D01*
X493118Y8205D01*
X493039Y8246D01*
X492962Y8291D01*
X492887Y8339D01*
X492814Y8390D01*
X492743Y8444D01*
X492675Y8502D01*
X492610Y8562D01*
X492547Y8626D01*
X492487Y8692D01*
X492430Y8761D01*
X492377Y8832D01*
X492326Y8905D01*
X492279Y8981D01*
X492236Y9058D01*
X492195Y9138D01*
X492159Y9219D01*
X492126Y9302D01*
X492097Y9386D01*
X492071Y9472D01*
X492049Y9558D01*
X492032Y9645D01*
X492018Y9733D01*
X492008Y9822D01*
X492002Y9911D01*
X492000Y10000D01*
D11*
X489000Y321000D02*
X489000Y339000D01*
X231000Y339000D02*
X231000Y321000D01*
D12*
X350000Y321000D02*
X355000Y321000D01*
X365000Y339000D02*
X370000Y339000D01*
D11*
X489000Y339000D02*
X231000Y339000D01*
X231000Y321000D02*
X489000Y321000D01*
D10*
X492000Y330000D02*
X492002Y330089D01*
X492008Y330178D01*
X492018Y330267D01*
X492032Y330355D01*
X492049Y330442D01*
X492071Y330528D01*
X492097Y330614D01*
X492126Y330698D01*
X492159Y330781D01*
X492195Y330862D01*
X492236Y330942D01*
X492279Y331019D01*
X492326Y331095D01*
X492377Y331168D01*
X492430Y331239D01*
X492487Y331308D01*
X492547Y331374D01*
X492610Y331438D01*
X492675Y331498D01*
X492743Y331556D01*
X492814Y331610D01*
X492887Y331661D01*
X492962Y331709D01*
X493039Y331754D01*
X493118Y331795D01*
X493199Y331832D01*
X493281Y331866D01*
X493365Y331897D01*
X493450Y331923D01*
X493536Y331946D01*
X493623Y331964D01*
X493711Y331979D01*
X493800Y331990D01*
X493889Y331997D01*
X493978Y332000D01*
X494067Y331999D01*
X494156Y331994D01*
X494244Y331985D01*
X494333Y331972D01*
X494420Y331955D01*
X494507Y331935D01*
X494593Y331910D01*
X494677Y331882D01*
X494760Y331850D01*
X494842Y331814D01*
X494922Y331775D01*
X495000Y331732D01*
X495076Y331686D01*
X495150Y331636D01*
X495222Y331583D01*
X495291Y331527D01*
X495358Y331468D01*
X495422Y331406D01*
X495483Y331342D01*
X495542Y331274D01*
X495597Y331204D01*
X495649Y331132D01*
X495698Y331057D01*
X495743Y330981D01*
X495785Y330902D01*
X495823Y330822D01*
X495858Y330740D01*
X495889Y330656D01*
X495917Y330571D01*
X495940Y330485D01*
X495960Y330398D01*
X495976Y330311D01*
X495988Y330222D01*
X495996Y330134D01*
X496000Y330045D01*
X496000Y329955D01*
X495996Y329866D01*
X495988Y329778D01*
X495976Y329689D01*
X495960Y329602D01*
X495940Y329515D01*
X495917Y329429D01*
X495889Y329344D01*
X495858Y329260D01*
X495823Y329178D01*
X495785Y329098D01*
X495743Y329019D01*
X495698Y328943D01*
X495649Y328868D01*
X495597Y328796D01*
X495542Y328726D01*
X495483Y328658D01*
X495422Y328594D01*
X495358Y328532D01*
X495291Y328473D01*
X495222Y328417D01*
X495150Y328364D01*
X495076Y328314D01*
X495000Y328268D01*
X494922Y328225D01*
X494842Y328186D01*
X494760Y328150D01*
X494677Y328118D01*
X494593Y328090D01*
X494507Y328065D01*
X494420Y328045D01*
X494333Y328028D01*
X494244Y328015D01*
X494156Y328006D01*
X494067Y328001D01*
X493978Y328000D01*
X493889Y328003D01*
X493800Y328010D01*
X493711Y328021D01*
X493623Y328036D01*
X493536Y328054D01*
X493450Y328077D01*
X493365Y328103D01*
X493281Y328134D01*
X493199Y328168D01*
X493118Y328205D01*
X493039Y328246D01*
X492962Y328291D01*
X492887Y328339D01*
X492814Y328390D01*
X492743Y328444D01*
X492675Y328502D01*
X492610Y328562D01*
X492547Y328626D01*
X492487Y328692D01*
X492430Y328761D01*
X492377Y328832D01*
X492326Y328905D01*
X492279Y328981D01*
X492236Y329058D01*
X492195Y329138D01*
X492159Y329219D01*
X492126Y329302D01*
X492097Y329386D01*
X492071Y329472D01*
X492049Y329558D01*
X492032Y329645D01*
X492018Y329733D01*
X492008Y329822D01*
X492002Y329911D01*
X492000Y330000D01*
D13*
X167960Y29860D03*
D14*
X174500Y32360D02*
X174500Y22500D01*
X184360Y22500D01*
X217500Y22500D02*
X217500Y32360D01*
X217500Y22500D02*
X207640Y22500D01*
X217500Y55640D02*
X217500Y65500D01*
X207640Y65500D01*
X174500Y65500D02*
X174500Y55640D01*
X174500Y65500D02*
X184360Y65500D01*
D10*
X182185Y19869D02*
X182185Y14916D01*
X182183Y14831D01*
X182177Y14745D01*
X182168Y14660D01*
X182154Y14576D01*
X182137Y14492D01*
X182116Y14409D01*
X182092Y14327D01*
X182064Y14247D01*
X182032Y14167D01*
X181996Y14089D01*
X181958Y14013D01*
X181915Y13939D01*
X181870Y13867D01*
X181821Y13796D01*
X181769Y13728D01*
X181715Y13663D01*
X181657Y13600D01*
X181596Y13539D01*
X181533Y13481D01*
X181468Y13427D01*
X181400Y13375D01*
X181329Y13326D01*
X181257Y13281D01*
X181183Y13238D01*
X181107Y13200D01*
X181029Y13164D01*
X180949Y13132D01*
X180869Y13104D01*
X180787Y13080D01*
X180704Y13059D01*
X180620Y13042D01*
X180536Y13028D01*
X180451Y13019D01*
X180365Y13013D01*
X180280Y13011D01*
X180195Y13013D01*
X180109Y13019D01*
X180024Y13028D01*
X179940Y13042D01*
X179856Y13059D01*
X179773Y13080D01*
X179691Y13104D01*
X179611Y13132D01*
X179531Y13164D01*
X179453Y13200D01*
X179377Y13238D01*
X179303Y13281D01*
X179231Y13326D01*
X179160Y13375D01*
X179092Y13427D01*
X179027Y13481D01*
X178964Y13539D01*
X178903Y13600D01*
X178845Y13663D01*
X178791Y13728D01*
X178739Y13796D01*
X178690Y13867D01*
X178645Y13939D01*
X178602Y14013D01*
X178564Y14089D01*
X178528Y14167D01*
X178496Y14247D01*
X178468Y14327D01*
X178444Y14409D01*
X178423Y14492D01*
X178406Y14576D01*
X178392Y14660D01*
X178383Y14745D01*
X178377Y14831D01*
X178375Y14916D01*
X178375Y19869D01*
X173102Y19869D02*
X174626Y14535D01*
X170816Y14535D01*
X171959Y16059D02*
X171959Y13011D01*
D13*
X168960Y281860D03*
D14*
X175500Y284360D02*
X175500Y274500D01*
X185360Y274500D01*
X218500Y274500D02*
X218500Y284360D01*
X218500Y274500D02*
X208640Y274500D01*
X218500Y307640D02*
X218500Y317500D01*
X208640Y317500D01*
X175500Y317500D02*
X175500Y307640D01*
X175500Y317500D02*
X185360Y317500D01*
D10*
X219204Y323116D02*
X219204Y328069D01*
X219204Y323116D02*
X219202Y323031D01*
X219196Y322945D01*
X219187Y322860D01*
X219173Y322776D01*
X219156Y322692D01*
X219135Y322609D01*
X219111Y322527D01*
X219083Y322447D01*
X219051Y322367D01*
X219015Y322289D01*
X218977Y322213D01*
X218934Y322139D01*
X218889Y322067D01*
X218840Y321996D01*
X218788Y321928D01*
X218734Y321863D01*
X218676Y321800D01*
X218615Y321739D01*
X218552Y321681D01*
X218487Y321627D01*
X218419Y321575D01*
X218348Y321526D01*
X218276Y321481D01*
X218202Y321438D01*
X218126Y321400D01*
X218048Y321364D01*
X217968Y321332D01*
X217888Y321304D01*
X217806Y321280D01*
X217723Y321259D01*
X217639Y321242D01*
X217555Y321228D01*
X217470Y321219D01*
X217384Y321213D01*
X217299Y321211D01*
X217214Y321213D01*
X217128Y321219D01*
X217043Y321228D01*
X216959Y321242D01*
X216875Y321259D01*
X216792Y321280D01*
X216710Y321304D01*
X216630Y321332D01*
X216550Y321364D01*
X216472Y321400D01*
X216396Y321438D01*
X216322Y321481D01*
X216250Y321526D01*
X216179Y321575D01*
X216111Y321627D01*
X216046Y321681D01*
X215983Y321739D01*
X215922Y321800D01*
X215864Y321863D01*
X215810Y321928D01*
X215758Y321996D01*
X215709Y322067D01*
X215664Y322139D01*
X215621Y322213D01*
X215583Y322289D01*
X215547Y322367D01*
X215515Y322447D01*
X215487Y322527D01*
X215463Y322609D01*
X215442Y322692D01*
X215425Y322776D01*
X215411Y322860D01*
X215402Y322945D01*
X215396Y323031D01*
X215394Y323116D01*
X215394Y328069D01*
X211645Y321211D02*
X209359Y321211D01*
X209282Y321213D01*
X209205Y321219D01*
X209128Y321229D01*
X209052Y321242D01*
X208977Y321260D01*
X208903Y321281D01*
X208830Y321306D01*
X208758Y321335D01*
X208688Y321367D01*
X208619Y321402D01*
X208553Y321442D01*
X208488Y321484D01*
X208426Y321530D01*
X208366Y321579D01*
X208309Y321630D01*
X208254Y321685D01*
X208203Y321742D01*
X208154Y321802D01*
X208108Y321864D01*
X208066Y321929D01*
X208026Y321995D01*
X207991Y322064D01*
X207959Y322134D01*
X207930Y322206D01*
X207905Y322279D01*
X207884Y322353D01*
X207866Y322428D01*
X207853Y322504D01*
X207843Y322581D01*
X207837Y322658D01*
X207835Y322735D01*
X207835Y323497D01*
X207837Y323574D01*
X207843Y323651D01*
X207853Y323728D01*
X207866Y323804D01*
X207884Y323879D01*
X207905Y323953D01*
X207930Y324026D01*
X207959Y324098D01*
X207991Y324168D01*
X208026Y324237D01*
X208066Y324303D01*
X208108Y324368D01*
X208154Y324430D01*
X208203Y324490D01*
X208254Y324547D01*
X208309Y324602D01*
X208366Y324653D01*
X208426Y324702D01*
X208488Y324748D01*
X208553Y324790D01*
X208619Y324830D01*
X208688Y324865D01*
X208758Y324897D01*
X208830Y324926D01*
X208903Y324951D01*
X208977Y324972D01*
X209052Y324990D01*
X209128Y325003D01*
X209205Y325013D01*
X209282Y325019D01*
X209359Y325021D01*
X211645Y325021D01*
X211645Y328069D01*
X207835Y328069D01*
D11*
X165100Y299967D02*
X140100Y299967D01*
X165100Y299967D02*
X165100Y312967D01*
X140100Y312967D01*
X140100Y299967D01*
D10*
X141000Y299000D02*
X161000Y299000D01*
X141000Y299000D02*
X141000Y289000D01*
X161000Y289000D01*
X161000Y299000D01*
X161000Y49000D02*
X141000Y49000D01*
X161000Y49000D02*
X161000Y59000D01*
X141000Y59000D01*
X141000Y49000D01*
X141000Y62000D02*
X161000Y62000D01*
X161000Y72000D01*
X141000Y72000D01*
X141000Y62000D01*
X167000Y74000D02*
X187000Y74000D01*
X187000Y84000D01*
X167000Y84000D01*
X167000Y74000D01*
D11*
X161100Y33400D02*
X136100Y33400D01*
X136100Y20400D01*
X161100Y20400D01*
X161100Y33400D01*
D10*
X161000Y46000D02*
X141000Y46000D01*
X141000Y36000D01*
X161000Y36000D01*
X161000Y46000D01*
X161000Y265000D02*
X141000Y265000D01*
X161000Y265000D02*
X161000Y275000D01*
X141000Y275000D01*
X141000Y265000D01*
X141000Y277000D02*
X161000Y277000D01*
X161000Y287000D01*
X141000Y287000D01*
X141000Y277000D01*
X141000Y314067D02*
X161000Y314067D01*
X161000Y324067D01*
X141000Y324067D01*
X141000Y314067D01*
X167500Y257000D02*
X187500Y257000D01*
X187500Y267000D01*
X167500Y267000D01*
X167500Y257000D01*
X167500Y245000D02*
X187500Y245000D01*
X187500Y255000D01*
X167500Y255000D01*
X167500Y245000D01*
X517000Y95000D02*
X517000Y75000D01*
X527000Y75000D01*
X527000Y95000D01*
X517000Y95000D01*
X491000Y95000D02*
X491000Y75000D01*
X491000Y95000D02*
X481000Y95000D01*
X481000Y75000D01*
X491000Y75000D01*
X161000Y87500D02*
X141000Y87500D01*
X161000Y87500D02*
X161000Y97500D01*
X141000Y97500D01*
X141000Y87500D01*
X141000Y74700D02*
X161000Y74700D01*
X161000Y84700D01*
X141000Y84700D01*
X141000Y74700D01*
X167000Y96000D02*
X187000Y96000D01*
X167000Y96000D02*
X167000Y86000D01*
X187000Y86000D01*
X187000Y96000D01*
X187000Y108000D02*
X167000Y108000D01*
X167000Y98000D01*
X187000Y98000D01*
X187000Y108000D01*
X235000Y211100D02*
X235000Y231100D01*
X225000Y231100D01*
X225000Y211100D01*
X235000Y211100D01*
X259000Y186000D02*
X259000Y166000D01*
X259000Y186000D02*
X249000Y186000D01*
X249000Y166000D01*
X259000Y166000D01*
X199000Y210000D02*
X199000Y230000D01*
X189000Y230000D01*
X189000Y210000D01*
X199000Y210000D01*
X161000Y208000D02*
X141000Y208000D01*
X141000Y198000D01*
X161000Y198000D01*
X161000Y208000D01*
X161000Y185000D02*
X141000Y185000D01*
X161000Y185000D02*
X161000Y195000D01*
X141000Y195000D01*
X141000Y185000D01*
D11*
X141500Y223500D02*
X166500Y223500D01*
X141500Y223500D02*
X141500Y210500D01*
X166500Y210500D01*
X166500Y223500D01*
D10*
X173000Y197000D02*
X193000Y197000D01*
X173000Y197000D02*
X173000Y187000D01*
X193000Y187000D01*
X193000Y197000D01*
X226800Y188800D02*
X246800Y188800D01*
X246800Y198800D01*
X226800Y198800D01*
X226800Y188800D01*
X187000Y135000D02*
X167000Y135000D01*
X167000Y125000D01*
X187000Y125000D01*
X187000Y135000D01*
X187000Y110000D02*
X167000Y110000D01*
X187000Y110000D02*
X187000Y120000D01*
X167000Y120000D01*
X167000Y110000D01*
X232500Y167000D02*
X232500Y171000D01*
X207500Y171000D02*
X207500Y167000D01*
X203365Y167735D02*
X198793Y174593D01*
X203365Y174593D02*
X198793Y167735D01*
X195669Y173069D02*
X193764Y174593D01*
X193764Y167735D01*
X195669Y167735D02*
X191859Y167735D01*
X203500Y136900D02*
X223500Y136900D01*
X223500Y146900D01*
X203500Y146900D01*
X203500Y136900D01*
X203800Y198800D02*
X223800Y198800D01*
X203800Y198800D02*
X203800Y188800D01*
X223800Y188800D01*
X223800Y198800D01*
X247000Y186000D02*
X247000Y166000D01*
X247000Y186000D02*
X237000Y186000D01*
X237000Y166000D01*
X247000Y166000D01*
D14*
X58014Y258700D02*
X58014Y261986D01*
X58014Y230014D02*
X61300Y230014D01*
X86700Y230014D02*
X89986Y230014D01*
X89986Y261986D02*
X86700Y261986D01*
X58014Y233300D02*
X58014Y230014D01*
X58014Y261986D02*
X61300Y261986D01*
X89986Y261986D02*
X89986Y258700D01*
X89986Y233300D02*
X89986Y230014D01*
X90000Y257000D02*
X90000Y259000D01*
X87000Y262000D02*
X85000Y262000D01*
X63000Y262000D02*
X61000Y262000D01*
X58000Y259000D02*
X58000Y257000D01*
X58000Y235000D02*
X58000Y233000D01*
X61000Y230000D02*
X63000Y230000D01*
X85000Y230000D02*
X87000Y230000D01*
X90000Y233000D02*
X90000Y235000D01*
D10*
X93586Y260500D02*
X93588Y260575D01*
X93594Y260649D01*
X93604Y260723D01*
X93617Y260796D01*
X93635Y260869D01*
X93656Y260940D01*
X93681Y261011D01*
X93710Y261080D01*
X93743Y261147D01*
X93779Y261212D01*
X93818Y261276D01*
X93860Y261337D01*
X93906Y261396D01*
X93955Y261453D01*
X94007Y261506D01*
X94061Y261557D01*
X94118Y261606D01*
X94178Y261650D01*
X94240Y261692D01*
X94304Y261731D01*
X94370Y261766D01*
X94437Y261797D01*
X94507Y261825D01*
X94577Y261849D01*
X94649Y261870D01*
X94722Y261886D01*
X94795Y261899D01*
X94870Y261908D01*
X94944Y261913D01*
X95019Y261914D01*
X95093Y261911D01*
X95168Y261904D01*
X95241Y261893D01*
X95315Y261879D01*
X95387Y261860D01*
X95458Y261838D01*
X95528Y261812D01*
X95597Y261782D01*
X95663Y261749D01*
X95728Y261712D01*
X95791Y261672D01*
X95852Y261628D01*
X95910Y261582D01*
X95966Y261532D01*
X96019Y261480D01*
X96070Y261425D01*
X96117Y261367D01*
X96161Y261307D01*
X96202Y261244D01*
X96240Y261180D01*
X96274Y261114D01*
X96305Y261045D01*
X96332Y260976D01*
X96355Y260905D01*
X96374Y260833D01*
X96390Y260760D01*
X96402Y260686D01*
X96410Y260612D01*
X96414Y260537D01*
X96414Y260463D01*
X96410Y260388D01*
X96402Y260314D01*
X96390Y260240D01*
X96374Y260167D01*
X96355Y260095D01*
X96332Y260024D01*
X96305Y259955D01*
X96274Y259886D01*
X96240Y259820D01*
X96202Y259756D01*
X96161Y259693D01*
X96117Y259633D01*
X96070Y259575D01*
X96019Y259520D01*
X95966Y259468D01*
X95910Y259418D01*
X95852Y259372D01*
X95791Y259328D01*
X95728Y259288D01*
X95663Y259251D01*
X95597Y259218D01*
X95528Y259188D01*
X95458Y259162D01*
X95387Y259140D01*
X95315Y259121D01*
X95241Y259107D01*
X95168Y259096D01*
X95093Y259089D01*
X95019Y259086D01*
X94944Y259087D01*
X94870Y259092D01*
X94795Y259101D01*
X94722Y259114D01*
X94649Y259130D01*
X94577Y259151D01*
X94507Y259175D01*
X94437Y259203D01*
X94370Y259234D01*
X94304Y259269D01*
X94240Y259308D01*
X94178Y259350D01*
X94118Y259394D01*
X94061Y259443D01*
X94007Y259494D01*
X93955Y259547D01*
X93906Y259604D01*
X93860Y259663D01*
X93818Y259724D01*
X93779Y259788D01*
X93743Y259853D01*
X93710Y259920D01*
X93681Y259989D01*
X93656Y260060D01*
X93635Y260131D01*
X93617Y260204D01*
X93604Y260277D01*
X93594Y260351D01*
X93588Y260425D01*
X93586Y260500D01*
X94500Y260500D02*
X94502Y260544D01*
X94508Y260588D01*
X94518Y260631D01*
X94531Y260673D01*
X94548Y260714D01*
X94569Y260753D01*
X94593Y260790D01*
X94620Y260825D01*
X94650Y260857D01*
X94683Y260887D01*
X94719Y260913D01*
X94756Y260937D01*
X94796Y260956D01*
X94837Y260973D01*
X94880Y260985D01*
X94923Y260994D01*
X94967Y260999D01*
X95011Y261000D01*
X95055Y260997D01*
X95099Y260990D01*
X95142Y260979D01*
X95184Y260965D01*
X95224Y260947D01*
X95263Y260925D01*
X95299Y260901D01*
X95333Y260873D01*
X95365Y260842D01*
X95394Y260808D01*
X95420Y260772D01*
X95442Y260734D01*
X95461Y260694D01*
X95476Y260652D01*
X95488Y260610D01*
X95496Y260566D01*
X95500Y260522D01*
X95500Y260478D01*
X95496Y260434D01*
X95488Y260390D01*
X95476Y260348D01*
X95461Y260306D01*
X95442Y260266D01*
X95420Y260228D01*
X95394Y260192D01*
X95365Y260158D01*
X95333Y260127D01*
X95299Y260099D01*
X95263Y260075D01*
X95224Y260053D01*
X95184Y260035D01*
X95142Y260021D01*
X95099Y260010D01*
X95055Y260003D01*
X95011Y260000D01*
X94967Y260001D01*
X94923Y260006D01*
X94880Y260015D01*
X94837Y260027D01*
X94796Y260044D01*
X94756Y260063D01*
X94719Y260087D01*
X94683Y260113D01*
X94650Y260143D01*
X94620Y260175D01*
X94593Y260210D01*
X94569Y260247D01*
X94548Y260286D01*
X94531Y260327D01*
X94518Y260369D01*
X94508Y260412D01*
X94502Y260456D01*
X94500Y260500D01*
X98907Y225902D02*
X98907Y220949D01*
X98905Y220864D01*
X98899Y220778D01*
X98890Y220693D01*
X98876Y220609D01*
X98859Y220525D01*
X98838Y220442D01*
X98814Y220360D01*
X98786Y220280D01*
X98754Y220200D01*
X98718Y220122D01*
X98680Y220046D01*
X98637Y219972D01*
X98592Y219900D01*
X98543Y219829D01*
X98491Y219761D01*
X98437Y219696D01*
X98379Y219633D01*
X98318Y219572D01*
X98255Y219514D01*
X98190Y219460D01*
X98122Y219408D01*
X98051Y219359D01*
X97979Y219314D01*
X97905Y219271D01*
X97829Y219233D01*
X97751Y219197D01*
X97671Y219165D01*
X97591Y219137D01*
X97509Y219113D01*
X97426Y219092D01*
X97342Y219075D01*
X97258Y219061D01*
X97173Y219052D01*
X97087Y219046D01*
X97002Y219044D01*
X96917Y219046D01*
X96831Y219052D01*
X96746Y219061D01*
X96662Y219075D01*
X96578Y219092D01*
X96495Y219113D01*
X96413Y219137D01*
X96333Y219165D01*
X96253Y219197D01*
X96175Y219233D01*
X96099Y219271D01*
X96025Y219314D01*
X95953Y219359D01*
X95882Y219408D01*
X95814Y219460D01*
X95749Y219514D01*
X95686Y219572D01*
X95625Y219633D01*
X95567Y219696D01*
X95513Y219761D01*
X95461Y219829D01*
X95412Y219900D01*
X95367Y219972D01*
X95324Y220046D01*
X95286Y220122D01*
X95250Y220200D01*
X95218Y220280D01*
X95190Y220360D01*
X95166Y220442D01*
X95145Y220525D01*
X95128Y220609D01*
X95114Y220693D01*
X95105Y220778D01*
X95099Y220864D01*
X95097Y220949D01*
X95097Y225902D01*
X91348Y219044D02*
X89443Y219044D01*
X89358Y219046D01*
X89272Y219052D01*
X89187Y219061D01*
X89103Y219075D01*
X89019Y219092D01*
X88936Y219113D01*
X88854Y219137D01*
X88774Y219165D01*
X88694Y219197D01*
X88616Y219233D01*
X88540Y219271D01*
X88466Y219314D01*
X88394Y219359D01*
X88323Y219408D01*
X88255Y219460D01*
X88190Y219514D01*
X88127Y219572D01*
X88066Y219633D01*
X88008Y219696D01*
X87954Y219761D01*
X87902Y219829D01*
X87853Y219900D01*
X87808Y219972D01*
X87765Y220046D01*
X87727Y220122D01*
X87691Y220200D01*
X87659Y220280D01*
X87631Y220360D01*
X87607Y220442D01*
X87586Y220525D01*
X87569Y220609D01*
X87555Y220693D01*
X87546Y220778D01*
X87540Y220864D01*
X87538Y220949D01*
X87540Y221034D01*
X87546Y221120D01*
X87555Y221205D01*
X87569Y221289D01*
X87586Y221373D01*
X87607Y221456D01*
X87631Y221538D01*
X87659Y221618D01*
X87691Y221698D01*
X87727Y221776D01*
X87765Y221852D01*
X87808Y221926D01*
X87853Y221998D01*
X87902Y222069D01*
X87954Y222137D01*
X88008Y222202D01*
X88066Y222265D01*
X88127Y222326D01*
X88190Y222384D01*
X88255Y222438D01*
X88323Y222490D01*
X88394Y222539D01*
X88466Y222584D01*
X88540Y222627D01*
X88616Y222665D01*
X88694Y222701D01*
X88774Y222733D01*
X88854Y222761D01*
X88936Y222785D01*
X89019Y222806D01*
X89103Y222823D01*
X89187Y222837D01*
X89272Y222846D01*
X89358Y222852D01*
X89443Y222854D01*
X89062Y225902D02*
X91348Y225902D01*
X89062Y225902D02*
X88985Y225900D01*
X88908Y225894D01*
X88831Y225884D01*
X88755Y225871D01*
X88680Y225853D01*
X88606Y225832D01*
X88533Y225807D01*
X88461Y225778D01*
X88391Y225746D01*
X88322Y225711D01*
X88256Y225671D01*
X88191Y225629D01*
X88129Y225583D01*
X88069Y225534D01*
X88012Y225483D01*
X87957Y225428D01*
X87906Y225371D01*
X87857Y225311D01*
X87811Y225249D01*
X87769Y225184D01*
X87729Y225118D01*
X87694Y225049D01*
X87662Y224979D01*
X87633Y224907D01*
X87608Y224834D01*
X87587Y224760D01*
X87569Y224685D01*
X87556Y224609D01*
X87546Y224532D01*
X87540Y224455D01*
X87538Y224378D01*
X87540Y224301D01*
X87546Y224224D01*
X87556Y224147D01*
X87569Y224071D01*
X87587Y223996D01*
X87608Y223922D01*
X87633Y223849D01*
X87662Y223777D01*
X87694Y223707D01*
X87729Y223638D01*
X87769Y223572D01*
X87811Y223507D01*
X87857Y223445D01*
X87906Y223385D01*
X87957Y223328D01*
X88012Y223273D01*
X88069Y223222D01*
X88129Y223173D01*
X88191Y223127D01*
X88256Y223085D01*
X88322Y223045D01*
X88391Y223010D01*
X88461Y222978D01*
X88533Y222949D01*
X88606Y222924D01*
X88680Y222903D01*
X88755Y222885D01*
X88831Y222872D01*
X88908Y222862D01*
X88985Y222856D01*
X89062Y222854D01*
X90586Y222854D01*
D11*
X30500Y268500D02*
X30500Y293500D01*
X30500Y268500D02*
X43500Y268500D01*
X43500Y293500D01*
X30500Y293500D01*
X109800Y234600D02*
X134800Y234600D01*
X134800Y247600D01*
X109800Y247600D01*
X109800Y234600D01*
X96000Y272500D02*
X62000Y272500D01*
X96000Y272500D02*
X96000Y295500D01*
X62000Y295500D01*
X62000Y272500D01*
X101500Y312500D02*
X126500Y312500D01*
X101500Y312500D02*
X101500Y299500D01*
X126500Y299500D01*
X126500Y312500D01*
D10*
X95000Y319000D02*
X95000Y299000D01*
X95000Y319000D02*
X85000Y319000D01*
X85000Y299000D01*
X95000Y299000D01*
X83000Y299000D02*
X83000Y319000D01*
X73000Y319000D01*
X73000Y299000D01*
X83000Y299000D01*
X61000Y299000D02*
X61000Y319000D01*
X61000Y299000D02*
X71000Y299000D01*
X71000Y319000D01*
X61000Y319000D01*
D11*
X100800Y250100D02*
X134800Y250100D01*
X134800Y273100D01*
X100800Y273100D01*
X100800Y250100D01*
X140500Y262500D02*
X140500Y237500D01*
X153500Y237500D01*
X153500Y262500D01*
X140500Y262500D01*
D10*
X135000Y276000D02*
X135000Y296000D01*
X125000Y296000D01*
X125000Y276000D01*
X135000Y276000D01*
X122000Y276000D02*
X122000Y296000D01*
X112000Y296000D01*
X112000Y276000D01*
X122000Y276000D01*
X109000Y276000D02*
X109000Y296000D01*
X99000Y296000D01*
X99000Y276000D01*
X109000Y276000D01*
D11*
X44500Y242600D02*
X10500Y242600D01*
X44500Y242600D02*
X44500Y265600D01*
X10500Y265600D01*
X10500Y242600D01*
X27500Y268500D02*
X27500Y293500D01*
X14500Y293500D01*
X14500Y268500D01*
X27500Y268500D01*
D10*
X9000Y240000D02*
X9000Y220000D01*
X19000Y220000D01*
X19000Y240000D01*
X9000Y240000D01*
X22000Y240000D02*
X22000Y220000D01*
X32000Y220000D01*
X32000Y240000D01*
X22000Y240000D01*
X45000Y240000D02*
X45000Y220000D01*
X45000Y240000D02*
X35000Y240000D01*
X35000Y220000D01*
X45000Y220000D01*
X118300Y220400D02*
X138300Y220400D01*
X138300Y230400D01*
X118300Y230400D01*
X118300Y220400D01*
X118300Y208000D02*
X138300Y208000D01*
X138300Y218000D01*
X118300Y218000D01*
X118300Y208000D01*
X465000Y119000D02*
X465000Y99000D01*
X475000Y99000D01*
X475000Y119000D01*
X465000Y119000D01*
X493000Y95000D02*
X493000Y75000D01*
X503000Y75000D01*
X503000Y95000D01*
X493000Y95000D01*
X503000Y125000D02*
X503000Y145000D01*
X493000Y145000D01*
X493000Y125000D01*
X503000Y125000D01*
X515000Y125000D02*
X515000Y145000D01*
X505000Y145000D01*
X505000Y125000D01*
X515000Y125000D01*
X481000Y119000D02*
X481000Y99000D01*
X491000Y99000D01*
X491000Y119000D01*
X481000Y119000D01*
X551000Y125000D02*
X551000Y145000D01*
X541000Y145000D01*
X541000Y125000D01*
X551000Y125000D01*
X527000Y125000D02*
X527000Y145000D01*
X517000Y145000D01*
X517000Y125000D01*
X527000Y125000D01*
X529000Y95000D02*
X529000Y75000D01*
X539000Y75000D01*
X539000Y95000D01*
X529000Y95000D01*
X505000Y95000D02*
X505000Y75000D01*
X515000Y75000D01*
X515000Y95000D01*
X505000Y95000D01*
X539000Y125000D02*
X539000Y145000D01*
X529000Y145000D01*
X529000Y125000D01*
X539000Y125000D01*
D11*
X552500Y97500D02*
X552500Y72500D01*
X552500Y97500D02*
X539500Y97500D01*
X539500Y72500D01*
X552500Y72500D01*
D10*
X479000Y125000D02*
X479000Y145000D01*
X469000Y145000D01*
X469000Y125000D01*
X479000Y125000D01*
D11*
X288500Y262500D02*
X257500Y262500D01*
X288500Y262500D02*
X288500Y280500D01*
X257500Y280500D01*
X257500Y262500D01*
X263500Y247500D02*
X288500Y247500D01*
X288500Y260500D01*
X263500Y260500D01*
X263500Y247500D01*
D10*
X268615Y235000D02*
X288615Y235000D01*
X288615Y245000D01*
X268615Y245000D01*
X268615Y235000D01*
X268615Y211000D02*
X288615Y211000D01*
X288615Y221000D01*
X268615Y221000D01*
X268615Y211000D01*
X268615Y223000D02*
X288615Y223000D01*
X288615Y233000D01*
X268615Y233000D01*
X268615Y223000D01*
X479000Y167000D02*
X479000Y147000D01*
X479000Y167000D02*
X469000Y167000D01*
X469000Y147000D01*
X479000Y147000D01*
X491000Y147185D02*
X491000Y167185D01*
X481000Y167185D01*
X481000Y147185D01*
X491000Y147185D01*
D11*
X445500Y261730D02*
X445500Y286730D01*
X445500Y261730D02*
X458500Y261730D01*
X458500Y286730D01*
X445500Y286730D01*
X461500Y286730D02*
X461500Y261730D01*
X474500Y261730D01*
X474500Y286730D01*
X461500Y286730D01*
D10*
X421000Y281615D02*
X421000Y261615D01*
X431000Y261615D01*
X431000Y281615D01*
X421000Y281615D01*
X397000Y281615D02*
X397000Y261615D01*
X407000Y261615D01*
X407000Y281615D01*
X397000Y281615D01*
X409000Y281615D02*
X409000Y261615D01*
X419000Y261615D01*
X419000Y281615D01*
X409000Y281615D01*
X433000Y281615D02*
X433000Y261615D01*
X443000Y261615D01*
X443000Y281615D01*
X433000Y281615D01*
X373000Y281615D02*
X373000Y261615D01*
X383000Y261615D01*
X383000Y281615D01*
X373000Y281615D01*
X385000Y281615D02*
X385000Y261615D01*
X395000Y261615D01*
X395000Y281615D01*
X385000Y281615D01*
D11*
X537500Y59885D02*
X537500Y34885D01*
X537500Y59885D02*
X524500Y59885D01*
X524500Y34885D01*
X537500Y34885D01*
X517500Y34885D02*
X517500Y59885D01*
X504500Y59885D01*
X504500Y34885D01*
X517500Y34885D01*
D10*
X465000Y53000D02*
X465000Y73000D01*
X455000Y73000D01*
X455000Y53000D01*
X465000Y53000D01*
X452000Y53000D02*
X452000Y73000D01*
X442000Y73000D01*
X442000Y53000D01*
X452000Y53000D01*
X478000Y53000D02*
X478000Y73000D01*
X468000Y73000D01*
X468000Y53000D01*
X478000Y53000D01*
X491000Y53000D02*
X491000Y73000D01*
X481000Y73000D01*
X481000Y53000D01*
X491000Y53000D01*
X426000Y53000D02*
X426000Y73000D01*
X416000Y73000D01*
X416000Y53000D01*
X426000Y53000D01*
X439000Y53000D02*
X439000Y73000D01*
X429000Y73000D01*
X429000Y53000D01*
X439000Y53000D01*
X289815Y130800D02*
X269815Y130800D01*
X289815Y130800D02*
X289815Y140800D01*
X269815Y140800D01*
X269815Y130800D01*
X269815Y118900D02*
X289815Y118900D01*
X289815Y128900D01*
X269815Y128900D01*
X269815Y118900D01*
X93000Y175000D02*
X73000Y175000D01*
X93000Y175000D02*
X93000Y185000D01*
X73000Y185000D01*
X73000Y175000D01*
X73000Y172000D02*
X93000Y172000D01*
X73000Y172000D02*
X73000Y162000D01*
X93000Y162000D01*
X93000Y172000D01*
X269615Y142800D02*
X289615Y142800D01*
X289615Y152800D01*
X269615Y152800D01*
X269615Y142800D01*
X378000Y166000D02*
X398000Y166000D01*
X378000Y166000D02*
X378000Y156000D01*
X398000Y156000D01*
X398000Y166000D01*
X289500Y164700D02*
X269500Y164700D01*
X269500Y154700D01*
X289500Y154700D01*
X289500Y164700D01*
X274700Y172600D02*
X274700Y192600D01*
X274700Y172600D02*
X284700Y172600D01*
X284700Y192600D01*
X274700Y192600D01*
D15*
X88000Y60000D02*
X88000Y51750D01*
X85000Y51750D01*
X88000Y86000D02*
X88000Y94250D01*
X85000Y94250D01*
X49000Y51750D02*
X46000Y51750D01*
X46000Y94250D01*
X49000Y94250D01*
X95586Y57000D02*
X95588Y57075D01*
X95594Y57149D01*
X95604Y57223D01*
X95617Y57296D01*
X95635Y57369D01*
X95656Y57440D01*
X95681Y57511D01*
X95710Y57580D01*
X95743Y57647D01*
X95779Y57712D01*
X95818Y57776D01*
X95860Y57837D01*
X95906Y57896D01*
X95955Y57953D01*
X96007Y58006D01*
X96061Y58057D01*
X96118Y58106D01*
X96178Y58150D01*
X96240Y58192D01*
X96304Y58231D01*
X96370Y58266D01*
X96437Y58297D01*
X96507Y58325D01*
X96577Y58349D01*
X96649Y58370D01*
X96722Y58386D01*
X96795Y58399D01*
X96870Y58408D01*
X96944Y58413D01*
X97019Y58414D01*
X97093Y58411D01*
X97168Y58404D01*
X97241Y58393D01*
X97315Y58379D01*
X97387Y58360D01*
X97458Y58338D01*
X97528Y58312D01*
X97597Y58282D01*
X97663Y58249D01*
X97728Y58212D01*
X97791Y58172D01*
X97852Y58128D01*
X97910Y58082D01*
X97966Y58032D01*
X98019Y57980D01*
X98070Y57925D01*
X98117Y57867D01*
X98161Y57807D01*
X98202Y57744D01*
X98240Y57680D01*
X98274Y57614D01*
X98305Y57545D01*
X98332Y57476D01*
X98355Y57405D01*
X98374Y57333D01*
X98390Y57260D01*
X98402Y57186D01*
X98410Y57112D01*
X98414Y57037D01*
X98414Y56963D01*
X98410Y56888D01*
X98402Y56814D01*
X98390Y56740D01*
X98374Y56667D01*
X98355Y56595D01*
X98332Y56524D01*
X98305Y56455D01*
X98274Y56386D01*
X98240Y56320D01*
X98202Y56256D01*
X98161Y56193D01*
X98117Y56133D01*
X98070Y56075D01*
X98019Y56020D01*
X97966Y55968D01*
X97910Y55918D01*
X97852Y55872D01*
X97791Y55828D01*
X97728Y55788D01*
X97663Y55751D01*
X97597Y55718D01*
X97528Y55688D01*
X97458Y55662D01*
X97387Y55640D01*
X97315Y55621D01*
X97241Y55607D01*
X97168Y55596D01*
X97093Y55589D01*
X97019Y55586D01*
X96944Y55587D01*
X96870Y55592D01*
X96795Y55601D01*
X96722Y55614D01*
X96649Y55630D01*
X96577Y55651D01*
X96507Y55675D01*
X96437Y55703D01*
X96370Y55734D01*
X96304Y55769D01*
X96240Y55808D01*
X96178Y55850D01*
X96118Y55894D01*
X96061Y55943D01*
X96007Y55994D01*
X95955Y56047D01*
X95906Y56104D01*
X95860Y56163D01*
X95818Y56224D01*
X95779Y56288D01*
X95743Y56353D01*
X95710Y56420D01*
X95681Y56489D01*
X95656Y56560D01*
X95635Y56631D01*
X95617Y56704D01*
X95604Y56777D01*
X95594Y56851D01*
X95588Y56925D01*
X95586Y57000D01*
D16*
X102271Y49476D02*
X102271Y40385D01*
X102273Y40286D01*
X102279Y40186D01*
X102288Y40087D01*
X102301Y39989D01*
X102319Y39891D01*
X102339Y39793D01*
X102364Y39697D01*
X102392Y39601D01*
X102424Y39507D01*
X102459Y39414D01*
X102498Y39323D01*
X102541Y39233D01*
X102587Y39144D01*
X102636Y39058D01*
X102688Y38973D01*
X102744Y38891D01*
X102803Y38811D01*
X102864Y38733D01*
X102929Y38657D01*
X102997Y38584D01*
X103067Y38514D01*
X103140Y38446D01*
X103216Y38381D01*
X103294Y38320D01*
X103374Y38261D01*
X103456Y38205D01*
X103541Y38153D01*
X103627Y38104D01*
X103716Y38058D01*
X103806Y38015D01*
X103897Y37976D01*
X103990Y37941D01*
X104084Y37909D01*
X104180Y37881D01*
X104276Y37856D01*
X104374Y37836D01*
X104472Y37818D01*
X104570Y37805D01*
X104669Y37796D01*
X104769Y37790D01*
X104868Y37788D01*
X106167Y37788D01*
X96996Y37788D02*
X93749Y37788D01*
X93749Y37787D02*
X93637Y37789D01*
X93525Y37795D01*
X93413Y37804D01*
X93302Y37818D01*
X93191Y37835D01*
X93081Y37856D01*
X92972Y37881D01*
X92864Y37910D01*
X92756Y37942D01*
X92650Y37979D01*
X92545Y38018D01*
X92442Y38062D01*
X92340Y38109D01*
X92240Y38159D01*
X92142Y38213D01*
X92045Y38270D01*
X91951Y38330D01*
X91859Y38394D01*
X91769Y38461D01*
X91681Y38531D01*
X91596Y38604D01*
X91513Y38679D01*
X91433Y38758D01*
X91356Y38839D01*
X91282Y38923D01*
X91210Y39010D01*
X91142Y39098D01*
X91077Y39189D01*
X91015Y39283D01*
X90956Y39378D01*
X90900Y39476D01*
X90848Y39575D01*
X90800Y39676D01*
X90755Y39778D01*
X90713Y39883D01*
X90675Y39988D01*
X90641Y40095D01*
X90610Y40203D01*
X90583Y40311D01*
X90560Y40421D01*
X90541Y40532D01*
X90526Y40643D01*
X90514Y40754D01*
X90506Y40866D01*
X90502Y40978D01*
X90502Y41090D01*
X90506Y41202D01*
X90514Y41314D01*
X90526Y41425D01*
X90541Y41536D01*
X90560Y41647D01*
X90583Y41757D01*
X90610Y41865D01*
X90641Y41973D01*
X90675Y42080D01*
X90713Y42185D01*
X90755Y42290D01*
X90800Y42392D01*
X90848Y42493D01*
X90900Y42592D01*
X90956Y42690D01*
X91015Y42785D01*
X91077Y42879D01*
X91142Y42970D01*
X91210Y43058D01*
X91282Y43145D01*
X91356Y43229D01*
X91433Y43310D01*
X91513Y43389D01*
X91596Y43464D01*
X91681Y43537D01*
X91769Y43607D01*
X91859Y43674D01*
X91951Y43738D01*
X92045Y43798D01*
X92142Y43855D01*
X92240Y43909D01*
X92340Y43959D01*
X92442Y44006D01*
X92545Y44050D01*
X92650Y44089D01*
X92756Y44126D01*
X92864Y44158D01*
X92972Y44187D01*
X93081Y44212D01*
X93191Y44233D01*
X93302Y44250D01*
X93413Y44264D01*
X93525Y44273D01*
X93637Y44279D01*
X93749Y44281D01*
X93100Y49476D02*
X96996Y49476D01*
X93100Y49476D02*
X92999Y49474D01*
X92899Y49468D01*
X92799Y49458D01*
X92699Y49445D01*
X92600Y49427D01*
X92501Y49406D01*
X92404Y49381D01*
X92307Y49352D01*
X92212Y49319D01*
X92118Y49283D01*
X92025Y49243D01*
X91934Y49200D01*
X91845Y49153D01*
X91758Y49102D01*
X91673Y49049D01*
X91590Y48992D01*
X91509Y48932D01*
X91431Y48868D01*
X91355Y48802D01*
X91282Y48733D01*
X91211Y48661D01*
X91143Y48587D01*
X91079Y48509D01*
X91017Y48430D01*
X90958Y48348D01*
X90903Y48264D01*
X90851Y48178D01*
X90802Y48089D01*
X90757Y47999D01*
X90715Y47908D01*
X90677Y47814D01*
X90643Y47720D01*
X90612Y47624D01*
X90585Y47527D01*
X90562Y47429D01*
X90542Y47330D01*
X90527Y47230D01*
X90515Y47130D01*
X90507Y47030D01*
X90503Y46929D01*
X90503Y46829D01*
X90507Y46728D01*
X90515Y46628D01*
X90527Y46528D01*
X90542Y46428D01*
X90562Y46329D01*
X90585Y46231D01*
X90612Y46134D01*
X90643Y46038D01*
X90677Y45944D01*
X90715Y45850D01*
X90757Y45759D01*
X90802Y45669D01*
X90851Y45581D01*
X90903Y45494D01*
X90958Y45410D01*
X91017Y45328D01*
X91079Y45249D01*
X91143Y45171D01*
X91211Y45097D01*
X91282Y45025D01*
X91355Y44956D01*
X91431Y44890D01*
X91509Y44826D01*
X91590Y44766D01*
X91673Y44709D01*
X91758Y44656D01*
X91845Y44605D01*
X91934Y44558D01*
X92025Y44515D01*
X92118Y44475D01*
X92212Y44439D01*
X92307Y44406D01*
X92404Y44377D01*
X92501Y44352D01*
X92600Y44331D01*
X92699Y44313D01*
X92799Y44300D01*
X92899Y44290D01*
X92999Y44284D01*
X93100Y44282D01*
X93100Y44281D02*
X95697Y44281D01*
D10*
X115000Y62000D02*
X135000Y62000D01*
X135000Y72000D01*
X115000Y72000D01*
X115000Y62000D01*
M02*
