G04 EAGLE Gerber RS-274X export*
G75*
%MOMM*%
%FSLAX34Y34*%
%LPD*%
%INSilkscreen Top*%
%IPPOS*%
%AMOC8*
5,1,8,0,0,1.08239X$1,22.5*%
G01*
%ADD10C,0.127000*%
%ADD11R,1.800000X1.800000*%
%ADD12C,0.200000*%
%ADD13C,0.203200*%
%ADD14C,0.120000*%
%ADD15C,0.100000*%
%ADD16C,0.150000*%
%ADD17C,0.076200*%
%ADD18C,0.500000*%
%ADD19C,0.152400*%
%ADD20C,0.177800*%
%ADD21C,0.101600*%


D10*
X142519Y323635D02*
X142519Y330493D01*
X144805Y326683D01*
X147091Y330493D01*
X147091Y323635D01*
X152440Y323635D02*
X153964Y323635D01*
X152440Y323635D02*
X152363Y323637D01*
X152286Y323643D01*
X152209Y323653D01*
X152133Y323666D01*
X152058Y323684D01*
X151984Y323705D01*
X151911Y323730D01*
X151839Y323759D01*
X151769Y323791D01*
X151700Y323826D01*
X151634Y323866D01*
X151569Y323908D01*
X151507Y323954D01*
X151447Y324003D01*
X151390Y324054D01*
X151335Y324109D01*
X151284Y324166D01*
X151235Y324226D01*
X151189Y324288D01*
X151147Y324353D01*
X151107Y324419D01*
X151072Y324488D01*
X151040Y324558D01*
X151011Y324630D01*
X150986Y324703D01*
X150965Y324777D01*
X150947Y324852D01*
X150934Y324928D01*
X150924Y325005D01*
X150918Y325082D01*
X150916Y325159D01*
X150916Y328969D01*
X150918Y329046D01*
X150924Y329123D01*
X150934Y329200D01*
X150947Y329276D01*
X150965Y329351D01*
X150986Y329425D01*
X151011Y329498D01*
X151040Y329570D01*
X151072Y329640D01*
X151107Y329709D01*
X151147Y329775D01*
X151189Y329840D01*
X151235Y329902D01*
X151284Y329962D01*
X151335Y330019D01*
X151390Y330074D01*
X151447Y330125D01*
X151507Y330174D01*
X151569Y330220D01*
X151634Y330262D01*
X151700Y330302D01*
X151769Y330337D01*
X151839Y330369D01*
X151911Y330398D01*
X151984Y330423D01*
X152058Y330444D01*
X152133Y330462D01*
X152209Y330475D01*
X152286Y330485D01*
X152363Y330491D01*
X152440Y330493D01*
X153964Y330493D01*
X157287Y330493D02*
X157287Y325540D01*
X157289Y325455D01*
X157295Y325369D01*
X157304Y325284D01*
X157318Y325200D01*
X157335Y325116D01*
X157356Y325033D01*
X157380Y324951D01*
X157408Y324871D01*
X157440Y324791D01*
X157476Y324713D01*
X157514Y324637D01*
X157557Y324563D01*
X157602Y324491D01*
X157651Y324420D01*
X157703Y324352D01*
X157757Y324287D01*
X157815Y324224D01*
X157876Y324163D01*
X157939Y324105D01*
X158004Y324051D01*
X158072Y323999D01*
X158143Y323950D01*
X158215Y323905D01*
X158289Y323862D01*
X158365Y323824D01*
X158443Y323788D01*
X158523Y323756D01*
X158603Y323728D01*
X158685Y323704D01*
X158768Y323683D01*
X158852Y323666D01*
X158936Y323652D01*
X159021Y323643D01*
X159107Y323637D01*
X159192Y323635D01*
X159277Y323637D01*
X159363Y323643D01*
X159448Y323652D01*
X159532Y323666D01*
X159616Y323683D01*
X159699Y323704D01*
X159781Y323728D01*
X159861Y323756D01*
X159941Y323788D01*
X160019Y323824D01*
X160095Y323862D01*
X160169Y323905D01*
X160241Y323950D01*
X160312Y323999D01*
X160380Y324051D01*
X160445Y324105D01*
X160508Y324163D01*
X160569Y324224D01*
X160627Y324287D01*
X160681Y324352D01*
X160733Y324420D01*
X160782Y324491D01*
X160827Y324563D01*
X160870Y324637D01*
X160908Y324713D01*
X160944Y324791D01*
X160976Y324871D01*
X161004Y324951D01*
X161028Y325033D01*
X161049Y325116D01*
X161066Y325200D01*
X161080Y325284D01*
X161089Y325369D01*
X161095Y325455D01*
X161097Y325540D01*
X161097Y330493D01*
X169012Y330493D02*
X169012Y323635D01*
X172060Y323635D01*
X175352Y323635D02*
X178400Y323635D01*
X175352Y323635D02*
X175352Y330493D01*
X178400Y330493D01*
X177638Y327445D02*
X175352Y327445D01*
X181671Y330493D02*
X181671Y323635D01*
X181671Y330493D02*
X183576Y330493D01*
X183661Y330491D01*
X183747Y330485D01*
X183832Y330476D01*
X183916Y330462D01*
X184000Y330445D01*
X184083Y330424D01*
X184165Y330400D01*
X184245Y330372D01*
X184325Y330340D01*
X184403Y330304D01*
X184479Y330266D01*
X184553Y330223D01*
X184625Y330178D01*
X184696Y330129D01*
X184764Y330077D01*
X184829Y330023D01*
X184892Y329965D01*
X184953Y329904D01*
X185011Y329841D01*
X185065Y329776D01*
X185117Y329708D01*
X185166Y329637D01*
X185211Y329565D01*
X185254Y329491D01*
X185292Y329415D01*
X185328Y329337D01*
X185360Y329257D01*
X185388Y329177D01*
X185412Y329095D01*
X185433Y329012D01*
X185450Y328928D01*
X185464Y328844D01*
X185473Y328759D01*
X185479Y328673D01*
X185481Y328588D01*
X185481Y325540D01*
X185479Y325455D01*
X185473Y325369D01*
X185464Y325284D01*
X185450Y325200D01*
X185433Y325116D01*
X185412Y325033D01*
X185388Y324951D01*
X185360Y324871D01*
X185328Y324791D01*
X185292Y324713D01*
X185254Y324637D01*
X185211Y324563D01*
X185166Y324491D01*
X185117Y324420D01*
X185065Y324352D01*
X185011Y324287D01*
X184953Y324224D01*
X184892Y324163D01*
X184829Y324105D01*
X184764Y324051D01*
X184696Y323999D01*
X184625Y323950D01*
X184553Y323905D01*
X184479Y323862D01*
X184403Y323824D01*
X184325Y323788D01*
X184245Y323756D01*
X184165Y323728D01*
X184083Y323704D01*
X184000Y323683D01*
X183916Y323666D01*
X183832Y323652D01*
X183747Y323643D01*
X183661Y323637D01*
X183576Y323635D01*
X181671Y323635D01*
X101865Y12135D02*
X95007Y12135D01*
X98817Y14421D01*
X95007Y16707D01*
X101865Y16707D01*
X101865Y22055D02*
X101865Y23579D01*
X101865Y22055D02*
X101863Y21978D01*
X101857Y21901D01*
X101847Y21824D01*
X101834Y21748D01*
X101816Y21673D01*
X101795Y21599D01*
X101770Y21526D01*
X101741Y21454D01*
X101709Y21384D01*
X101674Y21315D01*
X101634Y21249D01*
X101592Y21184D01*
X101546Y21122D01*
X101497Y21062D01*
X101446Y21005D01*
X101391Y20950D01*
X101334Y20899D01*
X101274Y20850D01*
X101212Y20804D01*
X101147Y20762D01*
X101081Y20722D01*
X101012Y20687D01*
X100942Y20655D01*
X100870Y20626D01*
X100797Y20601D01*
X100723Y20580D01*
X100648Y20562D01*
X100572Y20549D01*
X100495Y20539D01*
X100418Y20533D01*
X100341Y20531D01*
X96531Y20531D01*
X96454Y20533D01*
X96377Y20539D01*
X96300Y20549D01*
X96224Y20562D01*
X96149Y20580D01*
X96075Y20601D01*
X96002Y20626D01*
X95930Y20655D01*
X95860Y20687D01*
X95791Y20722D01*
X95725Y20762D01*
X95660Y20804D01*
X95598Y20850D01*
X95538Y20899D01*
X95481Y20950D01*
X95426Y21005D01*
X95375Y21062D01*
X95326Y21122D01*
X95280Y21184D01*
X95238Y21249D01*
X95198Y21315D01*
X95163Y21384D01*
X95131Y21454D01*
X95102Y21526D01*
X95077Y21599D01*
X95056Y21673D01*
X95038Y21748D01*
X95025Y21824D01*
X95015Y21901D01*
X95009Y21978D01*
X95007Y22055D01*
X95007Y23579D01*
X95007Y26903D02*
X99960Y26903D01*
X100045Y26905D01*
X100131Y26911D01*
X100216Y26920D01*
X100300Y26934D01*
X100384Y26951D01*
X100467Y26972D01*
X100549Y26996D01*
X100629Y27024D01*
X100709Y27056D01*
X100787Y27092D01*
X100863Y27130D01*
X100937Y27173D01*
X101009Y27218D01*
X101080Y27267D01*
X101148Y27319D01*
X101213Y27373D01*
X101276Y27431D01*
X101337Y27492D01*
X101395Y27555D01*
X101449Y27620D01*
X101501Y27688D01*
X101550Y27759D01*
X101595Y27831D01*
X101638Y27905D01*
X101676Y27981D01*
X101712Y28059D01*
X101744Y28139D01*
X101772Y28219D01*
X101796Y28301D01*
X101817Y28384D01*
X101834Y28468D01*
X101848Y28552D01*
X101857Y28637D01*
X101863Y28723D01*
X101865Y28808D01*
X101863Y28893D01*
X101857Y28979D01*
X101848Y29064D01*
X101834Y29148D01*
X101817Y29232D01*
X101796Y29315D01*
X101772Y29397D01*
X101744Y29477D01*
X101712Y29557D01*
X101676Y29635D01*
X101638Y29711D01*
X101595Y29785D01*
X101550Y29857D01*
X101501Y29928D01*
X101449Y29996D01*
X101395Y30061D01*
X101337Y30124D01*
X101276Y30185D01*
X101213Y30243D01*
X101148Y30297D01*
X101080Y30349D01*
X101009Y30398D01*
X100937Y30443D01*
X100863Y30486D01*
X100787Y30524D01*
X100709Y30560D01*
X100629Y30592D01*
X100549Y30620D01*
X100467Y30644D01*
X100384Y30665D01*
X100300Y30682D01*
X100216Y30696D01*
X100131Y30705D01*
X100045Y30711D01*
X99960Y30713D01*
X95007Y30713D01*
X95007Y38676D02*
X101865Y38676D01*
X95007Y38676D02*
X95007Y40581D01*
X95009Y40666D01*
X95015Y40752D01*
X95024Y40837D01*
X95038Y40921D01*
X95055Y41005D01*
X95076Y41088D01*
X95100Y41170D01*
X95128Y41250D01*
X95160Y41330D01*
X95196Y41408D01*
X95234Y41484D01*
X95277Y41558D01*
X95322Y41630D01*
X95371Y41701D01*
X95423Y41769D01*
X95477Y41834D01*
X95535Y41897D01*
X95596Y41958D01*
X95659Y42016D01*
X95724Y42070D01*
X95792Y42122D01*
X95863Y42171D01*
X95935Y42216D01*
X96009Y42259D01*
X96085Y42297D01*
X96163Y42333D01*
X96243Y42365D01*
X96323Y42393D01*
X96405Y42417D01*
X96488Y42438D01*
X96572Y42455D01*
X96656Y42469D01*
X96741Y42478D01*
X96827Y42484D01*
X96912Y42486D01*
X96997Y42484D01*
X97083Y42478D01*
X97168Y42469D01*
X97252Y42455D01*
X97336Y42438D01*
X97419Y42417D01*
X97501Y42393D01*
X97581Y42365D01*
X97661Y42333D01*
X97739Y42297D01*
X97815Y42259D01*
X97889Y42216D01*
X97961Y42171D01*
X98032Y42122D01*
X98100Y42070D01*
X98165Y42016D01*
X98228Y41958D01*
X98289Y41897D01*
X98347Y41834D01*
X98401Y41769D01*
X98453Y41701D01*
X98502Y41630D01*
X98547Y41558D01*
X98590Y41484D01*
X98628Y41408D01*
X98664Y41330D01*
X98696Y41250D01*
X98724Y41170D01*
X98748Y41088D01*
X98769Y41005D01*
X98786Y40921D01*
X98800Y40837D01*
X98809Y40752D01*
X98815Y40666D01*
X98817Y40581D01*
X98817Y38676D01*
X98817Y40962D02*
X101865Y42486D01*
X101865Y47964D02*
X101863Y48041D01*
X101857Y48118D01*
X101847Y48195D01*
X101834Y48271D01*
X101816Y48346D01*
X101795Y48420D01*
X101770Y48493D01*
X101741Y48565D01*
X101709Y48635D01*
X101674Y48704D01*
X101634Y48770D01*
X101592Y48835D01*
X101546Y48897D01*
X101497Y48957D01*
X101446Y49014D01*
X101391Y49069D01*
X101334Y49120D01*
X101274Y49169D01*
X101212Y49215D01*
X101147Y49257D01*
X101081Y49297D01*
X101012Y49332D01*
X100942Y49364D01*
X100870Y49393D01*
X100797Y49418D01*
X100723Y49439D01*
X100648Y49457D01*
X100572Y49470D01*
X100495Y49480D01*
X100418Y49486D01*
X100341Y49488D01*
X101865Y47964D02*
X101863Y47854D01*
X101857Y47743D01*
X101848Y47633D01*
X101835Y47523D01*
X101818Y47414D01*
X101797Y47306D01*
X101773Y47198D01*
X101744Y47091D01*
X101713Y46985D01*
X101677Y46881D01*
X101638Y46777D01*
X101596Y46675D01*
X101550Y46575D01*
X101500Y46476D01*
X101448Y46379D01*
X101391Y46283D01*
X101332Y46190D01*
X101270Y46099D01*
X101204Y46010D01*
X101136Y45923D01*
X101064Y45839D01*
X100990Y45757D01*
X100913Y45678D01*
X96531Y45869D02*
X96454Y45871D01*
X96377Y45877D01*
X96300Y45887D01*
X96224Y45900D01*
X96149Y45918D01*
X96075Y45939D01*
X96002Y45964D01*
X95930Y45993D01*
X95860Y46025D01*
X95791Y46060D01*
X95725Y46100D01*
X95660Y46142D01*
X95598Y46188D01*
X95538Y46237D01*
X95481Y46288D01*
X95426Y46343D01*
X95375Y46400D01*
X95326Y46460D01*
X95280Y46522D01*
X95238Y46587D01*
X95198Y46653D01*
X95163Y46722D01*
X95131Y46792D01*
X95102Y46864D01*
X95077Y46937D01*
X95056Y47011D01*
X95038Y47086D01*
X95025Y47162D01*
X95015Y47239D01*
X95009Y47316D01*
X95007Y47393D01*
X95009Y47495D01*
X95014Y47597D01*
X95023Y47699D01*
X95036Y47800D01*
X95053Y47901D01*
X95072Y48001D01*
X95096Y48101D01*
X95123Y48199D01*
X95154Y48297D01*
X95188Y48393D01*
X95225Y48488D01*
X95266Y48582D01*
X95310Y48674D01*
X95358Y48764D01*
X95408Y48853D01*
X95462Y48940D01*
X95519Y49025D01*
X95579Y49108D01*
X97865Y46630D02*
X97824Y46565D01*
X97781Y46502D01*
X97734Y46442D01*
X97684Y46383D01*
X97632Y46328D01*
X97577Y46275D01*
X97519Y46224D01*
X97459Y46177D01*
X97396Y46133D01*
X97332Y46091D01*
X97266Y46053D01*
X97197Y46019D01*
X97127Y45988D01*
X97056Y45960D01*
X96984Y45936D01*
X96910Y45915D01*
X96835Y45898D01*
X96760Y45885D01*
X96684Y45876D01*
X96608Y45870D01*
X96531Y45868D01*
X99007Y48726D02*
X99048Y48791D01*
X99091Y48854D01*
X99138Y48914D01*
X99188Y48973D01*
X99240Y49028D01*
X99295Y49081D01*
X99353Y49132D01*
X99413Y49179D01*
X99476Y49223D01*
X99540Y49265D01*
X99606Y49303D01*
X99675Y49337D01*
X99745Y49368D01*
X99816Y49396D01*
X99888Y49420D01*
X99962Y49441D01*
X100037Y49458D01*
X100112Y49471D01*
X100188Y49480D01*
X100264Y49486D01*
X100341Y49488D01*
X99008Y48726D02*
X97865Y46631D01*
X95007Y54167D02*
X101865Y54167D01*
X95007Y52262D02*
X95007Y56072D01*
X145407Y12335D02*
X152265Y12335D01*
X145407Y12335D02*
X145407Y15383D01*
X148455Y15383D02*
X148455Y12335D01*
X145407Y18814D02*
X152265Y18814D01*
X145407Y18814D02*
X145407Y20719D01*
X145409Y20804D01*
X145415Y20890D01*
X145424Y20975D01*
X145438Y21059D01*
X145455Y21143D01*
X145476Y21226D01*
X145500Y21308D01*
X145528Y21388D01*
X145560Y21468D01*
X145596Y21546D01*
X145634Y21622D01*
X145677Y21696D01*
X145722Y21768D01*
X145771Y21839D01*
X145823Y21907D01*
X145877Y21972D01*
X145935Y22035D01*
X145996Y22096D01*
X146059Y22154D01*
X146124Y22208D01*
X146192Y22260D01*
X146263Y22309D01*
X146335Y22354D01*
X146409Y22397D01*
X146485Y22435D01*
X146563Y22471D01*
X146643Y22503D01*
X146723Y22531D01*
X146805Y22555D01*
X146888Y22576D01*
X146972Y22593D01*
X147056Y22607D01*
X147141Y22616D01*
X147227Y22622D01*
X147312Y22624D01*
X147397Y22622D01*
X147483Y22616D01*
X147568Y22607D01*
X147652Y22593D01*
X147736Y22576D01*
X147819Y22555D01*
X147901Y22531D01*
X147981Y22503D01*
X148061Y22471D01*
X148139Y22435D01*
X148215Y22397D01*
X148289Y22354D01*
X148361Y22309D01*
X148432Y22260D01*
X148500Y22208D01*
X148565Y22154D01*
X148628Y22096D01*
X148689Y22035D01*
X148747Y21972D01*
X148801Y21907D01*
X148853Y21839D01*
X148902Y21768D01*
X148947Y21696D01*
X148990Y21622D01*
X149028Y21546D01*
X149064Y21468D01*
X149096Y21388D01*
X149124Y21308D01*
X149148Y21226D01*
X149169Y21143D01*
X149186Y21059D01*
X149200Y20975D01*
X149209Y20890D01*
X149215Y20804D01*
X149217Y20719D01*
X149217Y18814D01*
X148455Y28636D02*
X148455Y29779D01*
X152265Y29779D01*
X152265Y27493D01*
X152263Y27416D01*
X152257Y27339D01*
X152247Y27262D01*
X152234Y27186D01*
X152216Y27111D01*
X152195Y27037D01*
X152170Y26964D01*
X152141Y26892D01*
X152109Y26822D01*
X152074Y26753D01*
X152034Y26687D01*
X151992Y26622D01*
X151946Y26560D01*
X151897Y26500D01*
X151846Y26443D01*
X151791Y26388D01*
X151734Y26337D01*
X151674Y26288D01*
X151612Y26242D01*
X151547Y26200D01*
X151481Y26160D01*
X151412Y26125D01*
X151342Y26093D01*
X151270Y26064D01*
X151197Y26039D01*
X151123Y26018D01*
X151048Y26000D01*
X150972Y25987D01*
X150895Y25977D01*
X150818Y25971D01*
X150741Y25969D01*
X146931Y25969D01*
X146854Y25971D01*
X146777Y25977D01*
X146700Y25987D01*
X146624Y26000D01*
X146549Y26018D01*
X146475Y26039D01*
X146402Y26064D01*
X146330Y26093D01*
X146260Y26125D01*
X146191Y26160D01*
X146125Y26200D01*
X146060Y26242D01*
X145998Y26288D01*
X145938Y26337D01*
X145881Y26388D01*
X145826Y26443D01*
X145775Y26500D01*
X145726Y26560D01*
X145680Y26622D01*
X145638Y26687D01*
X145598Y26753D01*
X145563Y26822D01*
X145531Y26892D01*
X145502Y26964D01*
X145477Y27037D01*
X145456Y27111D01*
X145438Y27186D01*
X145425Y27262D01*
X145415Y27339D01*
X145409Y27416D01*
X145407Y27493D01*
X145407Y29779D01*
X145407Y35433D02*
X152265Y33147D01*
X152265Y37719D02*
X145407Y35433D01*
X150551Y37147D02*
X150551Y33718D01*
X152265Y45058D02*
X145407Y45058D01*
X145407Y46963D01*
X145409Y47048D01*
X145415Y47134D01*
X145424Y47219D01*
X145438Y47303D01*
X145455Y47387D01*
X145476Y47470D01*
X145500Y47552D01*
X145528Y47632D01*
X145560Y47712D01*
X145596Y47790D01*
X145634Y47866D01*
X145677Y47940D01*
X145722Y48012D01*
X145771Y48083D01*
X145823Y48151D01*
X145877Y48216D01*
X145935Y48279D01*
X145996Y48340D01*
X146059Y48398D01*
X146124Y48452D01*
X146192Y48504D01*
X146263Y48553D01*
X146335Y48598D01*
X146409Y48641D01*
X146485Y48679D01*
X146563Y48715D01*
X146643Y48747D01*
X146723Y48775D01*
X146805Y48799D01*
X146888Y48820D01*
X146972Y48837D01*
X147056Y48851D01*
X147141Y48860D01*
X147227Y48866D01*
X147312Y48868D01*
X147397Y48866D01*
X147483Y48860D01*
X147568Y48851D01*
X147652Y48837D01*
X147736Y48820D01*
X147819Y48799D01*
X147901Y48775D01*
X147981Y48747D01*
X148061Y48715D01*
X148139Y48679D01*
X148215Y48641D01*
X148289Y48598D01*
X148361Y48553D01*
X148432Y48504D01*
X148500Y48452D01*
X148565Y48398D01*
X148628Y48340D01*
X148689Y48279D01*
X148747Y48216D01*
X148801Y48151D01*
X148853Y48083D01*
X148902Y48012D01*
X148947Y47940D01*
X148990Y47866D01*
X149028Y47790D01*
X149064Y47712D01*
X149096Y47632D01*
X149124Y47552D01*
X149148Y47470D01*
X149169Y47387D01*
X149186Y47303D01*
X149200Y47219D01*
X149209Y47134D01*
X149215Y47048D01*
X149217Y46963D01*
X149217Y45058D01*
X149217Y47344D02*
X152265Y48868D01*
X152265Y54346D02*
X152263Y54423D01*
X152257Y54500D01*
X152247Y54577D01*
X152234Y54653D01*
X152216Y54728D01*
X152195Y54802D01*
X152170Y54875D01*
X152141Y54947D01*
X152109Y55017D01*
X152074Y55086D01*
X152034Y55152D01*
X151992Y55217D01*
X151946Y55279D01*
X151897Y55339D01*
X151846Y55396D01*
X151791Y55451D01*
X151734Y55502D01*
X151674Y55551D01*
X151612Y55597D01*
X151547Y55639D01*
X151481Y55679D01*
X151412Y55714D01*
X151342Y55746D01*
X151270Y55775D01*
X151197Y55800D01*
X151123Y55821D01*
X151048Y55839D01*
X150972Y55852D01*
X150895Y55862D01*
X150818Y55868D01*
X150741Y55870D01*
X152265Y54346D02*
X152263Y54236D01*
X152257Y54125D01*
X152248Y54015D01*
X152235Y53905D01*
X152218Y53796D01*
X152197Y53688D01*
X152173Y53580D01*
X152144Y53473D01*
X152113Y53367D01*
X152077Y53263D01*
X152038Y53159D01*
X151996Y53057D01*
X151950Y52957D01*
X151900Y52858D01*
X151848Y52761D01*
X151791Y52665D01*
X151732Y52572D01*
X151670Y52481D01*
X151604Y52392D01*
X151536Y52305D01*
X151464Y52221D01*
X151390Y52139D01*
X151313Y52060D01*
X146931Y52250D02*
X146854Y52252D01*
X146777Y52258D01*
X146700Y52268D01*
X146624Y52281D01*
X146549Y52299D01*
X146475Y52320D01*
X146402Y52345D01*
X146330Y52374D01*
X146260Y52406D01*
X146191Y52441D01*
X146125Y52481D01*
X146060Y52523D01*
X145998Y52569D01*
X145938Y52618D01*
X145881Y52669D01*
X145826Y52724D01*
X145775Y52781D01*
X145726Y52841D01*
X145680Y52903D01*
X145638Y52968D01*
X145598Y53034D01*
X145563Y53103D01*
X145531Y53173D01*
X145502Y53245D01*
X145477Y53318D01*
X145456Y53392D01*
X145438Y53467D01*
X145425Y53543D01*
X145415Y53620D01*
X145409Y53697D01*
X145407Y53774D01*
X145409Y53876D01*
X145414Y53978D01*
X145423Y54080D01*
X145436Y54181D01*
X145453Y54282D01*
X145472Y54382D01*
X145496Y54482D01*
X145523Y54580D01*
X145554Y54678D01*
X145588Y54774D01*
X145625Y54869D01*
X145666Y54963D01*
X145710Y55055D01*
X145758Y55145D01*
X145808Y55234D01*
X145862Y55321D01*
X145919Y55406D01*
X145979Y55489D01*
X148265Y53012D02*
X148224Y52947D01*
X148181Y52884D01*
X148134Y52824D01*
X148084Y52765D01*
X148032Y52710D01*
X147977Y52657D01*
X147919Y52606D01*
X147859Y52559D01*
X147796Y52515D01*
X147732Y52473D01*
X147666Y52435D01*
X147597Y52401D01*
X147527Y52370D01*
X147456Y52342D01*
X147384Y52318D01*
X147310Y52297D01*
X147235Y52280D01*
X147160Y52267D01*
X147084Y52258D01*
X147008Y52252D01*
X146931Y52250D01*
X149407Y55108D02*
X149448Y55173D01*
X149491Y55236D01*
X149538Y55296D01*
X149588Y55355D01*
X149640Y55410D01*
X149695Y55463D01*
X149753Y55514D01*
X149813Y55561D01*
X149876Y55605D01*
X149940Y55647D01*
X150006Y55685D01*
X150075Y55719D01*
X150145Y55750D01*
X150216Y55778D01*
X150288Y55802D01*
X150362Y55823D01*
X150437Y55840D01*
X150512Y55853D01*
X150588Y55862D01*
X150664Y55868D01*
X150741Y55870D01*
X149408Y55108D02*
X148265Y53012D01*
X145407Y60548D02*
X152265Y60548D01*
X145407Y58643D02*
X145407Y62453D01*
X261429Y27365D02*
X261429Y20507D01*
X261429Y27365D02*
X264477Y27365D01*
X264477Y24317D02*
X261429Y24317D01*
X267907Y27365D02*
X267907Y20507D01*
X267907Y27365D02*
X269812Y27365D01*
X269897Y27363D01*
X269983Y27357D01*
X270068Y27348D01*
X270152Y27334D01*
X270236Y27317D01*
X270319Y27296D01*
X270401Y27272D01*
X270481Y27244D01*
X270561Y27212D01*
X270639Y27176D01*
X270715Y27138D01*
X270789Y27095D01*
X270861Y27050D01*
X270932Y27001D01*
X271000Y26949D01*
X271065Y26895D01*
X271128Y26837D01*
X271189Y26776D01*
X271247Y26713D01*
X271301Y26648D01*
X271353Y26580D01*
X271402Y26509D01*
X271447Y26437D01*
X271490Y26363D01*
X271528Y26287D01*
X271564Y26209D01*
X271596Y26129D01*
X271624Y26049D01*
X271648Y25967D01*
X271669Y25884D01*
X271686Y25800D01*
X271700Y25716D01*
X271709Y25631D01*
X271715Y25545D01*
X271717Y25460D01*
X271715Y25375D01*
X271709Y25289D01*
X271700Y25204D01*
X271686Y25120D01*
X271669Y25036D01*
X271648Y24953D01*
X271624Y24871D01*
X271596Y24791D01*
X271564Y24711D01*
X271528Y24633D01*
X271490Y24557D01*
X271447Y24483D01*
X271402Y24411D01*
X271353Y24340D01*
X271301Y24272D01*
X271247Y24207D01*
X271189Y24144D01*
X271128Y24083D01*
X271065Y24025D01*
X271000Y23971D01*
X270932Y23919D01*
X270861Y23870D01*
X270789Y23825D01*
X270715Y23782D01*
X270639Y23744D01*
X270561Y23708D01*
X270481Y23676D01*
X270401Y23648D01*
X270319Y23624D01*
X270236Y23603D01*
X270152Y23586D01*
X270068Y23572D01*
X269983Y23563D01*
X269897Y23557D01*
X269812Y23555D01*
X267907Y23555D01*
X277729Y24317D02*
X278872Y24317D01*
X278872Y20507D01*
X276586Y20507D01*
X276509Y20509D01*
X276432Y20515D01*
X276355Y20525D01*
X276279Y20538D01*
X276204Y20556D01*
X276130Y20577D01*
X276057Y20602D01*
X275985Y20631D01*
X275915Y20663D01*
X275846Y20698D01*
X275780Y20738D01*
X275715Y20780D01*
X275653Y20826D01*
X275593Y20875D01*
X275536Y20926D01*
X275481Y20981D01*
X275430Y21038D01*
X275381Y21098D01*
X275335Y21160D01*
X275293Y21225D01*
X275253Y21291D01*
X275218Y21360D01*
X275186Y21430D01*
X275157Y21502D01*
X275132Y21575D01*
X275111Y21649D01*
X275093Y21724D01*
X275080Y21800D01*
X275070Y21877D01*
X275064Y21954D01*
X275062Y22031D01*
X275062Y25841D01*
X275064Y25918D01*
X275070Y25995D01*
X275080Y26072D01*
X275093Y26148D01*
X275111Y26223D01*
X275132Y26297D01*
X275157Y26370D01*
X275186Y26442D01*
X275218Y26512D01*
X275253Y26581D01*
X275293Y26647D01*
X275335Y26712D01*
X275381Y26774D01*
X275430Y26834D01*
X275481Y26891D01*
X275536Y26946D01*
X275593Y26997D01*
X275653Y27046D01*
X275715Y27092D01*
X275780Y27134D01*
X275846Y27174D01*
X275915Y27209D01*
X275985Y27241D01*
X276057Y27270D01*
X276130Y27295D01*
X276204Y27316D01*
X276279Y27334D01*
X276355Y27347D01*
X276432Y27357D01*
X276509Y27363D01*
X276586Y27365D01*
X278872Y27365D01*
X284526Y27365D02*
X282240Y20507D01*
X286812Y20507D02*
X284526Y27365D01*
X286241Y22222D02*
X282812Y22222D01*
X294103Y20507D02*
X294103Y27365D01*
X294103Y20507D02*
X297151Y20507D01*
X300443Y20507D02*
X303491Y20507D01*
X300443Y20507D02*
X300443Y27365D01*
X303491Y27365D01*
X302729Y24317D02*
X300443Y24317D01*
X306761Y27365D02*
X306761Y20507D01*
X306761Y27365D02*
X308666Y27365D01*
X308751Y27363D01*
X308837Y27357D01*
X308922Y27348D01*
X309006Y27334D01*
X309090Y27317D01*
X309173Y27296D01*
X309255Y27272D01*
X309335Y27244D01*
X309415Y27212D01*
X309493Y27176D01*
X309569Y27138D01*
X309643Y27095D01*
X309715Y27050D01*
X309786Y27001D01*
X309854Y26949D01*
X309919Y26895D01*
X309982Y26837D01*
X310043Y26776D01*
X310101Y26713D01*
X310155Y26648D01*
X310207Y26580D01*
X310256Y26509D01*
X310301Y26437D01*
X310344Y26363D01*
X310382Y26287D01*
X310418Y26209D01*
X310450Y26129D01*
X310478Y26049D01*
X310502Y25967D01*
X310523Y25884D01*
X310540Y25800D01*
X310554Y25716D01*
X310563Y25631D01*
X310569Y25545D01*
X310571Y25460D01*
X310571Y22412D01*
X310569Y22327D01*
X310563Y22241D01*
X310554Y22156D01*
X310540Y22072D01*
X310523Y21988D01*
X310502Y21905D01*
X310478Y21823D01*
X310450Y21743D01*
X310418Y21663D01*
X310382Y21585D01*
X310344Y21509D01*
X310301Y21435D01*
X310256Y21363D01*
X310207Y21292D01*
X310155Y21224D01*
X310101Y21159D01*
X310043Y21096D01*
X309982Y21035D01*
X309919Y20977D01*
X309854Y20923D01*
X309786Y20871D01*
X309715Y20822D01*
X309643Y20777D01*
X309569Y20734D01*
X309493Y20696D01*
X309415Y20660D01*
X309335Y20628D01*
X309255Y20600D01*
X309173Y20576D01*
X309090Y20555D01*
X309006Y20538D01*
X308922Y20524D01*
X308837Y20515D01*
X308751Y20509D01*
X308666Y20507D01*
X306761Y20507D01*
X51865Y12135D02*
X45007Y12135D01*
X48817Y14421D01*
X45007Y16707D01*
X51865Y16707D01*
X51865Y22055D02*
X51865Y23579D01*
X51865Y22055D02*
X51863Y21978D01*
X51857Y21901D01*
X51847Y21824D01*
X51834Y21748D01*
X51816Y21673D01*
X51795Y21599D01*
X51770Y21526D01*
X51741Y21454D01*
X51709Y21384D01*
X51674Y21315D01*
X51634Y21249D01*
X51592Y21184D01*
X51546Y21122D01*
X51497Y21062D01*
X51446Y21005D01*
X51391Y20950D01*
X51334Y20899D01*
X51274Y20850D01*
X51212Y20804D01*
X51147Y20762D01*
X51081Y20722D01*
X51012Y20687D01*
X50942Y20655D01*
X50870Y20626D01*
X50797Y20601D01*
X50723Y20580D01*
X50648Y20562D01*
X50572Y20549D01*
X50495Y20539D01*
X50418Y20533D01*
X50341Y20531D01*
X46531Y20531D01*
X46454Y20533D01*
X46377Y20539D01*
X46300Y20549D01*
X46224Y20562D01*
X46149Y20580D01*
X46075Y20601D01*
X46002Y20626D01*
X45930Y20655D01*
X45860Y20687D01*
X45791Y20722D01*
X45725Y20762D01*
X45660Y20804D01*
X45598Y20850D01*
X45538Y20899D01*
X45481Y20950D01*
X45426Y21005D01*
X45375Y21062D01*
X45326Y21122D01*
X45280Y21184D01*
X45238Y21249D01*
X45198Y21315D01*
X45163Y21384D01*
X45131Y21454D01*
X45102Y21526D01*
X45077Y21599D01*
X45056Y21673D01*
X45038Y21748D01*
X45025Y21824D01*
X45015Y21901D01*
X45009Y21978D01*
X45007Y22055D01*
X45007Y23579D01*
X45007Y26903D02*
X49960Y26903D01*
X50045Y26905D01*
X50131Y26911D01*
X50216Y26920D01*
X50300Y26934D01*
X50384Y26951D01*
X50467Y26972D01*
X50549Y26996D01*
X50629Y27024D01*
X50709Y27056D01*
X50787Y27092D01*
X50863Y27130D01*
X50937Y27173D01*
X51009Y27218D01*
X51080Y27267D01*
X51148Y27319D01*
X51213Y27373D01*
X51276Y27431D01*
X51337Y27492D01*
X51395Y27555D01*
X51449Y27620D01*
X51501Y27688D01*
X51550Y27759D01*
X51595Y27831D01*
X51638Y27905D01*
X51676Y27981D01*
X51712Y28059D01*
X51744Y28139D01*
X51772Y28219D01*
X51796Y28301D01*
X51817Y28384D01*
X51834Y28468D01*
X51848Y28552D01*
X51857Y28637D01*
X51863Y28723D01*
X51865Y28808D01*
X51863Y28893D01*
X51857Y28979D01*
X51848Y29064D01*
X51834Y29148D01*
X51817Y29232D01*
X51796Y29315D01*
X51772Y29397D01*
X51744Y29477D01*
X51712Y29557D01*
X51676Y29635D01*
X51638Y29711D01*
X51595Y29785D01*
X51550Y29857D01*
X51501Y29928D01*
X51449Y29996D01*
X51395Y30061D01*
X51337Y30124D01*
X51276Y30185D01*
X51213Y30243D01*
X51148Y30297D01*
X51080Y30349D01*
X51009Y30398D01*
X50937Y30443D01*
X50863Y30486D01*
X50787Y30524D01*
X50709Y30560D01*
X50629Y30592D01*
X50549Y30620D01*
X50467Y30644D01*
X50384Y30665D01*
X50300Y30682D01*
X50216Y30696D01*
X50131Y30705D01*
X50045Y30711D01*
X49960Y30713D01*
X45007Y30713D01*
X48055Y38767D02*
X48055Y40672D01*
X48057Y40757D01*
X48063Y40843D01*
X48072Y40928D01*
X48086Y41012D01*
X48103Y41096D01*
X48124Y41179D01*
X48148Y41261D01*
X48176Y41341D01*
X48208Y41421D01*
X48244Y41499D01*
X48282Y41575D01*
X48325Y41649D01*
X48370Y41721D01*
X48419Y41792D01*
X48471Y41860D01*
X48525Y41925D01*
X48583Y41988D01*
X48644Y42049D01*
X48707Y42107D01*
X48772Y42161D01*
X48840Y42213D01*
X48911Y42262D01*
X48983Y42307D01*
X49057Y42350D01*
X49133Y42388D01*
X49211Y42424D01*
X49291Y42456D01*
X49371Y42484D01*
X49453Y42508D01*
X49536Y42529D01*
X49620Y42546D01*
X49704Y42560D01*
X49789Y42569D01*
X49875Y42575D01*
X49960Y42577D01*
X50045Y42575D01*
X50131Y42569D01*
X50216Y42560D01*
X50300Y42546D01*
X50384Y42529D01*
X50467Y42508D01*
X50549Y42484D01*
X50629Y42456D01*
X50709Y42424D01*
X50787Y42388D01*
X50863Y42350D01*
X50937Y42307D01*
X51009Y42262D01*
X51080Y42213D01*
X51148Y42161D01*
X51213Y42107D01*
X51276Y42049D01*
X51337Y41988D01*
X51395Y41925D01*
X51449Y41860D01*
X51501Y41792D01*
X51550Y41721D01*
X51595Y41649D01*
X51638Y41575D01*
X51676Y41499D01*
X51712Y41421D01*
X51744Y41341D01*
X51772Y41261D01*
X51796Y41179D01*
X51817Y41096D01*
X51834Y41012D01*
X51848Y40928D01*
X51857Y40843D01*
X51863Y40757D01*
X51865Y40672D01*
X51865Y38767D01*
X45007Y38767D01*
X45007Y40672D01*
X45009Y40749D01*
X45015Y40826D01*
X45025Y40903D01*
X45038Y40979D01*
X45056Y41054D01*
X45077Y41128D01*
X45102Y41201D01*
X45131Y41273D01*
X45163Y41343D01*
X45198Y41412D01*
X45238Y41478D01*
X45280Y41543D01*
X45326Y41605D01*
X45375Y41665D01*
X45426Y41722D01*
X45481Y41777D01*
X45538Y41828D01*
X45598Y41877D01*
X45660Y41923D01*
X45725Y41965D01*
X45791Y42005D01*
X45860Y42040D01*
X45930Y42072D01*
X46002Y42101D01*
X46075Y42126D01*
X46149Y42147D01*
X46224Y42165D01*
X46300Y42178D01*
X46377Y42188D01*
X46454Y42194D01*
X46531Y42196D01*
X46608Y42194D01*
X46685Y42188D01*
X46762Y42178D01*
X46838Y42165D01*
X46913Y42147D01*
X46987Y42126D01*
X47060Y42101D01*
X47132Y42072D01*
X47202Y42040D01*
X47271Y42005D01*
X47337Y41965D01*
X47402Y41923D01*
X47464Y41877D01*
X47524Y41828D01*
X47581Y41777D01*
X47636Y41722D01*
X47687Y41665D01*
X47736Y41605D01*
X47782Y41543D01*
X47824Y41478D01*
X47864Y41412D01*
X47899Y41343D01*
X47931Y41273D01*
X47960Y41201D01*
X47985Y41128D01*
X48006Y41054D01*
X48024Y40979D01*
X48037Y40903D01*
X48047Y40826D01*
X48053Y40749D01*
X48055Y40672D01*
X46912Y45678D02*
X49960Y45678D01*
X46912Y45678D02*
X46827Y45680D01*
X46741Y45686D01*
X46656Y45695D01*
X46572Y45709D01*
X46488Y45726D01*
X46405Y45747D01*
X46323Y45771D01*
X46243Y45799D01*
X46163Y45831D01*
X46085Y45867D01*
X46009Y45905D01*
X45935Y45948D01*
X45863Y45993D01*
X45792Y46042D01*
X45724Y46094D01*
X45659Y46148D01*
X45596Y46206D01*
X45535Y46267D01*
X45477Y46330D01*
X45423Y46395D01*
X45371Y46463D01*
X45322Y46534D01*
X45277Y46606D01*
X45234Y46680D01*
X45196Y46756D01*
X45160Y46834D01*
X45128Y46914D01*
X45100Y46994D01*
X45076Y47076D01*
X45055Y47159D01*
X45038Y47243D01*
X45024Y47327D01*
X45015Y47412D01*
X45009Y47498D01*
X45007Y47583D01*
X45009Y47668D01*
X45015Y47754D01*
X45024Y47839D01*
X45038Y47923D01*
X45055Y48007D01*
X45076Y48090D01*
X45100Y48172D01*
X45128Y48252D01*
X45160Y48332D01*
X45196Y48410D01*
X45234Y48486D01*
X45277Y48560D01*
X45322Y48632D01*
X45371Y48703D01*
X45423Y48771D01*
X45477Y48836D01*
X45535Y48899D01*
X45596Y48960D01*
X45659Y49018D01*
X45724Y49072D01*
X45792Y49124D01*
X45863Y49173D01*
X45935Y49218D01*
X46009Y49261D01*
X46085Y49299D01*
X46163Y49335D01*
X46243Y49367D01*
X46323Y49395D01*
X46405Y49419D01*
X46488Y49440D01*
X46572Y49457D01*
X46656Y49471D01*
X46741Y49480D01*
X46827Y49486D01*
X46912Y49488D01*
X49960Y49488D01*
X50045Y49486D01*
X50131Y49480D01*
X50216Y49471D01*
X50300Y49457D01*
X50384Y49440D01*
X50467Y49419D01*
X50549Y49395D01*
X50629Y49367D01*
X50709Y49335D01*
X50787Y49299D01*
X50863Y49261D01*
X50937Y49218D01*
X51009Y49173D01*
X51080Y49124D01*
X51148Y49072D01*
X51213Y49018D01*
X51276Y48960D01*
X51337Y48899D01*
X51395Y48836D01*
X51449Y48771D01*
X51501Y48703D01*
X51550Y48632D01*
X51595Y48560D01*
X51638Y48486D01*
X51676Y48410D01*
X51712Y48332D01*
X51744Y48252D01*
X51772Y48172D01*
X51796Y48090D01*
X51817Y48007D01*
X51834Y47923D01*
X51848Y47839D01*
X51857Y47754D01*
X51863Y47668D01*
X51865Y47583D01*
X51863Y47498D01*
X51857Y47412D01*
X51848Y47327D01*
X51834Y47243D01*
X51817Y47159D01*
X51796Y47076D01*
X51772Y46994D01*
X51744Y46914D01*
X51712Y46834D01*
X51676Y46756D01*
X51638Y46680D01*
X51595Y46606D01*
X51550Y46534D01*
X51501Y46463D01*
X51449Y46395D01*
X51395Y46330D01*
X51337Y46267D01*
X51276Y46206D01*
X51213Y46148D01*
X51148Y46094D01*
X51080Y46042D01*
X51009Y45993D01*
X50937Y45948D01*
X50863Y45905D01*
X50787Y45867D01*
X50709Y45831D01*
X50629Y45799D01*
X50549Y45771D01*
X50467Y45747D01*
X50384Y45726D01*
X50300Y45709D01*
X50216Y45695D01*
X50131Y45686D01*
X50045Y45680D01*
X49960Y45678D01*
X49960Y52993D02*
X46912Y52993D01*
X46827Y52995D01*
X46741Y53001D01*
X46656Y53010D01*
X46572Y53024D01*
X46488Y53041D01*
X46405Y53062D01*
X46323Y53086D01*
X46243Y53114D01*
X46163Y53146D01*
X46085Y53182D01*
X46009Y53220D01*
X45935Y53263D01*
X45863Y53308D01*
X45792Y53357D01*
X45724Y53409D01*
X45659Y53463D01*
X45596Y53521D01*
X45535Y53582D01*
X45477Y53645D01*
X45423Y53710D01*
X45371Y53778D01*
X45322Y53849D01*
X45277Y53921D01*
X45234Y53995D01*
X45196Y54071D01*
X45160Y54149D01*
X45128Y54229D01*
X45100Y54309D01*
X45076Y54391D01*
X45055Y54474D01*
X45038Y54558D01*
X45024Y54642D01*
X45015Y54727D01*
X45009Y54813D01*
X45007Y54898D01*
X45009Y54983D01*
X45015Y55069D01*
X45024Y55154D01*
X45038Y55238D01*
X45055Y55322D01*
X45076Y55405D01*
X45100Y55487D01*
X45128Y55567D01*
X45160Y55647D01*
X45196Y55725D01*
X45234Y55801D01*
X45277Y55875D01*
X45322Y55947D01*
X45371Y56018D01*
X45423Y56086D01*
X45477Y56151D01*
X45535Y56214D01*
X45596Y56275D01*
X45659Y56333D01*
X45724Y56387D01*
X45792Y56439D01*
X45863Y56488D01*
X45935Y56533D01*
X46009Y56576D01*
X46085Y56614D01*
X46163Y56650D01*
X46243Y56682D01*
X46323Y56710D01*
X46405Y56734D01*
X46488Y56755D01*
X46572Y56772D01*
X46656Y56786D01*
X46741Y56795D01*
X46827Y56801D01*
X46912Y56803D01*
X49960Y56803D01*
X50045Y56801D01*
X50131Y56795D01*
X50216Y56786D01*
X50300Y56772D01*
X50384Y56755D01*
X50467Y56734D01*
X50549Y56710D01*
X50629Y56682D01*
X50709Y56650D01*
X50787Y56614D01*
X50863Y56576D01*
X50937Y56533D01*
X51009Y56488D01*
X51080Y56439D01*
X51148Y56387D01*
X51213Y56333D01*
X51276Y56275D01*
X51337Y56214D01*
X51395Y56151D01*
X51449Y56086D01*
X51501Y56018D01*
X51550Y55947D01*
X51595Y55875D01*
X51638Y55801D01*
X51676Y55725D01*
X51712Y55647D01*
X51744Y55567D01*
X51772Y55487D01*
X51796Y55405D01*
X51817Y55322D01*
X51834Y55238D01*
X51848Y55154D01*
X51857Y55069D01*
X51863Y54983D01*
X51865Y54898D01*
X51863Y54813D01*
X51857Y54727D01*
X51848Y54642D01*
X51834Y54558D01*
X51817Y54474D01*
X51796Y54391D01*
X51772Y54309D01*
X51744Y54229D01*
X51712Y54149D01*
X51676Y54071D01*
X51638Y53995D01*
X51595Y53921D01*
X51550Y53849D01*
X51501Y53778D01*
X51449Y53710D01*
X51395Y53645D01*
X51337Y53582D01*
X51276Y53521D01*
X51213Y53463D01*
X51148Y53409D01*
X51080Y53357D01*
X51009Y53308D01*
X50937Y53263D01*
X50863Y53220D01*
X50787Y53182D01*
X50709Y53146D01*
X50629Y53114D01*
X50549Y53086D01*
X50467Y53062D01*
X50384Y53041D01*
X50300Y53024D01*
X50216Y53010D01*
X50131Y53001D01*
X50045Y52995D01*
X49960Y52993D01*
X51865Y61726D02*
X45007Y61726D01*
X45007Y59821D02*
X45007Y63631D01*
D11*
X346600Y284200D03*
D12*
X337600Y263200D02*
X337600Y251200D01*
X349600Y251200D01*
X349600Y257200D01*
X349600Y263200D01*
X343600Y263200D01*
X337600Y263200D01*
X367600Y287200D02*
X367600Y293200D01*
X367600Y287200D02*
X367600Y281200D01*
X373600Y281200D01*
X379600Y281200D01*
X379600Y293200D01*
X367600Y293200D01*
X367600Y263200D02*
X367600Y257200D01*
X367600Y251200D01*
X379600Y251200D01*
X379600Y263200D01*
X373600Y263200D01*
X367600Y263200D01*
X367600Y281200D02*
X379600Y293200D01*
X343600Y275200D02*
X343600Y263200D01*
X349600Y257200D02*
X367600Y257200D01*
X373600Y263200D02*
X373600Y281200D01*
X367600Y287200D02*
X355600Y287200D01*
X337600Y263200D02*
X349600Y251200D01*
X368000Y257200D02*
X373600Y257200D01*
X373600Y263200D01*
D13*
X20776Y278111D02*
X20776Y286239D01*
X27364Y286239D01*
X49224Y286239D02*
X49224Y278111D01*
X49224Y286239D02*
X42636Y286239D01*
D10*
X5540Y279739D02*
X5540Y276691D01*
X5540Y279739D02*
X5542Y279824D01*
X5548Y279910D01*
X5557Y279995D01*
X5571Y280079D01*
X5588Y280163D01*
X5609Y280246D01*
X5633Y280328D01*
X5661Y280408D01*
X5693Y280488D01*
X5729Y280566D01*
X5767Y280642D01*
X5810Y280716D01*
X5855Y280788D01*
X5904Y280859D01*
X5956Y280927D01*
X6010Y280992D01*
X6068Y281055D01*
X6129Y281116D01*
X6192Y281174D01*
X6257Y281228D01*
X6325Y281280D01*
X6396Y281329D01*
X6468Y281374D01*
X6542Y281417D01*
X6618Y281455D01*
X6696Y281491D01*
X6776Y281523D01*
X6856Y281551D01*
X6938Y281575D01*
X7021Y281596D01*
X7105Y281613D01*
X7189Y281627D01*
X7274Y281636D01*
X7360Y281642D01*
X7445Y281644D01*
X7530Y281642D01*
X7616Y281636D01*
X7701Y281627D01*
X7785Y281613D01*
X7869Y281596D01*
X7952Y281575D01*
X8034Y281551D01*
X8114Y281523D01*
X8194Y281491D01*
X8272Y281455D01*
X8348Y281417D01*
X8422Y281374D01*
X8494Y281329D01*
X8565Y281280D01*
X8633Y281228D01*
X8698Y281174D01*
X8761Y281116D01*
X8822Y281055D01*
X8880Y280992D01*
X8934Y280927D01*
X8986Y280859D01*
X9035Y280788D01*
X9080Y280716D01*
X9123Y280642D01*
X9161Y280566D01*
X9197Y280488D01*
X9229Y280408D01*
X9257Y280328D01*
X9281Y280246D01*
X9302Y280163D01*
X9319Y280079D01*
X9333Y279995D01*
X9342Y279910D01*
X9348Y279824D01*
X9350Y279739D01*
X9350Y276691D01*
X9348Y276606D01*
X9342Y276520D01*
X9333Y276435D01*
X9319Y276351D01*
X9302Y276267D01*
X9281Y276184D01*
X9257Y276102D01*
X9229Y276022D01*
X9197Y275942D01*
X9161Y275864D01*
X9123Y275788D01*
X9080Y275714D01*
X9035Y275642D01*
X8986Y275571D01*
X8934Y275503D01*
X8880Y275438D01*
X8822Y275375D01*
X8761Y275314D01*
X8698Y275256D01*
X8633Y275202D01*
X8565Y275150D01*
X8494Y275101D01*
X8422Y275056D01*
X8348Y275013D01*
X8272Y274975D01*
X8194Y274939D01*
X8114Y274907D01*
X8034Y274879D01*
X7952Y274855D01*
X7869Y274834D01*
X7785Y274817D01*
X7701Y274803D01*
X7616Y274794D01*
X7530Y274788D01*
X7445Y274786D01*
X7360Y274788D01*
X7274Y274794D01*
X7189Y274803D01*
X7105Y274817D01*
X7021Y274834D01*
X6938Y274855D01*
X6856Y274879D01*
X6776Y274907D01*
X6696Y274939D01*
X6618Y274975D01*
X6542Y275013D01*
X6468Y275056D01*
X6396Y275101D01*
X6325Y275150D01*
X6257Y275202D01*
X6192Y275256D01*
X6129Y275314D01*
X6068Y275375D01*
X6010Y275438D01*
X5956Y275503D01*
X5904Y275571D01*
X5855Y275642D01*
X5810Y275714D01*
X5767Y275788D01*
X5729Y275864D01*
X5693Y275942D01*
X5661Y276022D01*
X5633Y276102D01*
X5609Y276184D01*
X5588Y276267D01*
X5571Y276351D01*
X5557Y276435D01*
X5548Y276520D01*
X5542Y276606D01*
X5540Y276691D01*
X8588Y276310D02*
X10112Y274786D01*
X12469Y280120D02*
X14374Y281644D01*
X14374Y274786D01*
X12469Y274786D02*
X16279Y274786D01*
X114000Y278889D02*
X134000Y278889D01*
X134000Y268889D01*
X114000Y268889D01*
X114000Y278889D01*
X114000Y266000D02*
X134000Y266000D01*
X134000Y256000D01*
X114000Y256000D01*
X114000Y266000D01*
D14*
X92500Y257500D02*
X52509Y257500D01*
X52509Y240500D01*
X92500Y240500D01*
D10*
X71000Y281000D02*
X71000Y311000D01*
X101000Y311000D02*
X101000Y281000D01*
X72000Y311000D02*
X71000Y311000D01*
X71000Y281000D02*
X72000Y281000D01*
X100000Y281000D02*
X101000Y281000D01*
X101000Y311000D02*
X100000Y311000D01*
D15*
X70500Y277000D02*
X70502Y277044D01*
X70508Y277088D01*
X70518Y277131D01*
X70531Y277173D01*
X70548Y277214D01*
X70569Y277253D01*
X70593Y277290D01*
X70620Y277325D01*
X70650Y277357D01*
X70683Y277387D01*
X70719Y277413D01*
X70756Y277437D01*
X70796Y277456D01*
X70837Y277473D01*
X70880Y277485D01*
X70923Y277494D01*
X70967Y277499D01*
X71011Y277500D01*
X71055Y277497D01*
X71099Y277490D01*
X71142Y277479D01*
X71184Y277465D01*
X71224Y277447D01*
X71263Y277425D01*
X71299Y277401D01*
X71333Y277373D01*
X71365Y277342D01*
X71394Y277308D01*
X71420Y277272D01*
X71442Y277234D01*
X71461Y277194D01*
X71476Y277152D01*
X71488Y277110D01*
X71496Y277066D01*
X71500Y277022D01*
X71500Y276978D01*
X71496Y276934D01*
X71488Y276890D01*
X71476Y276848D01*
X71461Y276806D01*
X71442Y276766D01*
X71420Y276728D01*
X71394Y276692D01*
X71365Y276658D01*
X71333Y276627D01*
X71299Y276599D01*
X71263Y276575D01*
X71224Y276553D01*
X71184Y276535D01*
X71142Y276521D01*
X71099Y276510D01*
X71055Y276503D01*
X71011Y276500D01*
X70967Y276501D01*
X70923Y276506D01*
X70880Y276515D01*
X70837Y276527D01*
X70796Y276544D01*
X70756Y276563D01*
X70719Y276587D01*
X70683Y276613D01*
X70650Y276643D01*
X70620Y276675D01*
X70593Y276710D01*
X70569Y276747D01*
X70548Y276786D01*
X70531Y276827D01*
X70518Y276869D01*
X70508Y276912D01*
X70502Y276956D01*
X70500Y277000D01*
D10*
X55423Y312337D02*
X55423Y317290D01*
X55423Y312337D02*
X55425Y312252D01*
X55431Y312166D01*
X55440Y312081D01*
X55454Y311997D01*
X55471Y311913D01*
X55492Y311830D01*
X55516Y311748D01*
X55544Y311668D01*
X55576Y311588D01*
X55612Y311510D01*
X55650Y311434D01*
X55693Y311360D01*
X55738Y311288D01*
X55787Y311217D01*
X55839Y311149D01*
X55893Y311084D01*
X55951Y311021D01*
X56012Y310960D01*
X56075Y310902D01*
X56140Y310848D01*
X56208Y310796D01*
X56279Y310747D01*
X56351Y310702D01*
X56425Y310659D01*
X56501Y310621D01*
X56579Y310585D01*
X56659Y310553D01*
X56739Y310525D01*
X56821Y310501D01*
X56904Y310480D01*
X56988Y310463D01*
X57072Y310449D01*
X57157Y310440D01*
X57243Y310434D01*
X57328Y310432D01*
X57413Y310434D01*
X57499Y310440D01*
X57584Y310449D01*
X57668Y310463D01*
X57752Y310480D01*
X57835Y310501D01*
X57917Y310525D01*
X57997Y310553D01*
X58077Y310585D01*
X58155Y310621D01*
X58231Y310659D01*
X58305Y310702D01*
X58377Y310747D01*
X58448Y310796D01*
X58516Y310848D01*
X58581Y310902D01*
X58644Y310960D01*
X58705Y311021D01*
X58763Y311084D01*
X58817Y311149D01*
X58869Y311217D01*
X58918Y311288D01*
X58963Y311360D01*
X59006Y311434D01*
X59044Y311510D01*
X59080Y311588D01*
X59112Y311668D01*
X59140Y311748D01*
X59164Y311830D01*
X59185Y311913D01*
X59202Y311997D01*
X59216Y312081D01*
X59225Y312166D01*
X59231Y312252D01*
X59233Y312337D01*
X59233Y317290D01*
X65077Y317291D02*
X65159Y317289D01*
X65240Y317283D01*
X65321Y317274D01*
X65402Y317260D01*
X65481Y317243D01*
X65560Y317222D01*
X65638Y317197D01*
X65714Y317168D01*
X65789Y317136D01*
X65863Y317100D01*
X65935Y317061D01*
X66004Y317019D01*
X66072Y316973D01*
X66137Y316924D01*
X66200Y316872D01*
X66260Y316817D01*
X66318Y316759D01*
X66373Y316699D01*
X66425Y316636D01*
X66474Y316571D01*
X66520Y316503D01*
X66562Y316434D01*
X66601Y316362D01*
X66637Y316288D01*
X66669Y316213D01*
X66698Y316137D01*
X66723Y316059D01*
X66744Y315980D01*
X66761Y315901D01*
X66775Y315820D01*
X66784Y315739D01*
X66790Y315658D01*
X66792Y315576D01*
X65077Y317290D02*
X64985Y317288D01*
X64893Y317282D01*
X64801Y317273D01*
X64709Y317259D01*
X64619Y317242D01*
X64529Y317221D01*
X64440Y317196D01*
X64352Y317167D01*
X64265Y317135D01*
X64180Y317099D01*
X64097Y317060D01*
X64015Y317017D01*
X63935Y316971D01*
X63857Y316921D01*
X63781Y316869D01*
X63708Y316813D01*
X63637Y316754D01*
X63568Y316692D01*
X63502Y316627D01*
X63439Y316560D01*
X63379Y316490D01*
X63321Y316418D01*
X63267Y316343D01*
X63216Y316266D01*
X63168Y316187D01*
X63124Y316106D01*
X63083Y316023D01*
X63045Y315939D01*
X63011Y315853D01*
X62981Y315766D01*
X66220Y314242D02*
X66279Y314301D01*
X66335Y314362D01*
X66388Y314425D01*
X66439Y314491D01*
X66486Y314559D01*
X66530Y314629D01*
X66571Y314701D01*
X66609Y314775D01*
X66643Y314850D01*
X66674Y314927D01*
X66701Y315005D01*
X66725Y315085D01*
X66746Y315165D01*
X66762Y315246D01*
X66775Y315328D01*
X66785Y315410D01*
X66790Y315493D01*
X66792Y315576D01*
X66220Y314242D02*
X62982Y310432D01*
X66792Y310432D01*
D16*
X78500Y323000D02*
X78500Y336000D01*
X78500Y323000D02*
X103500Y323000D01*
X103500Y336000D01*
X78500Y336000D01*
D10*
X114230Y319000D02*
X134230Y319000D01*
X134230Y309000D01*
X114230Y309000D01*
X114230Y319000D01*
D17*
X125115Y301900D02*
X125115Y299100D01*
X122915Y300500D02*
X125115Y301900D01*
X122915Y300500D02*
X125115Y299100D01*
X122915Y299100D02*
X122915Y301900D01*
D16*
X114115Y295500D02*
X134115Y295500D01*
X114115Y295500D02*
X114115Y305500D01*
X134115Y305500D01*
X134115Y295500D01*
D10*
X134230Y292000D02*
X114230Y292000D01*
X134230Y292000D02*
X134230Y282000D01*
X114230Y282000D01*
X114230Y292000D01*
D18*
X550540Y186350D03*
D14*
X546500Y189500D02*
X546500Y204750D01*
X546500Y189500D02*
X531250Y189500D01*
X485500Y189500D02*
X485500Y204750D01*
X485500Y189500D02*
X500750Y189500D01*
X485500Y255250D02*
X485500Y270500D01*
X500750Y270500D01*
X546500Y270500D02*
X546500Y255250D01*
X546500Y270500D02*
X531250Y270500D01*
D10*
X546000Y200000D02*
X536000Y190000D01*
X537000Y190000D02*
X546000Y200000D01*
X546000Y199000D02*
X537000Y190000D01*
X538000Y190000D02*
X546000Y199000D01*
X546000Y198000D02*
X538000Y190000D01*
X539000Y190000D02*
X546000Y198000D01*
X546000Y197000D02*
X539000Y190000D01*
X540000Y190000D02*
X546000Y197000D01*
X546000Y196000D02*
X540000Y190000D01*
X541000Y190000D02*
X546000Y196000D01*
X546000Y195000D02*
X541000Y190000D01*
X542000Y190000D02*
X546000Y195000D01*
X546000Y194000D02*
X542000Y190000D01*
X543000Y190000D02*
X546000Y194000D01*
X546000Y193000D02*
X543000Y190000D01*
X544000Y190000D02*
X546000Y193000D01*
X546000Y191000D02*
X544000Y190000D01*
X545000Y190000D02*
X546000Y191000D01*
X546000Y190000D02*
X545000Y190000D01*
X526658Y184015D02*
X526658Y179062D01*
X526660Y178977D01*
X526666Y178891D01*
X526675Y178806D01*
X526689Y178722D01*
X526706Y178638D01*
X526727Y178555D01*
X526751Y178473D01*
X526779Y178393D01*
X526811Y178313D01*
X526847Y178235D01*
X526885Y178159D01*
X526928Y178085D01*
X526973Y178013D01*
X527022Y177942D01*
X527074Y177874D01*
X527128Y177809D01*
X527186Y177746D01*
X527247Y177685D01*
X527310Y177627D01*
X527375Y177573D01*
X527443Y177521D01*
X527514Y177472D01*
X527586Y177427D01*
X527660Y177384D01*
X527736Y177346D01*
X527814Y177310D01*
X527894Y177278D01*
X527974Y177250D01*
X528056Y177226D01*
X528139Y177205D01*
X528223Y177188D01*
X528307Y177174D01*
X528392Y177165D01*
X528478Y177159D01*
X528563Y177157D01*
X528648Y177159D01*
X528734Y177165D01*
X528819Y177174D01*
X528903Y177188D01*
X528987Y177205D01*
X529070Y177226D01*
X529152Y177250D01*
X529232Y177278D01*
X529312Y177310D01*
X529390Y177346D01*
X529466Y177384D01*
X529540Y177427D01*
X529612Y177472D01*
X529683Y177521D01*
X529751Y177573D01*
X529816Y177627D01*
X529879Y177685D01*
X529940Y177746D01*
X529998Y177809D01*
X530052Y177874D01*
X530104Y177942D01*
X530153Y178013D01*
X530198Y178085D01*
X530241Y178159D01*
X530279Y178235D01*
X530315Y178313D01*
X530347Y178393D01*
X530375Y178473D01*
X530399Y178555D01*
X530420Y178638D01*
X530437Y178722D01*
X530451Y178806D01*
X530460Y178891D01*
X530466Y178977D01*
X530468Y179062D01*
X530468Y184015D01*
X534217Y182491D02*
X536122Y184015D01*
X536122Y177157D01*
X534217Y177157D02*
X538027Y177157D01*
X541532Y180586D02*
X541534Y180728D01*
X541539Y180871D01*
X541548Y181013D01*
X541561Y181155D01*
X541577Y181296D01*
X541596Y181437D01*
X541620Y181578D01*
X541646Y181718D01*
X541677Y181857D01*
X541711Y181995D01*
X541748Y182133D01*
X541788Y182269D01*
X541833Y182405D01*
X541880Y182539D01*
X541931Y182672D01*
X541985Y182804D01*
X542043Y182934D01*
X542104Y183063D01*
X542103Y183062D02*
X542129Y183131D01*
X542158Y183197D01*
X542190Y183263D01*
X542225Y183326D01*
X542264Y183388D01*
X542306Y183448D01*
X542351Y183505D01*
X542399Y183560D01*
X542450Y183612D01*
X542503Y183662D01*
X542559Y183708D01*
X542617Y183752D01*
X542678Y183793D01*
X542740Y183831D01*
X542804Y183865D01*
X542870Y183896D01*
X542938Y183924D01*
X543007Y183948D01*
X543077Y183968D01*
X543148Y183985D01*
X543219Y183998D01*
X543291Y184007D01*
X543364Y184013D01*
X543437Y184015D01*
X543510Y184013D01*
X543583Y184007D01*
X543655Y183998D01*
X543726Y183985D01*
X543797Y183968D01*
X543867Y183948D01*
X543936Y183924D01*
X544004Y183896D01*
X544070Y183865D01*
X544134Y183831D01*
X544196Y183793D01*
X544257Y183752D01*
X544315Y183708D01*
X544371Y183662D01*
X544424Y183612D01*
X544475Y183560D01*
X544523Y183505D01*
X544568Y183448D01*
X544610Y183388D01*
X544649Y183326D01*
X544684Y183263D01*
X544716Y183197D01*
X544745Y183131D01*
X544771Y183062D01*
X544771Y183063D02*
X544832Y182934D01*
X544890Y182804D01*
X544944Y182672D01*
X544995Y182539D01*
X545042Y182405D01*
X545087Y182269D01*
X545127Y182133D01*
X545164Y181995D01*
X545198Y181857D01*
X545229Y181718D01*
X545255Y181578D01*
X545279Y181437D01*
X545298Y181296D01*
X545314Y181155D01*
X545327Y181013D01*
X545336Y180871D01*
X545341Y180728D01*
X545343Y180586D01*
X541532Y180586D02*
X541534Y180444D01*
X541539Y180301D01*
X541548Y180159D01*
X541561Y180017D01*
X541577Y179876D01*
X541596Y179735D01*
X541620Y179594D01*
X541646Y179454D01*
X541677Y179315D01*
X541711Y179177D01*
X541748Y179039D01*
X541788Y178903D01*
X541833Y178767D01*
X541880Y178633D01*
X541931Y178500D01*
X541985Y178368D01*
X542043Y178238D01*
X542104Y178109D01*
X542103Y178110D02*
X542129Y178041D01*
X542158Y177975D01*
X542190Y177909D01*
X542225Y177846D01*
X542264Y177784D01*
X542306Y177724D01*
X542351Y177667D01*
X542399Y177612D01*
X542450Y177560D01*
X542503Y177510D01*
X542559Y177464D01*
X542617Y177420D01*
X542678Y177379D01*
X542740Y177341D01*
X542804Y177307D01*
X542870Y177276D01*
X542938Y177248D01*
X543007Y177224D01*
X543077Y177204D01*
X543148Y177187D01*
X543219Y177174D01*
X543291Y177165D01*
X543364Y177159D01*
X543437Y177157D01*
X544771Y178109D02*
X544832Y178238D01*
X544890Y178368D01*
X544944Y178500D01*
X544995Y178633D01*
X545042Y178767D01*
X545087Y178903D01*
X545127Y179039D01*
X545164Y179177D01*
X545198Y179315D01*
X545229Y179454D01*
X545255Y179594D01*
X545279Y179735D01*
X545298Y179876D01*
X545314Y180017D01*
X545327Y180159D01*
X545336Y180301D01*
X545341Y180444D01*
X545343Y180586D01*
X544771Y178110D02*
X544745Y178041D01*
X544716Y177975D01*
X544684Y177909D01*
X544649Y177846D01*
X544610Y177784D01*
X544568Y177724D01*
X544523Y177667D01*
X544475Y177612D01*
X544424Y177560D01*
X544371Y177510D01*
X544315Y177464D01*
X544257Y177420D01*
X544196Y177379D01*
X544134Y177341D01*
X544070Y177307D01*
X544004Y177276D01*
X543936Y177248D01*
X543867Y177224D01*
X543797Y177204D01*
X543726Y177187D01*
X543655Y177174D01*
X543583Y177165D01*
X543510Y177159D01*
X543437Y177157D01*
X541913Y178681D02*
X544961Y182491D01*
X255000Y26000D02*
X227000Y26000D01*
X227000Y40000D01*
X255000Y40000D01*
X255000Y26000D01*
X254000Y275000D02*
X226000Y275000D01*
X226000Y289000D01*
X254000Y289000D01*
X254000Y275000D01*
X254000Y307000D02*
X226000Y307000D01*
X226000Y321000D01*
X254000Y321000D01*
X254000Y307000D01*
X254000Y259000D02*
X226000Y259000D01*
X226000Y273000D01*
X254000Y273000D01*
X254000Y259000D01*
X47000Y252000D02*
X19000Y252000D01*
X47000Y252000D02*
X47000Y238000D01*
X19000Y238000D01*
X19000Y252000D01*
X227000Y60000D02*
X255000Y60000D01*
X227000Y60000D02*
X227000Y74000D01*
X255000Y74000D01*
X255000Y60000D01*
X255000Y43000D02*
X227000Y43000D01*
X227000Y57000D01*
X255000Y57000D01*
X255000Y43000D01*
X254000Y291000D02*
X226000Y291000D01*
X226000Y305000D01*
X254000Y305000D01*
X254000Y291000D01*
X134000Y53000D02*
X134000Y19000D01*
X106000Y19000D02*
X106000Y53000D01*
X114000Y63000D02*
X126000Y63000D01*
X126000Y9000D02*
X114000Y9000D01*
D16*
X429800Y16085D02*
X429800Y41085D01*
X442800Y41085D01*
X442800Y16085D01*
X429800Y16085D01*
D10*
X459300Y21200D02*
X459300Y41200D01*
X469300Y41200D01*
X469300Y21200D01*
X459300Y21200D01*
X445993Y21200D02*
X445993Y41200D01*
X455993Y41200D01*
X455993Y21200D01*
X445993Y21200D01*
D19*
X440740Y59388D02*
X431342Y59388D01*
X410260Y59388D02*
X410260Y69294D01*
X410260Y59388D02*
X419658Y59388D01*
X440740Y59388D02*
X440740Y63452D01*
X440740Y69294D01*
X437946Y67516D02*
X437910Y67413D01*
X437878Y67309D01*
X437849Y67204D01*
X437824Y67098D01*
X437803Y66991D01*
X437786Y66883D01*
X437772Y66775D01*
X437763Y66666D01*
X437758Y66557D01*
X437756Y66448D01*
X437759Y66339D01*
X437765Y66230D01*
X437775Y66122D01*
X437790Y66014D01*
X437808Y65906D01*
X437830Y65799D01*
X437856Y65694D01*
X437885Y65589D01*
X437919Y65485D01*
X437956Y65382D01*
X437997Y65281D01*
X438042Y65182D01*
X438090Y65084D01*
X438142Y64988D01*
X438197Y64894D01*
X438255Y64802D01*
X438317Y64712D01*
X438382Y64625D01*
X438450Y64539D01*
X438521Y64457D01*
X438595Y64377D01*
X438672Y64300D01*
X438752Y64225D01*
X438834Y64154D01*
X438919Y64085D01*
X439006Y64020D01*
X439096Y63958D01*
X439188Y63899D01*
X439282Y63843D01*
X439377Y63791D01*
X439475Y63743D01*
X439574Y63698D01*
X439675Y63657D01*
X439778Y63619D01*
X439881Y63585D01*
X439986Y63555D01*
X440092Y63528D01*
X440198Y63506D01*
X440306Y63487D01*
X440414Y63473D01*
X440522Y63462D01*
X440631Y63455D01*
X440740Y63452D01*
D10*
X447000Y60000D02*
X447000Y80000D01*
X457000Y80000D01*
X457000Y60000D01*
X447000Y60000D01*
D16*
X394500Y57500D02*
X394500Y82500D01*
X407500Y82500D01*
X407500Y57500D01*
X394500Y57500D01*
D10*
X380920Y57885D02*
X380920Y77885D01*
X390920Y77885D01*
X390920Y57885D01*
X380920Y57885D01*
X394000Y50000D02*
X394000Y30000D01*
X394000Y50000D02*
X404000Y50000D01*
X404000Y30000D01*
X394000Y30000D01*
X380643Y29885D02*
X380643Y49885D01*
X390643Y49885D01*
X390643Y29885D01*
X380643Y29885D01*
X539800Y37200D02*
X539800Y11800D01*
X489000Y11800D01*
X489000Y37200D01*
X539800Y37200D01*
X348500Y51800D02*
X348500Y55800D01*
X373500Y55800D02*
X373500Y51800D01*
X315500Y51800D02*
X315500Y55800D01*
X340500Y55800D02*
X340500Y51800D01*
D17*
X182600Y308000D02*
X179800Y308000D01*
X181200Y310200D02*
X182600Y308000D01*
X181200Y310200D02*
X179800Y308000D01*
X179800Y310200D02*
X182600Y310200D01*
D16*
X176200Y319000D02*
X176200Y299000D01*
X176200Y319000D02*
X186200Y319000D01*
X186200Y299000D01*
X176200Y299000D01*
D10*
X176200Y291000D02*
X176200Y271000D01*
X176200Y291000D02*
X186200Y291000D01*
X186200Y271000D01*
X176200Y271000D01*
D17*
X164600Y308000D02*
X161800Y308000D01*
X163200Y310200D02*
X164600Y308000D01*
X163200Y310200D02*
X161800Y308000D01*
X161800Y310200D02*
X164600Y310200D01*
D16*
X158200Y319000D02*
X158200Y299000D01*
X158200Y319000D02*
X168200Y319000D01*
X168200Y299000D01*
X158200Y299000D01*
D10*
X158200Y291000D02*
X158200Y271000D01*
X158200Y291000D02*
X168200Y291000D01*
X168200Y271000D01*
X158200Y271000D01*
D17*
X146600Y308000D02*
X143800Y308000D01*
X145200Y310200D02*
X146600Y308000D01*
X145200Y310200D02*
X143800Y308000D01*
X143800Y310200D02*
X146600Y310200D01*
D16*
X140200Y319000D02*
X140200Y299000D01*
X140200Y319000D02*
X150200Y319000D01*
X150200Y299000D01*
X140200Y299000D01*
D10*
X140200Y291000D02*
X140200Y271000D01*
X140200Y291000D02*
X150200Y291000D01*
X150200Y271000D01*
X140200Y271000D01*
D18*
X187872Y129960D03*
D19*
X184000Y134000D02*
X192000Y134000D01*
X184000Y134000D02*
X184000Y142000D01*
X184000Y206000D02*
X192000Y206000D01*
X184000Y206000D02*
X184000Y198000D01*
X248000Y206000D02*
X256000Y206000D01*
X256000Y200000D01*
X256000Y199628D01*
X256000Y134000D02*
X248000Y134000D01*
X256000Y134000D02*
X256000Y142000D01*
X256000Y198000D02*
X256000Y199628D01*
D10*
X189315Y124308D02*
X189315Y119355D01*
X189317Y119270D01*
X189323Y119184D01*
X189332Y119099D01*
X189346Y119015D01*
X189363Y118931D01*
X189384Y118848D01*
X189408Y118766D01*
X189436Y118686D01*
X189468Y118606D01*
X189504Y118528D01*
X189542Y118452D01*
X189585Y118378D01*
X189630Y118306D01*
X189679Y118235D01*
X189731Y118167D01*
X189785Y118102D01*
X189843Y118039D01*
X189904Y117978D01*
X189967Y117920D01*
X190032Y117866D01*
X190100Y117814D01*
X190171Y117765D01*
X190243Y117720D01*
X190317Y117677D01*
X190393Y117639D01*
X190471Y117603D01*
X190551Y117571D01*
X190631Y117543D01*
X190713Y117519D01*
X190796Y117498D01*
X190880Y117481D01*
X190964Y117467D01*
X191049Y117458D01*
X191135Y117452D01*
X191220Y117450D01*
X191305Y117452D01*
X191391Y117458D01*
X191476Y117467D01*
X191560Y117481D01*
X191644Y117498D01*
X191727Y117519D01*
X191809Y117543D01*
X191889Y117571D01*
X191969Y117603D01*
X192047Y117639D01*
X192123Y117677D01*
X192197Y117720D01*
X192269Y117765D01*
X192340Y117814D01*
X192408Y117866D01*
X192473Y117920D01*
X192536Y117978D01*
X192597Y118039D01*
X192655Y118102D01*
X192709Y118167D01*
X192761Y118235D01*
X192810Y118306D01*
X192855Y118378D01*
X192898Y118452D01*
X192936Y118528D01*
X192972Y118606D01*
X193004Y118686D01*
X193032Y118766D01*
X193056Y118848D01*
X193077Y118931D01*
X193094Y119015D01*
X193108Y119099D01*
X193117Y119184D01*
X193123Y119270D01*
X193125Y119355D01*
X193125Y124308D01*
X196875Y124308D02*
X196875Y123546D01*
X196875Y124308D02*
X200685Y124308D01*
X198780Y117450D01*
X163500Y163000D02*
X143500Y163000D01*
X143500Y173000D01*
X163500Y173000D01*
X163500Y163000D01*
D16*
X170115Y181200D02*
X145115Y181200D01*
X145115Y194200D01*
X170115Y194200D01*
X170115Y181200D01*
X242200Y103600D02*
X242200Y78600D01*
X242200Y103600D02*
X255200Y103600D01*
X255200Y78600D01*
X242200Y78600D01*
D10*
X101000Y164000D02*
X81000Y164000D01*
X81000Y174000D01*
X101000Y174000D01*
X101000Y164000D01*
X101000Y176000D02*
X81000Y176000D01*
X81000Y186000D01*
X101000Y186000D01*
X101000Y176000D01*
X455000Y245000D02*
X455000Y95000D01*
X456500Y249000D02*
X456502Y249099D01*
X456508Y249199D01*
X456518Y249298D01*
X456532Y249396D01*
X456549Y249494D01*
X456571Y249591D01*
X456596Y249687D01*
X456625Y249782D01*
X456658Y249876D01*
X456695Y249968D01*
X456735Y250059D01*
X456779Y250148D01*
X456827Y250236D01*
X456878Y250321D01*
X456932Y250404D01*
X456989Y250486D01*
X457050Y250564D01*
X457114Y250641D01*
X457180Y250714D01*
X457250Y250785D01*
X457322Y250853D01*
X457397Y250919D01*
X457475Y250981D01*
X457555Y251040D01*
X457637Y251096D01*
X457721Y251148D01*
X457808Y251197D01*
X457896Y251243D01*
X457986Y251285D01*
X458078Y251324D01*
X458171Y251359D01*
X458265Y251390D01*
X458361Y251417D01*
X458458Y251440D01*
X458555Y251460D01*
X458653Y251476D01*
X458752Y251488D01*
X458851Y251496D01*
X458950Y251500D01*
X459050Y251500D01*
X459149Y251496D01*
X459248Y251488D01*
X459347Y251476D01*
X459445Y251460D01*
X459542Y251440D01*
X459639Y251417D01*
X459735Y251390D01*
X459829Y251359D01*
X459922Y251324D01*
X460014Y251285D01*
X460104Y251243D01*
X460192Y251197D01*
X460279Y251148D01*
X460363Y251096D01*
X460445Y251040D01*
X460525Y250981D01*
X460603Y250919D01*
X460678Y250853D01*
X460750Y250785D01*
X460820Y250714D01*
X460886Y250641D01*
X460950Y250564D01*
X461011Y250486D01*
X461068Y250404D01*
X461122Y250321D01*
X461173Y250236D01*
X461221Y250148D01*
X461265Y250059D01*
X461305Y249968D01*
X461342Y249876D01*
X461375Y249782D01*
X461404Y249687D01*
X461429Y249591D01*
X461451Y249494D01*
X461468Y249396D01*
X461482Y249298D01*
X461492Y249199D01*
X461498Y249099D01*
X461500Y249000D01*
X461498Y248901D01*
X461492Y248801D01*
X461482Y248702D01*
X461468Y248604D01*
X461451Y248506D01*
X461429Y248409D01*
X461404Y248313D01*
X461375Y248218D01*
X461342Y248124D01*
X461305Y248032D01*
X461265Y247941D01*
X461221Y247852D01*
X461173Y247764D01*
X461122Y247679D01*
X461068Y247596D01*
X461011Y247514D01*
X460950Y247436D01*
X460886Y247359D01*
X460820Y247286D01*
X460750Y247215D01*
X460678Y247147D01*
X460603Y247081D01*
X460525Y247019D01*
X460445Y246960D01*
X460363Y246904D01*
X460279Y246852D01*
X460192Y246803D01*
X460104Y246757D01*
X460014Y246715D01*
X459922Y246676D01*
X459829Y246641D01*
X459735Y246610D01*
X459639Y246583D01*
X459542Y246560D01*
X459445Y246540D01*
X459347Y246524D01*
X459248Y246512D01*
X459149Y246504D01*
X459050Y246500D01*
X458950Y246500D01*
X458851Y246504D01*
X458752Y246512D01*
X458653Y246524D01*
X458555Y246540D01*
X458458Y246560D01*
X458361Y246583D01*
X458265Y246610D01*
X458171Y246641D01*
X458078Y246676D01*
X457986Y246715D01*
X457896Y246757D01*
X457808Y246803D01*
X457721Y246852D01*
X457637Y246904D01*
X457555Y246960D01*
X457475Y247019D01*
X457397Y247081D01*
X457322Y247147D01*
X457250Y247215D01*
X457180Y247286D01*
X457114Y247359D01*
X457050Y247436D01*
X456989Y247514D01*
X456932Y247596D01*
X456878Y247679D01*
X456827Y247764D01*
X456779Y247852D01*
X456735Y247941D01*
X456695Y248032D01*
X456658Y248124D01*
X456625Y248218D01*
X456596Y248313D01*
X456571Y248409D01*
X456549Y248506D01*
X456532Y248604D01*
X456518Y248702D01*
X456508Y248801D01*
X456502Y248901D01*
X456500Y249000D01*
X455000Y245000D02*
X305000Y245000D01*
X305000Y95000D01*
X455000Y95000D01*
X166900Y123700D02*
X166900Y145700D01*
X134900Y145700D01*
X134900Y123700D01*
X166900Y123700D01*
X168900Y123700D02*
X168902Y123763D01*
X168908Y123825D01*
X168918Y123887D01*
X168931Y123949D01*
X168949Y124009D01*
X168970Y124068D01*
X168995Y124126D01*
X169024Y124182D01*
X169056Y124236D01*
X169091Y124288D01*
X169129Y124337D01*
X169171Y124385D01*
X169215Y124429D01*
X169263Y124471D01*
X169312Y124509D01*
X169364Y124544D01*
X169418Y124576D01*
X169474Y124605D01*
X169532Y124630D01*
X169591Y124651D01*
X169651Y124669D01*
X169713Y124682D01*
X169775Y124692D01*
X169837Y124698D01*
X169900Y124700D01*
X169963Y124698D01*
X170025Y124692D01*
X170087Y124682D01*
X170149Y124669D01*
X170209Y124651D01*
X170268Y124630D01*
X170326Y124605D01*
X170382Y124576D01*
X170436Y124544D01*
X170488Y124509D01*
X170537Y124471D01*
X170585Y124429D01*
X170629Y124385D01*
X170671Y124337D01*
X170709Y124288D01*
X170744Y124236D01*
X170776Y124182D01*
X170805Y124126D01*
X170830Y124068D01*
X170851Y124009D01*
X170869Y123949D01*
X170882Y123887D01*
X170892Y123825D01*
X170898Y123763D01*
X170900Y123700D01*
X170898Y123637D01*
X170892Y123575D01*
X170882Y123513D01*
X170869Y123451D01*
X170851Y123391D01*
X170830Y123332D01*
X170805Y123274D01*
X170776Y123218D01*
X170744Y123164D01*
X170709Y123112D01*
X170671Y123063D01*
X170629Y123015D01*
X170585Y122971D01*
X170537Y122929D01*
X170488Y122891D01*
X170436Y122856D01*
X170382Y122824D01*
X170326Y122795D01*
X170268Y122770D01*
X170209Y122749D01*
X170149Y122731D01*
X170087Y122718D01*
X170025Y122708D01*
X169963Y122702D01*
X169900Y122700D01*
X169837Y122702D01*
X169775Y122708D01*
X169713Y122718D01*
X169651Y122731D01*
X169591Y122749D01*
X169532Y122770D01*
X169474Y122795D01*
X169418Y122824D01*
X169364Y122856D01*
X169312Y122891D01*
X169263Y122929D01*
X169215Y122971D01*
X169171Y123015D01*
X169129Y123063D01*
X169091Y123112D01*
X169056Y123164D01*
X169024Y123218D01*
X168995Y123274D01*
X168970Y123332D01*
X168949Y123391D01*
X168931Y123451D01*
X168918Y123513D01*
X168908Y123575D01*
X168902Y123637D01*
X168900Y123700D01*
X134735Y150840D02*
X134735Y155793D01*
X134735Y150840D02*
X134737Y150755D01*
X134743Y150669D01*
X134752Y150584D01*
X134766Y150500D01*
X134783Y150416D01*
X134804Y150333D01*
X134828Y150251D01*
X134856Y150171D01*
X134888Y150091D01*
X134924Y150013D01*
X134962Y149937D01*
X135005Y149863D01*
X135050Y149791D01*
X135099Y149720D01*
X135151Y149652D01*
X135205Y149587D01*
X135263Y149524D01*
X135324Y149463D01*
X135387Y149405D01*
X135452Y149351D01*
X135520Y149299D01*
X135591Y149250D01*
X135663Y149205D01*
X135737Y149162D01*
X135813Y149124D01*
X135891Y149088D01*
X135971Y149056D01*
X136051Y149028D01*
X136133Y149004D01*
X136216Y148983D01*
X136300Y148966D01*
X136384Y148952D01*
X136469Y148943D01*
X136555Y148937D01*
X136640Y148935D01*
X136725Y148937D01*
X136811Y148943D01*
X136896Y148952D01*
X136980Y148966D01*
X137064Y148983D01*
X137147Y149004D01*
X137229Y149028D01*
X137309Y149056D01*
X137389Y149088D01*
X137467Y149124D01*
X137543Y149162D01*
X137617Y149205D01*
X137689Y149250D01*
X137760Y149299D01*
X137828Y149351D01*
X137893Y149405D01*
X137956Y149463D01*
X138017Y149524D01*
X138075Y149587D01*
X138129Y149652D01*
X138181Y149720D01*
X138230Y149791D01*
X138275Y149863D01*
X138318Y149937D01*
X138356Y150013D01*
X138392Y150091D01*
X138424Y150171D01*
X138452Y150251D01*
X138476Y150333D01*
X138497Y150416D01*
X138514Y150500D01*
X138528Y150584D01*
X138537Y150669D01*
X138543Y150755D01*
X138545Y150840D01*
X138545Y155793D01*
X142294Y152745D02*
X144580Y152745D01*
X144657Y152743D01*
X144734Y152737D01*
X144811Y152727D01*
X144887Y152714D01*
X144962Y152696D01*
X145036Y152675D01*
X145109Y152650D01*
X145181Y152621D01*
X145251Y152589D01*
X145320Y152554D01*
X145386Y152514D01*
X145451Y152472D01*
X145513Y152426D01*
X145573Y152377D01*
X145630Y152326D01*
X145685Y152271D01*
X145736Y152214D01*
X145785Y152154D01*
X145831Y152092D01*
X145873Y152027D01*
X145913Y151961D01*
X145948Y151892D01*
X145980Y151822D01*
X146009Y151750D01*
X146034Y151677D01*
X146055Y151603D01*
X146073Y151528D01*
X146086Y151452D01*
X146096Y151375D01*
X146102Y151298D01*
X146104Y151221D01*
X146104Y150840D01*
X146102Y150755D01*
X146096Y150669D01*
X146087Y150584D01*
X146073Y150500D01*
X146056Y150416D01*
X146035Y150333D01*
X146011Y150251D01*
X145983Y150171D01*
X145951Y150091D01*
X145915Y150013D01*
X145877Y149937D01*
X145834Y149863D01*
X145789Y149791D01*
X145740Y149720D01*
X145688Y149652D01*
X145634Y149587D01*
X145576Y149524D01*
X145515Y149463D01*
X145452Y149405D01*
X145387Y149351D01*
X145319Y149299D01*
X145248Y149250D01*
X145176Y149205D01*
X145102Y149162D01*
X145026Y149124D01*
X144948Y149088D01*
X144868Y149056D01*
X144788Y149028D01*
X144706Y149004D01*
X144623Y148983D01*
X144539Y148966D01*
X144455Y148952D01*
X144370Y148943D01*
X144284Y148937D01*
X144199Y148935D01*
X144114Y148937D01*
X144028Y148943D01*
X143943Y148952D01*
X143859Y148966D01*
X143775Y148983D01*
X143692Y149004D01*
X143610Y149028D01*
X143530Y149056D01*
X143450Y149088D01*
X143372Y149124D01*
X143296Y149162D01*
X143222Y149205D01*
X143150Y149250D01*
X143079Y149299D01*
X143011Y149351D01*
X142946Y149405D01*
X142883Y149463D01*
X142822Y149524D01*
X142764Y149587D01*
X142710Y149652D01*
X142658Y149720D01*
X142609Y149791D01*
X142564Y149863D01*
X142521Y149937D01*
X142483Y150013D01*
X142447Y150091D01*
X142415Y150171D01*
X142387Y150251D01*
X142363Y150333D01*
X142342Y150416D01*
X142325Y150500D01*
X142311Y150584D01*
X142302Y150669D01*
X142296Y150755D01*
X142294Y150840D01*
X142294Y152745D01*
X142296Y152854D01*
X142302Y152962D01*
X142311Y153071D01*
X142325Y153179D01*
X142342Y153286D01*
X142364Y153393D01*
X142389Y153499D01*
X142417Y153604D01*
X142450Y153708D01*
X142486Y153810D01*
X142526Y153911D01*
X142569Y154011D01*
X142616Y154109D01*
X142667Y154206D01*
X142721Y154300D01*
X142778Y154393D01*
X142838Y154483D01*
X142902Y154572D01*
X142969Y154658D01*
X143038Y154741D01*
X143111Y154822D01*
X143187Y154900D01*
X143265Y154976D01*
X143346Y155049D01*
X143429Y155118D01*
X143515Y155185D01*
X143604Y155249D01*
X143694Y155309D01*
X143787Y155366D01*
X143881Y155420D01*
X143978Y155471D01*
X144076Y155518D01*
X144176Y155561D01*
X144277Y155601D01*
X144379Y155637D01*
X144483Y155670D01*
X144588Y155698D01*
X144694Y155723D01*
X144801Y155745D01*
X144908Y155762D01*
X145016Y155776D01*
X145125Y155785D01*
X145233Y155791D01*
X145342Y155793D01*
D16*
X226500Y103500D02*
X226500Y78500D01*
X226500Y103500D02*
X239500Y103500D01*
X239500Y78500D01*
X226500Y78500D01*
D10*
X161000Y109000D02*
X141000Y109000D01*
X141000Y119000D01*
X161000Y119000D01*
X161000Y109000D01*
X56000Y53000D02*
X56000Y19000D01*
X84000Y19000D02*
X84000Y53000D01*
X76000Y9000D02*
X64000Y9000D01*
X64000Y63000D02*
X76000Y63000D01*
D16*
X114115Y236000D02*
X145115Y236000D01*
X114115Y236000D02*
X114115Y254000D01*
X145115Y254000D01*
X145115Y236000D01*
D20*
X395522Y317256D02*
X395524Y317311D01*
X395530Y317366D01*
X395540Y317420D01*
X395554Y317473D01*
X395571Y317525D01*
X395592Y317576D01*
X395617Y317625D01*
X395646Y317672D01*
X395677Y317717D01*
X395712Y317760D01*
X395750Y317800D01*
X395791Y317837D01*
X395834Y317871D01*
X395879Y317902D01*
X395927Y317929D01*
X395977Y317953D01*
X396028Y317974D01*
X396080Y317990D01*
X396134Y318003D01*
X396188Y318012D01*
X396243Y318017D01*
X396298Y318018D01*
X396353Y318015D01*
X396407Y318008D01*
X396461Y317997D01*
X396514Y317982D01*
X396566Y317964D01*
X396616Y317942D01*
X396665Y317916D01*
X396712Y317887D01*
X396756Y317854D01*
X396798Y317819D01*
X396837Y317780D01*
X396874Y317739D01*
X396907Y317695D01*
X396937Y317649D01*
X396964Y317601D01*
X396987Y317551D01*
X397006Y317499D01*
X397022Y317447D01*
X397034Y317393D01*
X397042Y317338D01*
X397046Y317284D01*
X397046Y317228D01*
X397042Y317174D01*
X397034Y317119D01*
X397022Y317065D01*
X397006Y317013D01*
X396987Y316961D01*
X396964Y316911D01*
X396937Y316863D01*
X396907Y316817D01*
X396874Y316773D01*
X396837Y316732D01*
X396798Y316693D01*
X396756Y316658D01*
X396712Y316625D01*
X396665Y316596D01*
X396616Y316570D01*
X396566Y316548D01*
X396514Y316530D01*
X396461Y316515D01*
X396407Y316504D01*
X396353Y316497D01*
X396298Y316494D01*
X396243Y316495D01*
X396188Y316500D01*
X396134Y316509D01*
X396080Y316522D01*
X396028Y316538D01*
X395977Y316559D01*
X395927Y316583D01*
X395879Y316610D01*
X395834Y316641D01*
X395791Y316675D01*
X395750Y316712D01*
X395712Y316752D01*
X395677Y316795D01*
X395646Y316840D01*
X395617Y316887D01*
X395592Y316936D01*
X395571Y316987D01*
X395554Y317039D01*
X395540Y317092D01*
X395530Y317146D01*
X395524Y317201D01*
X395522Y317256D01*
D21*
X430320Y314208D02*
X430320Y288046D01*
X389934Y288046D01*
X389934Y309382D01*
X394760Y314208D02*
X430320Y314208D01*
X394760Y314208D02*
X389934Y309382D01*
D10*
X432911Y306777D02*
X432911Y313635D01*
X435197Y309825D01*
X437483Y313635D01*
X437483Y306777D01*
X441339Y312111D02*
X443244Y313635D01*
X443244Y306777D01*
X441339Y306777D02*
X445149Y306777D01*
D20*
X455522Y317256D02*
X455524Y317311D01*
X455530Y317366D01*
X455540Y317420D01*
X455554Y317473D01*
X455571Y317525D01*
X455592Y317576D01*
X455617Y317625D01*
X455646Y317672D01*
X455677Y317717D01*
X455712Y317760D01*
X455750Y317800D01*
X455791Y317837D01*
X455834Y317871D01*
X455879Y317902D01*
X455927Y317929D01*
X455977Y317953D01*
X456028Y317974D01*
X456080Y317990D01*
X456134Y318003D01*
X456188Y318012D01*
X456243Y318017D01*
X456298Y318018D01*
X456353Y318015D01*
X456407Y318008D01*
X456461Y317997D01*
X456514Y317982D01*
X456566Y317964D01*
X456616Y317942D01*
X456665Y317916D01*
X456712Y317887D01*
X456756Y317854D01*
X456798Y317819D01*
X456837Y317780D01*
X456874Y317739D01*
X456907Y317695D01*
X456937Y317649D01*
X456964Y317601D01*
X456987Y317551D01*
X457006Y317499D01*
X457022Y317447D01*
X457034Y317393D01*
X457042Y317338D01*
X457046Y317284D01*
X457046Y317228D01*
X457042Y317174D01*
X457034Y317119D01*
X457022Y317065D01*
X457006Y317013D01*
X456987Y316961D01*
X456964Y316911D01*
X456937Y316863D01*
X456907Y316817D01*
X456874Y316773D01*
X456837Y316732D01*
X456798Y316693D01*
X456756Y316658D01*
X456712Y316625D01*
X456665Y316596D01*
X456616Y316570D01*
X456566Y316548D01*
X456514Y316530D01*
X456461Y316515D01*
X456407Y316504D01*
X456353Y316497D01*
X456298Y316494D01*
X456243Y316495D01*
X456188Y316500D01*
X456134Y316509D01*
X456080Y316522D01*
X456028Y316538D01*
X455977Y316559D01*
X455927Y316583D01*
X455879Y316610D01*
X455834Y316641D01*
X455791Y316675D01*
X455750Y316712D01*
X455712Y316752D01*
X455677Y316795D01*
X455646Y316840D01*
X455617Y316887D01*
X455592Y316936D01*
X455571Y316987D01*
X455554Y317039D01*
X455540Y317092D01*
X455530Y317146D01*
X455524Y317201D01*
X455522Y317256D01*
D21*
X490320Y314208D02*
X490320Y288046D01*
X449934Y288046D01*
X449934Y309382D01*
X454760Y314208D02*
X490320Y314208D01*
X454760Y314208D02*
X449934Y309382D01*
D10*
X492911Y306777D02*
X492911Y313635D01*
X495197Y309825D01*
X497483Y313635D01*
X497483Y306777D01*
X503434Y313636D02*
X503516Y313634D01*
X503597Y313628D01*
X503678Y313619D01*
X503759Y313605D01*
X503838Y313588D01*
X503917Y313567D01*
X503995Y313542D01*
X504071Y313513D01*
X504146Y313481D01*
X504220Y313445D01*
X504292Y313406D01*
X504361Y313364D01*
X504429Y313318D01*
X504494Y313269D01*
X504557Y313217D01*
X504617Y313162D01*
X504675Y313104D01*
X504730Y313044D01*
X504782Y312981D01*
X504831Y312916D01*
X504877Y312848D01*
X504919Y312779D01*
X504958Y312707D01*
X504994Y312633D01*
X505026Y312558D01*
X505055Y312482D01*
X505080Y312404D01*
X505101Y312325D01*
X505118Y312246D01*
X505132Y312165D01*
X505141Y312084D01*
X505147Y312003D01*
X505149Y311921D01*
X503434Y313635D02*
X503342Y313633D01*
X503250Y313627D01*
X503158Y313618D01*
X503066Y313604D01*
X502976Y313587D01*
X502886Y313566D01*
X502797Y313541D01*
X502709Y313512D01*
X502622Y313480D01*
X502537Y313444D01*
X502454Y313405D01*
X502372Y313362D01*
X502292Y313316D01*
X502214Y313266D01*
X502138Y313214D01*
X502065Y313158D01*
X501994Y313099D01*
X501925Y313037D01*
X501859Y312972D01*
X501796Y312905D01*
X501736Y312835D01*
X501678Y312763D01*
X501624Y312688D01*
X501573Y312611D01*
X501525Y312532D01*
X501481Y312451D01*
X501440Y312368D01*
X501402Y312284D01*
X501368Y312198D01*
X501338Y312111D01*
X504577Y310587D02*
X504636Y310646D01*
X504692Y310707D01*
X504745Y310770D01*
X504796Y310836D01*
X504843Y310904D01*
X504887Y310974D01*
X504928Y311046D01*
X504966Y311120D01*
X505000Y311195D01*
X505031Y311272D01*
X505058Y311350D01*
X505082Y311430D01*
X505103Y311510D01*
X505119Y311591D01*
X505132Y311673D01*
X505142Y311755D01*
X505147Y311838D01*
X505149Y311921D01*
X504577Y310587D02*
X501339Y306777D01*
X505149Y306777D01*
D18*
X542190Y155540D03*
D14*
X539690Y150500D02*
X546500Y150500D01*
X546500Y69500D01*
X539690Y69500D01*
X492310Y150500D02*
X485500Y150500D01*
X485500Y69500D01*
X492310Y69500D01*
D10*
X550635Y146390D02*
X550635Y151343D01*
X550635Y146390D02*
X550637Y146305D01*
X550643Y146219D01*
X550652Y146134D01*
X550666Y146050D01*
X550683Y145966D01*
X550704Y145883D01*
X550728Y145801D01*
X550756Y145721D01*
X550788Y145641D01*
X550824Y145563D01*
X550862Y145487D01*
X550905Y145413D01*
X550950Y145341D01*
X550999Y145270D01*
X551051Y145202D01*
X551105Y145137D01*
X551163Y145074D01*
X551224Y145013D01*
X551287Y144955D01*
X551352Y144901D01*
X551420Y144849D01*
X551491Y144800D01*
X551563Y144755D01*
X551637Y144712D01*
X551713Y144674D01*
X551791Y144638D01*
X551871Y144606D01*
X551951Y144578D01*
X552033Y144554D01*
X552116Y144533D01*
X552200Y144516D01*
X552284Y144502D01*
X552369Y144493D01*
X552455Y144487D01*
X552540Y144485D01*
X552625Y144487D01*
X552711Y144493D01*
X552796Y144502D01*
X552880Y144516D01*
X552964Y144533D01*
X553047Y144554D01*
X553129Y144578D01*
X553209Y144606D01*
X553289Y144638D01*
X553367Y144674D01*
X553443Y144712D01*
X553517Y144755D01*
X553589Y144800D01*
X553660Y144849D01*
X553728Y144901D01*
X553793Y144955D01*
X553856Y145013D01*
X553917Y145074D01*
X553975Y145137D01*
X554029Y145202D01*
X554081Y145270D01*
X554130Y145341D01*
X554175Y145413D01*
X554218Y145487D01*
X554256Y145563D01*
X554292Y145641D01*
X554324Y145721D01*
X554352Y145801D01*
X554376Y145883D01*
X554397Y145966D01*
X554414Y146050D01*
X554428Y146134D01*
X554437Y146219D01*
X554443Y146305D01*
X554445Y146390D01*
X554445Y151343D01*
X559718Y147533D02*
X562004Y147533D01*
X559718Y147533D02*
X559641Y147535D01*
X559564Y147541D01*
X559487Y147551D01*
X559411Y147564D01*
X559336Y147582D01*
X559262Y147603D01*
X559189Y147628D01*
X559117Y147657D01*
X559047Y147689D01*
X558978Y147724D01*
X558912Y147764D01*
X558847Y147806D01*
X558785Y147852D01*
X558725Y147901D01*
X558668Y147952D01*
X558613Y148007D01*
X558562Y148064D01*
X558513Y148124D01*
X558467Y148186D01*
X558425Y148251D01*
X558385Y148317D01*
X558350Y148386D01*
X558318Y148456D01*
X558289Y148528D01*
X558264Y148601D01*
X558243Y148675D01*
X558225Y148750D01*
X558212Y148826D01*
X558202Y148903D01*
X558196Y148980D01*
X558194Y149057D01*
X558194Y149438D01*
X558196Y149523D01*
X558202Y149609D01*
X558211Y149694D01*
X558225Y149778D01*
X558242Y149862D01*
X558263Y149945D01*
X558287Y150027D01*
X558315Y150107D01*
X558347Y150187D01*
X558383Y150265D01*
X558421Y150341D01*
X558464Y150415D01*
X558509Y150487D01*
X558558Y150558D01*
X558610Y150626D01*
X558664Y150691D01*
X558722Y150754D01*
X558783Y150815D01*
X558846Y150873D01*
X558911Y150927D01*
X558979Y150979D01*
X559050Y151028D01*
X559122Y151073D01*
X559196Y151116D01*
X559272Y151154D01*
X559350Y151190D01*
X559430Y151222D01*
X559510Y151250D01*
X559592Y151274D01*
X559675Y151295D01*
X559759Y151312D01*
X559843Y151326D01*
X559928Y151335D01*
X560014Y151341D01*
X560099Y151343D01*
X560184Y151341D01*
X560270Y151335D01*
X560355Y151326D01*
X560439Y151312D01*
X560523Y151295D01*
X560606Y151274D01*
X560688Y151250D01*
X560768Y151222D01*
X560848Y151190D01*
X560926Y151154D01*
X561002Y151116D01*
X561076Y151073D01*
X561148Y151028D01*
X561219Y150979D01*
X561287Y150927D01*
X561352Y150873D01*
X561415Y150815D01*
X561476Y150754D01*
X561534Y150691D01*
X561588Y150626D01*
X561640Y150558D01*
X561689Y150487D01*
X561734Y150415D01*
X561777Y150341D01*
X561815Y150265D01*
X561851Y150187D01*
X561883Y150107D01*
X561911Y150027D01*
X561935Y149945D01*
X561956Y149862D01*
X561973Y149778D01*
X561987Y149694D01*
X561996Y149609D01*
X562002Y149523D01*
X562004Y149438D01*
X562004Y147533D01*
X562002Y147424D01*
X561996Y147316D01*
X561987Y147207D01*
X561973Y147099D01*
X561956Y146992D01*
X561934Y146885D01*
X561909Y146779D01*
X561881Y146674D01*
X561848Y146570D01*
X561812Y146468D01*
X561772Y146367D01*
X561729Y146267D01*
X561682Y146169D01*
X561631Y146072D01*
X561577Y145978D01*
X561520Y145885D01*
X561460Y145795D01*
X561396Y145706D01*
X561329Y145620D01*
X561260Y145537D01*
X561187Y145456D01*
X561111Y145378D01*
X561033Y145302D01*
X560952Y145229D01*
X560869Y145160D01*
X560783Y145093D01*
X560694Y145029D01*
X560604Y144969D01*
X560511Y144912D01*
X560417Y144858D01*
X560320Y144807D01*
X560222Y144760D01*
X560122Y144717D01*
X560021Y144677D01*
X559919Y144641D01*
X559815Y144608D01*
X559710Y144580D01*
X559604Y144555D01*
X559497Y144533D01*
X559390Y144516D01*
X559282Y144502D01*
X559173Y144493D01*
X559065Y144487D01*
X558956Y144485D01*
D17*
X306400Y42000D02*
X303600Y42000D01*
X305000Y39800D01*
X306400Y42000D01*
X306400Y39800D02*
X303600Y39800D01*
D16*
X310000Y31000D02*
X310000Y51000D01*
X310000Y31000D02*
X300000Y31000D01*
X300000Y51000D01*
X310000Y51000D01*
D10*
X310000Y54000D02*
X310000Y74000D01*
X310000Y54000D02*
X300000Y54000D01*
X300000Y74000D01*
X310000Y74000D01*
D17*
X293400Y42000D02*
X290600Y42000D01*
X292000Y39800D01*
X293400Y42000D01*
X293400Y39800D02*
X290600Y39800D01*
D16*
X297000Y31000D02*
X297000Y51000D01*
X297000Y31000D02*
X287000Y31000D01*
X287000Y51000D01*
X297000Y51000D01*
D10*
X297000Y54000D02*
X297000Y74000D01*
X297000Y54000D02*
X287000Y54000D01*
X287000Y74000D01*
X297000Y74000D01*
D17*
X280400Y42000D02*
X277600Y42000D01*
X279000Y39800D01*
X280400Y42000D01*
X280400Y39800D02*
X277600Y39800D01*
D16*
X284000Y31000D02*
X284000Y51000D01*
X284000Y31000D02*
X274000Y31000D01*
X274000Y51000D01*
X284000Y51000D01*
D10*
X284000Y54000D02*
X284000Y74000D01*
X284000Y54000D02*
X274000Y54000D01*
X274000Y74000D01*
X284000Y74000D01*
D17*
X267400Y42000D02*
X264600Y42000D01*
X266000Y39800D01*
X267400Y42000D01*
X267400Y39800D02*
X264600Y39800D01*
D16*
X271000Y31000D02*
X271000Y51000D01*
X271000Y31000D02*
X261000Y31000D01*
X261000Y51000D01*
X271000Y51000D01*
D10*
X271000Y54000D02*
X271000Y74000D01*
X271000Y54000D02*
X261000Y54000D01*
X261000Y74000D01*
X271000Y74000D01*
D16*
X263100Y306200D02*
X294100Y306200D01*
X263100Y306200D02*
X263100Y324200D01*
X294100Y324200D01*
X294100Y306200D01*
X288300Y276100D02*
X263300Y276100D01*
X263300Y289100D01*
X288300Y289100D01*
X288300Y276100D01*
X288300Y291100D02*
X263300Y291100D01*
X263300Y304100D01*
X288300Y304100D01*
X288300Y291100D01*
D10*
X283015Y240800D02*
X263015Y240800D01*
X263015Y250800D01*
X283015Y250800D01*
X283015Y240800D01*
X283015Y229200D02*
X263015Y229200D01*
X263015Y239200D01*
X283015Y239200D01*
X283015Y229200D01*
X283015Y217600D02*
X263015Y217600D01*
X263015Y227600D01*
X283015Y227600D01*
X283015Y217600D01*
X282985Y252600D02*
X262985Y252600D01*
X262985Y262600D01*
X282985Y262600D01*
X282985Y252600D01*
X283185Y264200D02*
X263185Y264200D01*
X263185Y274200D01*
X283185Y274200D01*
X283185Y264200D01*
D16*
X314800Y293285D02*
X314800Y324285D01*
X314800Y293285D02*
X296800Y293285D01*
X296800Y324285D01*
X314800Y324285D01*
X333100Y323900D02*
X333100Y298900D01*
X320100Y298900D01*
X320100Y323900D01*
X333100Y323900D01*
D10*
X345600Y319000D02*
X345600Y299000D01*
X335600Y299000D01*
X335600Y319000D01*
X345600Y319000D01*
X358000Y319015D02*
X358000Y299015D01*
X348000Y299015D01*
X348000Y319015D01*
X358000Y319015D01*
D12*
X1800Y217900D02*
X-11000Y217900D01*
X-11000Y122100D01*
X1800Y122100D01*
X29000Y217900D02*
X41500Y217900D01*
X41500Y122100D02*
X29000Y122100D01*
D10*
X156000Y53000D02*
X156000Y19000D01*
X184000Y19000D02*
X184000Y53000D01*
X176000Y9000D02*
X164000Y9000D01*
X164000Y63000D02*
X176000Y63000D01*
X269800Y116200D02*
X289800Y116200D01*
X289800Y106200D01*
X269800Y106200D01*
X269800Y116200D01*
X263000Y205800D02*
X283000Y205800D01*
X263000Y205800D02*
X263000Y215800D01*
X283000Y215800D01*
X283000Y205800D01*
X255600Y252000D02*
X235600Y252000D01*
X255600Y252000D02*
X255600Y242000D01*
X235600Y242000D01*
X235600Y252000D01*
X235800Y230000D02*
X255800Y230000D01*
X235800Y230000D02*
X235800Y240000D01*
X255800Y240000D01*
X255800Y230000D01*
X169000Y244000D02*
X149000Y244000D01*
X149000Y254000D01*
X169000Y254000D01*
X169000Y244000D01*
M02*
