G04 EAGLE Gerber RS-274X export*
G75*
%MOMM*%
%FSLAX34Y34*%
%LPD*%
%INSoldermask Bottom*%
%IPPOS*%
%AMOC8*
5,1,8,0,0,1.08239X$1,22.5*%
G01*
%ADD10C,2.601600*%
%ADD11P,0.989737X8X22.500000*%
%ADD12R,0.801600X1.401600*%
%ADD13R,0.851600X0.851600*%
%ADD14C,0.851600*%
%ADD15C,0.421600*%
%ADD16R,2.701600X2.701600*%
%ADD17R,0.712300X1.013400*%
%ADD18R,0.701600X0.701600*%
%ADD19C,1.778000*%
%ADD20R,1.778000X1.778000*%
%ADD21R,1.201600X1.401600*%
%ADD22C,1.492134*%
%ADD23R,0.914400X0.355600*%
%ADD24R,0.355600X0.914400*%
%ADD25R,1.651000X1.651000*%
%ADD26R,1.013400X0.712300*%
%ADD27R,1.222600X1.916900*%
%ADD28C,1.101600*%
%ADD29C,1.151600*%
%ADD30C,0.651600*%
%ADD31R,3.101600X2.201600*%
%ADD32R,1.701600X0.901600*%


D10*
X25000Y315000D03*
X25000Y25000D03*
X555000Y315000D03*
X555000Y25000D03*
D11*
X85000Y329500D03*
X97000Y329500D03*
D12*
X35500Y146000D03*
X16500Y146000D03*
D13*
X480650Y10000D03*
D14*
X467950Y10000D03*
X455250Y10000D03*
X442550Y10000D03*
X429850Y10000D03*
X417150Y10000D03*
X404450Y10000D03*
X391750Y10000D03*
X379050Y10000D03*
X366350Y10000D03*
X353650Y10000D03*
X340950Y10000D03*
X328250Y10000D03*
X315550Y10000D03*
X302850Y10000D03*
X290150Y10000D03*
X277450Y10000D03*
X264750Y10000D03*
X252050Y10000D03*
X239350Y10000D03*
D13*
X480650Y330000D03*
D14*
X467950Y330000D03*
X455250Y330000D03*
X442550Y330000D03*
X429850Y330000D03*
X417150Y330000D03*
X404450Y330000D03*
X391750Y330000D03*
X379050Y330000D03*
X366350Y330000D03*
X353650Y330000D03*
X340950Y330000D03*
X328250Y330000D03*
X315550Y330000D03*
X302850Y330000D03*
X290150Y330000D03*
X277450Y330000D03*
X264750Y330000D03*
X252050Y330000D03*
X239350Y330000D03*
D15*
X178700Y34250D02*
X173300Y34250D01*
X173300Y40750D02*
X178700Y40750D01*
X178700Y47250D02*
X173300Y47250D01*
X173300Y53750D02*
X178700Y53750D01*
X186250Y61300D02*
X186250Y66700D01*
X192750Y66700D02*
X192750Y61300D01*
X199250Y61300D02*
X199250Y66700D01*
X205750Y66700D02*
X205750Y61300D01*
X213300Y53750D02*
X218700Y53750D01*
X218700Y47250D02*
X213300Y47250D01*
X213300Y40750D02*
X218700Y40750D01*
X218700Y34250D02*
X213300Y34250D01*
X205750Y26700D02*
X205750Y21300D01*
X199250Y21300D02*
X199250Y26700D01*
X192750Y26700D02*
X192750Y21300D01*
X186250Y21300D02*
X186250Y26700D01*
D16*
X196000Y44000D03*
D15*
X179700Y286250D02*
X174300Y286250D01*
X174300Y292750D02*
X179700Y292750D01*
X179700Y299250D02*
X174300Y299250D01*
X174300Y305750D02*
X179700Y305750D01*
X187250Y313300D02*
X187250Y318700D01*
X193750Y318700D02*
X193750Y313300D01*
X200250Y313300D02*
X200250Y318700D01*
X206750Y318700D02*
X206750Y313300D01*
X214300Y305750D02*
X219700Y305750D01*
X219700Y299250D02*
X214300Y299250D01*
X214300Y292750D02*
X219700Y292750D01*
X219700Y286250D02*
X214300Y286250D01*
X206750Y278700D02*
X206750Y273300D01*
X200250Y273300D02*
X200250Y278700D01*
X193750Y278700D02*
X193750Y273300D01*
X187250Y273300D02*
X187250Y278700D01*
D16*
X197000Y296000D03*
D17*
X145094Y306467D03*
X160106Y306467D03*
D18*
X156000Y294000D03*
X146000Y294000D03*
X146000Y54000D03*
X156000Y54000D03*
X146000Y67000D03*
X156000Y67000D03*
X172000Y79000D03*
X182000Y79000D03*
D17*
X156106Y26900D03*
X141094Y26900D03*
D18*
X156000Y41000D03*
X146000Y41000D03*
X146000Y270000D03*
X156000Y270000D03*
X146000Y282000D03*
X156000Y282000D03*
X146000Y319067D03*
X156000Y319067D03*
X172500Y262000D03*
X182500Y262000D03*
X172500Y250000D03*
X182500Y250000D03*
X522000Y90000D03*
X522000Y80000D03*
X486000Y80000D03*
X486000Y90000D03*
D19*
X501700Y24500D03*
D20*
X527100Y24500D03*
D18*
X146000Y92500D03*
X156000Y92500D03*
X146000Y79700D03*
X156000Y79700D03*
X182000Y91000D03*
X172000Y91000D03*
X182000Y103000D03*
X172000Y103000D03*
X230000Y216100D03*
X230000Y226100D03*
X254000Y171000D03*
X254000Y181000D03*
X194000Y215000D03*
X194000Y225000D03*
X156000Y203000D03*
X146000Y203000D03*
X146000Y190000D03*
X156000Y190000D03*
D17*
X161506Y217000D03*
X146494Y217000D03*
D18*
X188000Y192000D03*
X178000Y192000D03*
X231800Y193800D03*
X241800Y193800D03*
X182000Y130000D03*
X172000Y130000D03*
X172000Y115000D03*
X182000Y115000D03*
D21*
X229000Y157500D03*
X211000Y157500D03*
X229000Y180500D03*
X211000Y180500D03*
D18*
X208500Y141900D03*
X218500Y141900D03*
X218800Y193800D03*
X208800Y193800D03*
X242000Y171000D03*
X242000Y181000D03*
D22*
X322848Y139148D02*
X322848Y133052D01*
X316752Y133052D01*
X316752Y139148D01*
X322848Y139148D01*
D23*
X88478Y253874D03*
X88478Y250064D03*
X88478Y246000D03*
X88478Y241936D03*
X88478Y238126D03*
D24*
X81874Y231522D03*
X78064Y231522D03*
X74000Y231522D03*
X69936Y231522D03*
X66126Y231522D03*
D23*
X59522Y238126D03*
X59522Y241936D03*
X59522Y246000D03*
X59522Y250064D03*
X59522Y253874D03*
D24*
X66126Y260478D03*
X69936Y260478D03*
X74000Y260478D03*
X78064Y260478D03*
X81874Y260478D03*
D25*
X74000Y246000D03*
D26*
X37000Y288506D03*
X37000Y273494D03*
D17*
X114794Y241100D03*
X129806Y241100D03*
D27*
X70028Y284000D03*
X87972Y284000D03*
D17*
X121506Y306000D03*
X106494Y306000D03*
D18*
X90000Y304000D03*
X90000Y314000D03*
X78000Y304000D03*
X78000Y314000D03*
X66000Y314000D03*
X66000Y304000D03*
D27*
X108828Y261600D03*
X126772Y261600D03*
D26*
X147000Y257506D03*
X147000Y242494D03*
D18*
X130000Y281000D03*
X130000Y291000D03*
X117000Y281000D03*
X117000Y291000D03*
X104000Y281000D03*
X104000Y291000D03*
D27*
X18528Y254100D03*
X36472Y254100D03*
D26*
X21000Y273494D03*
X21000Y288506D03*
D18*
X14000Y235000D03*
X14000Y225000D03*
X27000Y235000D03*
X27000Y225000D03*
X40000Y225000D03*
X40000Y235000D03*
X123300Y225400D03*
X133300Y225400D03*
X123300Y213000D03*
X133300Y213000D03*
X470000Y114000D03*
X470000Y104000D03*
X498000Y90000D03*
X498000Y80000D03*
X498000Y130000D03*
X498000Y140000D03*
X510000Y130000D03*
X510000Y140000D03*
X486000Y114000D03*
X486000Y104000D03*
X546000Y130000D03*
X546000Y140000D03*
X522000Y130000D03*
X522000Y140000D03*
X534000Y90000D03*
X534000Y80000D03*
X510000Y90000D03*
X510000Y80000D03*
X534000Y130000D03*
X534000Y140000D03*
D26*
X546000Y77494D03*
X546000Y92506D03*
D18*
X474000Y130000D03*
X474000Y140000D03*
D12*
X263500Y271500D03*
X282500Y271500D03*
D17*
X268494Y254000D03*
X283506Y254000D03*
D18*
X273615Y240000D03*
X283615Y240000D03*
X273615Y216000D03*
X283615Y216000D03*
X273615Y228000D03*
X283615Y228000D03*
X474000Y152000D03*
X474000Y162000D03*
X486000Y152185D03*
X486000Y162185D03*
D26*
X452000Y281736D03*
X452000Y266724D03*
X468000Y281736D03*
X468000Y266724D03*
D18*
X426000Y276615D03*
X426000Y266615D03*
X402000Y276615D03*
X402000Y266615D03*
X414000Y276615D03*
X414000Y266615D03*
X438000Y276615D03*
X438000Y266615D03*
X378000Y276615D03*
X378000Y266615D03*
X390000Y276615D03*
X390000Y266615D03*
D26*
X531000Y39879D03*
X531000Y54891D03*
X511000Y39879D03*
X511000Y54891D03*
D18*
X460000Y58000D03*
X460000Y68000D03*
X447000Y58000D03*
X447000Y68000D03*
X473000Y58000D03*
X473000Y68000D03*
X486000Y58000D03*
X486000Y68000D03*
X421000Y58000D03*
X421000Y68000D03*
X434000Y58000D03*
X434000Y68000D03*
X274815Y135800D03*
X284815Y135800D03*
X274815Y123900D03*
X284815Y123900D03*
D28*
X20000Y213200D02*
X10000Y213200D01*
X10000Y126800D02*
X20000Y126800D01*
D29*
X51550Y213200D02*
X62050Y213200D01*
X62050Y126800D02*
X51550Y126800D01*
D30*
X51800Y141100D03*
X51800Y198900D03*
D18*
X78000Y180000D03*
X88000Y180000D03*
X88000Y167000D03*
X78000Y167000D03*
X274615Y147800D03*
X284615Y147800D03*
X393000Y161000D03*
X383000Y161000D03*
X284500Y159700D03*
X274500Y159700D03*
X279700Y187600D03*
X279700Y177600D03*
D31*
X67000Y41250D03*
X67000Y104750D03*
D32*
X96000Y66750D03*
X96000Y79250D03*
D22*
X118048Y191952D02*
X118048Y198048D01*
X118048Y191952D02*
X111952Y191952D01*
X111952Y198048D01*
X118048Y198048D01*
D18*
X120000Y67000D03*
X130000Y67000D03*
M02*
