G04 EAGLE Gerber RS-274X export*
G75*
%MOMM*%
%FSLAX34Y34*%
%LPD*%
%INSolderpaste Top*%
%IPPOS*%
%AMOC8*
5,1,8,0,0,1.08239X$1,22.5*%
G01*
%ADD10R,1.000000X1.400000*%
%ADD11R,0.600000X0.600000*%
%ADD12R,1.045600X0.739100*%
%ADD13R,1.501288X1.000859*%
%ADD14C,0.182000*%
%ADD15C,0.300000*%
%ADD16R,1.029100X0.999100*%
%ADD17R,0.750000X1.000000*%
%ADD18R,0.911800X0.610700*%
%ADD19R,0.558800X0.889000*%
%ADD20R,1.100000X1.300000*%
%ADD21C,0.217600*%
%ADD22R,3.100000X3.100000*%
%ADD23R,0.610700X0.911800*%
%ADD24C,0.500000*%
%ADD25R,0.500000X0.250000*%
%ADD26R,0.200000X1.600000*%
%ADD27R,0.700000X1.300000*%
%ADD28R,0.990000X0.405000*%
%ADD29R,1.185000X2.235000*%
%ADD30C,0.420000*%
%ADD31R,4.800000X4.650000*%
%ADD32R,1.300000X0.700000*%
%ADD33R,1.150000X0.600000*%
%ADD34R,1.150000X0.300000*%


D10*
X35000Y290635D03*
X44500Y268635D03*
X25500Y268635D03*
D11*
X119000Y273889D03*
X129000Y273889D03*
X119000Y261000D03*
X129000Y261000D03*
D12*
X60877Y249000D03*
X96123Y249000D03*
D13*
X86006Y295996D03*
D14*
X76390Y278360D02*
X75610Y278360D01*
X75610Y284940D01*
X76390Y284940D01*
X76390Y278360D01*
X76390Y280089D02*
X75610Y280089D01*
X75610Y281818D02*
X76390Y281818D01*
X76390Y283547D02*
X75610Y283547D01*
X80610Y278360D02*
X81390Y278360D01*
X80610Y278360D02*
X80610Y284940D01*
X81390Y284940D01*
X81390Y278360D01*
X81390Y280089D02*
X80610Y280089D01*
X80610Y281818D02*
X81390Y281818D01*
X81390Y283547D02*
X80610Y283547D01*
X85610Y278360D02*
X86390Y278360D01*
X85610Y278360D02*
X85610Y284940D01*
X86390Y284940D01*
X86390Y278360D01*
X86390Y280089D02*
X85610Y280089D01*
X85610Y281818D02*
X86390Y281818D01*
X86390Y283547D02*
X85610Y283547D01*
X90610Y278360D02*
X91390Y278360D01*
X90610Y278360D02*
X90610Y284940D01*
X91390Y284940D01*
X91390Y278360D01*
X91390Y280089D02*
X90610Y280089D01*
X90610Y281818D02*
X91390Y281818D01*
X91390Y283547D02*
X90610Y283547D01*
X95610Y278360D02*
X96390Y278360D01*
X95610Y278360D02*
X95610Y284940D01*
X96390Y284940D01*
X96390Y278360D01*
X96390Y280089D02*
X95610Y280089D01*
X95610Y281818D02*
X96390Y281818D01*
X96390Y283547D02*
X95610Y283547D01*
X95610Y307060D02*
X96390Y307060D01*
X95610Y307060D02*
X95610Y313640D01*
X96390Y313640D01*
X96390Y307060D01*
X96390Y308789D02*
X95610Y308789D01*
X95610Y310518D02*
X96390Y310518D01*
X96390Y312247D02*
X95610Y312247D01*
X91390Y307060D02*
X90610Y307060D01*
X90610Y313640D01*
X91390Y313640D01*
X91390Y307060D01*
X91390Y308789D02*
X90610Y308789D01*
X90610Y310518D02*
X91390Y310518D01*
X91390Y312247D02*
X90610Y312247D01*
X86390Y307060D02*
X85610Y307060D01*
X85610Y313640D01*
X86390Y313640D01*
X86390Y307060D01*
X86390Y308789D02*
X85610Y308789D01*
X85610Y310518D02*
X86390Y310518D01*
X86390Y312247D02*
X85610Y312247D01*
X81390Y307060D02*
X80610Y307060D01*
X80610Y313640D01*
X81390Y313640D01*
X81390Y307060D01*
X81390Y308789D02*
X80610Y308789D01*
X80610Y310518D02*
X81390Y310518D01*
X81390Y312247D02*
X80610Y312247D01*
X76390Y307060D02*
X75610Y307060D01*
X75610Y313640D01*
X76390Y313640D01*
X76390Y307060D01*
X76390Y308789D02*
X75610Y308789D01*
X75610Y310518D02*
X76390Y310518D01*
X76390Y312247D02*
X75610Y312247D01*
D11*
X119230Y314000D03*
X129230Y314000D03*
X129115Y300500D03*
X119115Y300500D03*
X119230Y287000D03*
X129230Y287000D03*
D15*
X534750Y203750D03*
X527250Y203750D03*
X519750Y203750D03*
X512250Y203750D03*
X504750Y203750D03*
X497250Y203750D03*
X534750Y211250D03*
X527250Y211250D03*
X519750Y211250D03*
X512250Y211250D03*
X504750Y211250D03*
X497250Y211250D03*
X534750Y218750D03*
X527250Y218750D03*
X519750Y218750D03*
X512250Y218750D03*
X504750Y218750D03*
X497250Y218750D03*
X534750Y226250D03*
X527250Y226250D03*
X519750Y226250D03*
X512250Y226250D03*
X504750Y226250D03*
X497250Y226250D03*
X534750Y233750D03*
X527250Y233750D03*
X519750Y233750D03*
X512250Y233750D03*
X504750Y233750D03*
X497250Y233750D03*
X534750Y241250D03*
X527250Y241250D03*
X519750Y241250D03*
X512250Y241250D03*
X504750Y241250D03*
X497250Y241250D03*
X534750Y248750D03*
X527250Y248750D03*
X519750Y248750D03*
X512250Y248750D03*
X504750Y248750D03*
X497250Y248750D03*
X534750Y256250D03*
X527250Y256250D03*
X519750Y256250D03*
X512250Y256250D03*
X504750Y256250D03*
X497250Y256250D03*
D16*
X248000Y33000D03*
X234000Y33000D03*
X247000Y282000D03*
X233000Y282000D03*
X247000Y314000D03*
X233000Y314000D03*
X247000Y266000D03*
X233000Y266000D03*
X26000Y245000D03*
X40000Y245000D03*
X248000Y67000D03*
X234000Y67000D03*
X248000Y50000D03*
X234000Y50000D03*
X247000Y298000D03*
X233000Y298000D03*
D17*
X130750Y58500D03*
X109250Y58500D03*
X130750Y13500D03*
X109250Y13500D03*
D18*
X436300Y21079D03*
X436300Y36091D03*
D11*
X464300Y26200D03*
X464300Y36200D03*
X450993Y26200D03*
X450993Y36200D03*
D19*
X434898Y77422D03*
X416102Y77422D03*
X425500Y55578D03*
D11*
X452000Y65000D03*
X452000Y75000D03*
D18*
X401000Y62494D03*
X401000Y77506D03*
D11*
X385920Y62885D03*
X385920Y72885D03*
X399000Y35000D03*
X399000Y45000D03*
X385643Y34885D03*
X385643Y44885D03*
D20*
X352000Y42300D03*
X370000Y42300D03*
X352000Y65300D03*
X370000Y65300D03*
X319000Y42300D03*
X337000Y42300D03*
X319000Y65300D03*
X337000Y65300D03*
D11*
X181200Y304000D03*
X181200Y314000D03*
X181200Y276000D03*
X181200Y286000D03*
X163200Y304000D03*
X163200Y314000D03*
X163200Y276000D03*
X163200Y286000D03*
X145200Y304000D03*
X145200Y314000D03*
X145200Y276000D03*
X145200Y286000D03*
D21*
X194000Y138785D02*
X194000Y132381D01*
X198000Y132381D02*
X198000Y138785D01*
X202000Y138785D02*
X202000Y132381D01*
X206000Y132381D02*
X206000Y138785D01*
X210000Y138785D02*
X210000Y132381D01*
X214000Y132381D02*
X214000Y138785D01*
X218000Y138785D02*
X218000Y132381D01*
X222000Y132381D02*
X222000Y138785D01*
X226000Y138785D02*
X226000Y132381D01*
X230000Y132381D02*
X230000Y138785D01*
X234000Y138785D02*
X234000Y132381D01*
X238000Y132381D02*
X238000Y138785D01*
X242000Y138785D02*
X242000Y132381D01*
X246000Y132381D02*
X246000Y138785D01*
X251215Y144000D02*
X257619Y144000D01*
X257619Y148000D02*
X251215Y148000D01*
X251215Y152000D02*
X257619Y152000D01*
X257619Y156000D02*
X251215Y156000D01*
X251215Y160000D02*
X257619Y160000D01*
X257619Y164000D02*
X251215Y164000D01*
X251215Y168000D02*
X257619Y168000D01*
X257619Y172000D02*
X251215Y172000D01*
X251215Y176000D02*
X257619Y176000D01*
X257619Y180000D02*
X251215Y180000D01*
X251215Y184000D02*
X257619Y184000D01*
X257619Y188000D02*
X251215Y188000D01*
X251215Y192000D02*
X257619Y192000D01*
X257619Y196000D02*
X251215Y196000D01*
X246000Y201215D02*
X246000Y207619D01*
X242000Y207619D02*
X242000Y201215D01*
X238000Y201215D02*
X238000Y207619D01*
X234000Y207619D02*
X234000Y201215D01*
X230000Y201215D02*
X230000Y207619D01*
X226000Y207619D02*
X226000Y201215D01*
X222000Y201215D02*
X222000Y207619D01*
X218000Y207619D02*
X218000Y201215D01*
X214000Y201215D02*
X214000Y207619D01*
X210000Y207619D02*
X210000Y201215D01*
X206000Y201215D02*
X206000Y207619D01*
X202000Y207619D02*
X202000Y201215D01*
X198000Y201215D02*
X198000Y207619D01*
X194000Y207619D02*
X194000Y201215D01*
X188785Y196000D02*
X182381Y196000D01*
X182381Y192000D02*
X188785Y192000D01*
X188785Y188000D02*
X182381Y188000D01*
X182381Y184000D02*
X188785Y184000D01*
X188785Y180000D02*
X182381Y180000D01*
X182381Y176000D02*
X188785Y176000D01*
X188785Y172000D02*
X182381Y172000D01*
X182381Y168000D02*
X188785Y168000D01*
X188785Y164000D02*
X182381Y164000D01*
X182381Y160000D02*
X188785Y160000D01*
X188785Y156000D02*
X182381Y156000D01*
X182381Y152000D02*
X188785Y152000D01*
X188785Y148000D02*
X182381Y148000D01*
X182381Y144000D02*
X188785Y144000D01*
D22*
X220000Y170000D03*
D11*
X158500Y168000D03*
X148500Y168000D03*
D23*
X165121Y187700D03*
X150109Y187700D03*
D18*
X248700Y83594D03*
X248700Y98606D03*
D11*
X96000Y169000D03*
X86000Y169000D03*
X96000Y181000D03*
X86000Y181000D03*
D24*
X445000Y235000D03*
X435000Y235000D03*
X425000Y235000D03*
X415000Y235000D03*
X405000Y235000D03*
X395000Y235000D03*
X385000Y235000D03*
X375000Y235000D03*
X365000Y235000D03*
X355000Y235000D03*
X345000Y235000D03*
X335000Y235000D03*
X325000Y235000D03*
X315000Y235000D03*
X445000Y225000D03*
X445000Y215000D03*
X445000Y205000D03*
X445000Y195000D03*
X445000Y185000D03*
X445000Y175000D03*
X445000Y165000D03*
X445000Y155000D03*
X445000Y145000D03*
X445000Y135000D03*
X445000Y125000D03*
X445000Y115000D03*
X445000Y105000D03*
X435000Y225000D03*
X425000Y225000D03*
X415000Y225000D03*
X405000Y225000D03*
X395000Y225000D03*
X385000Y225000D03*
X375000Y225000D03*
X365000Y225000D03*
X355000Y225000D03*
X345000Y225000D03*
X335000Y225000D03*
X325000Y225000D03*
X315000Y225000D03*
X435000Y215000D03*
X425000Y215000D03*
X415000Y215000D03*
X405000Y215000D03*
X395000Y215000D03*
X385000Y215000D03*
X375000Y215000D03*
X365000Y215000D03*
X355000Y215000D03*
X345000Y215000D03*
X335000Y215000D03*
X325000Y215000D03*
X315000Y215000D03*
X435000Y205000D03*
X425000Y205000D03*
X415000Y205000D03*
X405000Y205000D03*
X395000Y205000D03*
X385000Y205000D03*
X375000Y205000D03*
X365000Y205000D03*
X355000Y205000D03*
X345000Y205000D03*
X335000Y205000D03*
X325000Y205000D03*
X315000Y205000D03*
X435000Y195000D03*
X425000Y195000D03*
X415000Y195000D03*
X405000Y195000D03*
X395000Y195000D03*
X385000Y195000D03*
X375000Y195000D03*
X365000Y195000D03*
X355000Y195000D03*
X345000Y195000D03*
X335000Y195000D03*
X325000Y195000D03*
X315000Y195000D03*
X435000Y185000D03*
X425000Y185000D03*
X415000Y185000D03*
X405000Y185000D03*
X395000Y185000D03*
X385000Y185000D03*
X375000Y185000D03*
X365000Y185000D03*
X355000Y185000D03*
X345000Y185000D03*
X335000Y185000D03*
X325000Y185000D03*
X315000Y185000D03*
X435000Y175000D03*
X425000Y175000D03*
X415000Y175000D03*
X405000Y175000D03*
X395000Y175000D03*
X385000Y175000D03*
X375000Y175000D03*
X365000Y175000D03*
X355000Y175000D03*
X345000Y175000D03*
X335000Y175000D03*
X325000Y175000D03*
X315000Y175000D03*
X435000Y165000D03*
X425000Y165000D03*
X415000Y165000D03*
X405000Y165000D03*
X395000Y165000D03*
X385000Y165000D03*
X375000Y165000D03*
X365000Y165000D03*
X355000Y165000D03*
X345000Y165000D03*
X335000Y165000D03*
X325000Y165000D03*
X315000Y165000D03*
X435000Y155000D03*
X425000Y155000D03*
X415000Y155000D03*
X405000Y155000D03*
X395000Y155000D03*
X385000Y155000D03*
X375000Y155000D03*
X365000Y155000D03*
X355000Y155000D03*
X345000Y155000D03*
X335000Y155000D03*
X325000Y155000D03*
X315000Y155000D03*
X435000Y145000D03*
X425000Y145000D03*
X415000Y145000D03*
X405000Y145000D03*
X395000Y145000D03*
X385000Y145000D03*
X375000Y145000D03*
X365000Y145000D03*
X355000Y145000D03*
X345000Y145000D03*
X335000Y145000D03*
X325000Y145000D03*
X315000Y145000D03*
X435000Y135000D03*
X425000Y135000D03*
X415000Y135000D03*
X405000Y135000D03*
X395000Y135000D03*
X385000Y135000D03*
X375000Y135000D03*
X365000Y135000D03*
X355000Y135000D03*
X345000Y135000D03*
X335000Y135000D03*
X325000Y135000D03*
X315000Y135000D03*
X435000Y125000D03*
X425000Y125000D03*
X415000Y125000D03*
X405000Y125000D03*
X395000Y125000D03*
X385000Y125000D03*
X375000Y125000D03*
X365000Y125000D03*
X355000Y125000D03*
X345000Y125000D03*
X335000Y125000D03*
X325000Y125000D03*
X315000Y125000D03*
X435000Y115000D03*
X425000Y115000D03*
X415000Y115000D03*
X405000Y115000D03*
X395000Y115000D03*
X385000Y115000D03*
X375000Y115000D03*
X365000Y115000D03*
X355000Y115000D03*
X345000Y115000D03*
X335000Y115000D03*
X325000Y115000D03*
X315000Y115000D03*
X435000Y105000D03*
X425000Y105000D03*
X415000Y105000D03*
X405000Y105000D03*
X395000Y105000D03*
X385000Y105000D03*
X375000Y105000D03*
X365000Y105000D03*
X355000Y105000D03*
X345000Y105000D03*
X335000Y105000D03*
X325000Y105000D03*
X315000Y105000D03*
D25*
X164400Y132200D03*
X164400Y137200D03*
X164400Y127200D03*
X164400Y142200D03*
X137400Y132200D03*
X137400Y137200D03*
X137400Y127200D03*
X137400Y142200D03*
D26*
X150900Y134700D03*
D18*
X233000Y83494D03*
X233000Y98506D03*
D11*
X156000Y114000D03*
X146000Y114000D03*
D17*
X59250Y13500D03*
X80750Y13500D03*
X59250Y58500D03*
X80750Y58500D03*
D27*
X139115Y245000D03*
X120115Y245000D03*
D28*
X395650Y310900D03*
X395650Y304300D03*
X395650Y297700D03*
X395650Y291100D03*
X424350Y291100D03*
X424350Y297700D03*
X424350Y304300D03*
X424350Y310900D03*
D29*
X410000Y301000D03*
D28*
X455650Y310900D03*
X455650Y304300D03*
X455650Y297700D03*
X455650Y291100D03*
X484350Y291100D03*
X484350Y297700D03*
X484350Y304300D03*
X484350Y310900D03*
D29*
X470000Y301000D03*
D30*
X535050Y151546D02*
X535050Y146366D01*
X522350Y146366D02*
X522350Y151546D01*
X509650Y151546D02*
X509650Y146366D01*
X496950Y146366D02*
X496950Y151546D01*
X496950Y73634D02*
X496950Y68454D01*
X509650Y68454D02*
X509650Y73634D01*
X522350Y73634D02*
X522350Y68454D01*
X535050Y68454D02*
X535050Y73634D01*
D31*
X516000Y110000D03*
D11*
X305000Y46000D03*
X305000Y36000D03*
X305000Y69000D03*
X305000Y59000D03*
X292000Y46000D03*
X292000Y36000D03*
X292000Y69000D03*
X292000Y59000D03*
X279000Y46000D03*
X279000Y36000D03*
X279000Y69000D03*
X279000Y59000D03*
X266000Y46000D03*
X266000Y36000D03*
X266000Y69000D03*
X266000Y59000D03*
D27*
X288100Y315200D03*
X269100Y315200D03*
D23*
X283306Y282600D03*
X268294Y282600D03*
X283306Y297600D03*
X268294Y297600D03*
D11*
X278015Y245800D03*
X268015Y245800D03*
X278015Y234200D03*
X268015Y234200D03*
X278015Y222600D03*
X268015Y222600D03*
X277985Y257600D03*
X267985Y257600D03*
X278185Y269200D03*
X268185Y269200D03*
D32*
X305800Y318285D03*
X305800Y299285D03*
D18*
X326600Y318906D03*
X326600Y303894D03*
D11*
X340600Y314000D03*
X340600Y304000D03*
X353000Y314015D03*
X353000Y304015D03*
D33*
X62550Y202000D03*
X62550Y138000D03*
X62550Y194000D03*
X62550Y146000D03*
D34*
X62550Y167500D03*
X62550Y172500D03*
X62550Y162500D03*
X62550Y157500D03*
X62550Y152500D03*
X62550Y177500D03*
X62550Y182500D03*
X62550Y187500D03*
D17*
X159250Y13500D03*
X180750Y13500D03*
X159250Y58500D03*
X180750Y58500D03*
D11*
X274800Y111200D03*
X284800Y111200D03*
X278000Y210800D03*
X268000Y210800D03*
X240600Y247000D03*
X250600Y247000D03*
X250800Y235000D03*
X240800Y235000D03*
X164000Y249000D03*
X154000Y249000D03*
M02*
