G04 EAGLE Gerber RS-274X export*
G75*
%MOMM*%
%FSLAX34Y34*%
%LPD*%
%IN*%
%IPPOS*%
%AMOC8*
5,1,8,0,0,1.08239X$1,22.5*%
G01*
%ADD10C,0.254000*%


D10*
X-578000Y0D02*
X0Y0D01*
X0Y340000D01*
X-578000Y340000D01*
X-578000Y0D01*
X-542500Y314509D02*
X-542577Y313530D01*
X-542731Y312560D01*
X-542960Y311604D01*
X-543264Y310670D01*
X-543639Y309763D01*
X-544085Y308888D01*
X-544599Y308050D01*
X-545176Y307255D01*
X-545814Y306508D01*
X-546508Y305814D01*
X-547255Y305176D01*
X-548050Y304599D01*
X-548888Y304085D01*
X-549763Y303639D01*
X-550670Y303264D01*
X-551604Y302960D01*
X-552560Y302731D01*
X-553530Y302577D01*
X-554509Y302500D01*
X-555491Y302500D01*
X-556470Y302577D01*
X-557441Y302731D01*
X-558396Y302960D01*
X-559330Y303264D01*
X-560237Y303639D01*
X-561112Y304085D01*
X-561950Y304599D01*
X-562745Y305176D01*
X-563492Y305814D01*
X-564186Y306508D01*
X-564824Y307255D01*
X-565401Y308050D01*
X-565915Y308888D01*
X-566361Y309763D01*
X-566736Y310670D01*
X-567040Y311604D01*
X-567269Y312560D01*
X-567423Y313530D01*
X-567500Y314509D01*
X-567500Y315491D01*
X-567423Y316470D01*
X-567269Y317441D01*
X-567040Y318396D01*
X-566736Y319330D01*
X-566361Y320237D01*
X-565915Y321112D01*
X-565401Y321950D01*
X-564824Y322745D01*
X-564186Y323492D01*
X-563492Y324186D01*
X-562745Y324824D01*
X-561950Y325401D01*
X-561112Y325915D01*
X-560237Y326361D01*
X-559330Y326736D01*
X-558396Y327040D01*
X-557441Y327269D01*
X-556470Y327423D01*
X-555491Y327500D01*
X-554509Y327500D01*
X-553530Y327423D01*
X-552560Y327269D01*
X-551604Y327040D01*
X-550670Y326736D01*
X-549763Y326361D01*
X-548888Y325915D01*
X-548050Y325401D01*
X-547255Y324824D01*
X-546508Y324186D01*
X-545814Y323492D01*
X-545176Y322745D01*
X-544599Y321950D01*
X-544085Y321112D01*
X-543639Y320237D01*
X-543264Y319330D01*
X-542960Y318396D01*
X-542731Y317441D01*
X-542577Y316470D01*
X-542500Y315491D01*
X-542500Y314509D01*
X-542500Y24509D02*
X-542577Y23530D01*
X-542731Y22560D01*
X-542960Y21604D01*
X-543264Y20670D01*
X-543639Y19763D01*
X-544085Y18888D01*
X-544599Y18050D01*
X-545176Y17255D01*
X-545814Y16508D01*
X-546508Y15814D01*
X-547255Y15176D01*
X-548050Y14599D01*
X-548888Y14085D01*
X-549763Y13639D01*
X-550670Y13264D01*
X-551604Y12960D01*
X-552560Y12731D01*
X-553530Y12577D01*
X-554509Y12500D01*
X-555491Y12500D01*
X-556470Y12577D01*
X-557441Y12731D01*
X-558396Y12960D01*
X-559330Y13264D01*
X-560237Y13639D01*
X-561112Y14085D01*
X-561950Y14599D01*
X-562745Y15176D01*
X-563492Y15814D01*
X-564186Y16508D01*
X-564824Y17255D01*
X-565401Y18050D01*
X-565915Y18888D01*
X-566361Y19763D01*
X-566736Y20670D01*
X-567040Y21604D01*
X-567269Y22560D01*
X-567423Y23530D01*
X-567500Y24509D01*
X-567500Y25491D01*
X-567423Y26470D01*
X-567269Y27441D01*
X-567040Y28396D01*
X-566736Y29330D01*
X-566361Y30237D01*
X-565915Y31112D01*
X-565401Y31950D01*
X-564824Y32745D01*
X-564186Y33492D01*
X-563492Y34186D01*
X-562745Y34824D01*
X-561950Y35401D01*
X-561112Y35915D01*
X-560237Y36361D01*
X-559330Y36736D01*
X-558396Y37040D01*
X-557441Y37269D01*
X-556470Y37423D01*
X-555491Y37500D01*
X-554509Y37500D01*
X-553530Y37423D01*
X-552560Y37269D01*
X-551604Y37040D01*
X-550670Y36736D01*
X-549763Y36361D01*
X-548888Y35915D01*
X-548050Y35401D01*
X-547255Y34824D01*
X-546508Y34186D01*
X-545814Y33492D01*
X-545176Y32745D01*
X-544599Y31950D01*
X-544085Y31112D01*
X-543639Y30237D01*
X-543264Y29330D01*
X-542960Y28396D01*
X-542731Y27441D01*
X-542577Y26470D01*
X-542500Y25491D01*
X-542500Y24509D01*
X-12500Y314509D02*
X-12577Y313530D01*
X-12731Y312560D01*
X-12960Y311604D01*
X-13264Y310670D01*
X-13639Y309763D01*
X-14085Y308888D01*
X-14599Y308050D01*
X-15176Y307255D01*
X-15814Y306508D01*
X-16508Y305814D01*
X-17255Y305176D01*
X-18050Y304599D01*
X-18888Y304085D01*
X-19763Y303639D01*
X-20670Y303264D01*
X-21604Y302960D01*
X-22560Y302731D01*
X-23530Y302577D01*
X-24509Y302500D01*
X-25491Y302500D01*
X-26470Y302577D01*
X-27441Y302731D01*
X-28396Y302960D01*
X-29330Y303264D01*
X-30237Y303639D01*
X-31112Y304085D01*
X-31950Y304599D01*
X-32745Y305176D01*
X-33492Y305814D01*
X-34186Y306508D01*
X-34824Y307255D01*
X-35401Y308050D01*
X-35915Y308888D01*
X-36361Y309763D01*
X-36736Y310670D01*
X-37040Y311604D01*
X-37269Y312560D01*
X-37423Y313530D01*
X-37500Y314509D01*
X-37500Y315491D01*
X-37423Y316470D01*
X-37269Y317441D01*
X-37040Y318396D01*
X-36736Y319330D01*
X-36361Y320237D01*
X-35915Y321112D01*
X-35401Y321950D01*
X-34824Y322745D01*
X-34186Y323492D01*
X-33492Y324186D01*
X-32745Y324824D01*
X-31950Y325401D01*
X-31112Y325915D01*
X-30237Y326361D01*
X-29330Y326736D01*
X-28396Y327040D01*
X-27441Y327269D01*
X-26470Y327423D01*
X-25491Y327500D01*
X-24509Y327500D01*
X-23530Y327423D01*
X-22560Y327269D01*
X-21604Y327040D01*
X-20670Y326736D01*
X-19763Y326361D01*
X-18888Y325915D01*
X-18050Y325401D01*
X-17255Y324824D01*
X-16508Y324186D01*
X-15814Y323492D01*
X-15176Y322745D01*
X-14599Y321950D01*
X-14085Y321112D01*
X-13639Y320237D01*
X-13264Y319330D01*
X-12960Y318396D01*
X-12731Y317441D01*
X-12577Y316470D01*
X-12500Y315491D01*
X-12500Y314509D01*
X-12500Y24509D02*
X-12577Y23530D01*
X-12731Y22560D01*
X-12960Y21604D01*
X-13264Y20670D01*
X-13639Y19763D01*
X-14085Y18888D01*
X-14599Y18050D01*
X-15176Y17255D01*
X-15814Y16508D01*
X-16508Y15814D01*
X-17255Y15176D01*
X-18050Y14599D01*
X-18888Y14085D01*
X-19763Y13639D01*
X-20670Y13264D01*
X-21604Y12960D01*
X-22560Y12731D01*
X-23530Y12577D01*
X-24509Y12500D01*
X-25491Y12500D01*
X-26470Y12577D01*
X-27441Y12731D01*
X-28396Y12960D01*
X-29330Y13264D01*
X-30237Y13639D01*
X-31112Y14085D01*
X-31950Y14599D01*
X-32745Y15176D01*
X-33492Y15814D01*
X-34186Y16508D01*
X-34824Y17255D01*
X-35401Y18050D01*
X-35915Y18888D01*
X-36361Y19763D01*
X-36736Y20670D01*
X-37040Y21604D01*
X-37269Y22560D01*
X-37423Y23530D01*
X-37500Y24509D01*
X-37500Y25491D01*
X-37423Y26470D01*
X-37269Y27441D01*
X-37040Y28396D01*
X-36736Y29330D01*
X-36361Y30237D01*
X-35915Y31112D01*
X-35401Y31950D01*
X-34824Y32745D01*
X-34186Y33492D01*
X-33492Y34186D01*
X-32745Y34824D01*
X-31950Y35401D01*
X-31112Y35915D01*
X-30237Y36361D01*
X-29330Y36736D01*
X-28396Y37040D01*
X-27441Y37269D01*
X-26470Y37423D01*
X-25491Y37500D01*
X-24509Y37500D01*
X-23530Y37423D01*
X-22560Y37269D01*
X-21604Y37040D01*
X-20670Y36736D01*
X-19763Y36361D01*
X-18888Y35915D01*
X-18050Y35401D01*
X-17255Y34824D01*
X-16508Y34186D01*
X-15814Y33492D01*
X-15176Y32745D01*
X-14599Y31950D01*
X-14085Y31112D01*
X-13639Y30237D01*
X-13264Y29330D01*
X-12960Y28396D01*
X-12731Y27441D01*
X-12577Y26470D01*
X-12500Y25491D01*
X-12500Y24509D01*
M02*
