G04 EAGLE Gerber RS-274X export*
G75*
%MOMM*%
%FSLAX34Y34*%
%LPD*%
%INSolderpaste Top*%
%IPPOS*%
%AMOC8*
5,1,8,0,0,1.08239X$1,22.5*%
G01*
%ADD10R,0.900000X1.500000*%
%ADD11R,0.700000X0.700000*%
%ADD12R,0.700000X1.300000*%
%ADD13R,0.600000X0.600000*%
%ADD14R,0.570000X0.870000*%
%ADD15C,0.055000*%
%ADD16R,1.550000X0.600000*%
%ADD17R,0.600000X1.550000*%


D10*
X-504000Y82500D03*
X-489000Y82500D03*
X-474000Y82500D03*
X-459000Y82500D03*
X-444000Y82500D03*
X-429000Y82500D03*
X-414000Y82500D03*
X-399000Y82500D03*
X-384000Y82500D03*
X-384000Y257500D03*
X-399000Y257500D03*
X-414000Y257500D03*
X-429000Y257500D03*
X-444000Y257500D03*
X-459000Y257500D03*
X-474000Y257500D03*
X-489000Y257500D03*
X-504000Y257500D03*
D11*
X-442000Y179600D03*
X-442000Y190600D03*
X-442000Y168600D03*
X-453000Y168600D03*
X-453000Y179600D03*
X-453000Y190600D03*
X-431000Y190600D03*
X-431000Y179600D03*
X-431000Y168600D03*
D12*
X-523500Y25000D03*
X-504500Y25000D03*
D13*
X-514000Y51000D03*
X-504000Y51000D03*
X-479000Y43000D03*
X-489000Y43000D03*
X-489000Y58000D03*
X-479000Y58000D03*
D14*
X-190800Y288300D03*
X-190800Y277700D03*
X-183200Y288300D03*
X-183200Y277700D03*
D15*
X-198325Y294175D02*
X-207375Y294175D01*
X-207375Y295825D01*
X-198325Y295825D01*
X-198325Y294175D01*
X-198325Y294697D02*
X-207375Y294697D01*
X-207375Y295219D02*
X-198325Y295219D01*
X-198325Y295741D02*
X-207375Y295741D01*
X-207375Y290175D02*
X-198325Y290175D01*
X-207375Y290175D02*
X-207375Y291825D01*
X-198325Y291825D01*
X-198325Y290175D01*
X-198325Y290697D02*
X-207375Y290697D01*
X-207375Y291219D02*
X-198325Y291219D01*
X-198325Y291741D02*
X-207375Y291741D01*
X-207375Y286175D02*
X-198325Y286175D01*
X-207375Y286175D02*
X-207375Y287825D01*
X-198325Y287825D01*
X-198325Y286175D01*
X-198325Y286697D02*
X-207375Y286697D01*
X-207375Y287219D02*
X-198325Y287219D01*
X-198325Y287741D02*
X-207375Y287741D01*
X-207375Y282175D02*
X-198325Y282175D01*
X-207375Y282175D02*
X-207375Y283825D01*
X-198325Y283825D01*
X-198325Y282175D01*
X-198325Y282697D02*
X-207375Y282697D01*
X-207375Y283219D02*
X-198325Y283219D01*
X-198325Y283741D02*
X-207375Y283741D01*
X-207375Y278175D02*
X-198325Y278175D01*
X-207375Y278175D02*
X-207375Y279825D01*
X-198325Y279825D01*
X-198325Y278175D01*
X-198325Y278697D02*
X-207375Y278697D01*
X-207375Y279219D02*
X-198325Y279219D01*
X-198325Y279741D02*
X-207375Y279741D01*
X-207375Y274175D02*
X-198325Y274175D01*
X-207375Y274175D02*
X-207375Y275825D01*
X-198325Y275825D01*
X-198325Y274175D01*
X-198325Y274697D02*
X-207375Y274697D01*
X-207375Y275219D02*
X-198325Y275219D01*
X-198325Y275741D02*
X-207375Y275741D01*
X-207375Y270175D02*
X-198325Y270175D01*
X-207375Y270175D02*
X-207375Y271825D01*
X-198325Y271825D01*
X-198325Y270175D01*
X-198325Y270697D02*
X-207375Y270697D01*
X-207375Y271219D02*
X-198325Y271219D01*
X-198325Y271741D02*
X-207375Y271741D01*
X-175675Y271825D02*
X-166625Y271825D01*
X-166625Y270175D01*
X-175675Y270175D01*
X-175675Y271825D01*
X-175675Y270697D02*
X-166625Y270697D01*
X-166625Y271219D02*
X-175675Y271219D01*
X-175675Y271741D02*
X-166625Y271741D01*
X-166625Y275825D02*
X-175675Y275825D01*
X-166625Y275825D02*
X-166625Y274175D01*
X-175675Y274175D01*
X-175675Y275825D01*
X-175675Y274697D02*
X-166625Y274697D01*
X-166625Y275219D02*
X-175675Y275219D01*
X-175675Y275741D02*
X-166625Y275741D01*
X-166625Y279825D02*
X-175675Y279825D01*
X-166625Y279825D02*
X-166625Y278175D01*
X-175675Y278175D01*
X-175675Y279825D01*
X-175675Y278697D02*
X-166625Y278697D01*
X-166625Y279219D02*
X-175675Y279219D01*
X-175675Y279741D02*
X-166625Y279741D01*
X-166625Y283825D02*
X-175675Y283825D01*
X-166625Y283825D02*
X-166625Y282175D01*
X-175675Y282175D01*
X-175675Y283825D01*
X-175675Y282697D02*
X-166625Y282697D01*
X-166625Y283219D02*
X-175675Y283219D01*
X-175675Y283741D02*
X-166625Y283741D01*
X-166625Y287825D02*
X-175675Y287825D01*
X-166625Y287825D02*
X-166625Y286175D01*
X-175675Y286175D01*
X-175675Y287825D01*
X-175675Y286697D02*
X-166625Y286697D01*
X-166625Y287219D02*
X-175675Y287219D01*
X-175675Y287741D02*
X-166625Y287741D01*
X-166625Y291825D02*
X-175675Y291825D01*
X-166625Y291825D02*
X-166625Y290175D01*
X-175675Y290175D01*
X-175675Y291825D01*
X-175675Y290697D02*
X-166625Y290697D01*
X-166625Y291219D02*
X-175675Y291219D01*
X-175675Y291741D02*
X-166625Y291741D01*
X-166625Y295825D02*
X-175675Y295825D01*
X-166625Y295825D02*
X-166625Y294175D01*
X-175675Y294175D01*
X-175675Y295825D01*
X-175675Y294697D02*
X-166625Y294697D01*
X-166625Y295219D02*
X-175675Y295219D01*
X-175675Y295741D02*
X-166625Y295741D01*
D13*
X-200000Y311000D03*
X-200000Y321000D03*
X-213000Y311000D03*
X-213000Y321000D03*
X-152000Y263000D03*
X-142000Y263000D03*
X-152000Y276000D03*
X-142000Y276000D03*
X-152000Y302000D03*
X-142000Y302000D03*
X-152000Y289000D03*
X-142000Y289000D03*
X-152000Y315000D03*
X-142000Y315000D03*
X-128000Y302000D03*
X-118000Y302000D03*
X-128000Y315000D03*
X-118000Y315000D03*
X-128000Y276000D03*
X-118000Y276000D03*
X-118000Y289000D03*
X-128000Y289000D03*
X-226000Y311000D03*
X-226000Y321000D03*
D16*
X-94000Y175000D03*
X-94000Y167000D03*
X-94000Y159000D03*
X-94000Y151000D03*
X-94000Y143000D03*
X-94000Y135000D03*
D17*
X-81000Y132000D03*
D16*
X-68000Y135000D03*
X-68000Y143000D03*
X-68000Y151000D03*
X-68000Y159000D03*
X-68000Y167000D03*
X-68000Y175000D03*
D17*
X-81000Y178000D03*
D13*
X-64000Y111000D03*
X-74000Y111000D03*
X-46000Y167000D03*
X-36000Y167000D03*
X-88000Y111000D03*
X-98000Y111000D03*
X-36000Y135000D03*
X-46000Y135000D03*
X-455000Y43000D03*
X-465000Y43000D03*
M02*
