G04 EAGLE Gerber RS-274X export*
G75*
%MOMM*%
%FSLAX34Y34*%
%LPD*%
%INSoldermask Bottom*%
%IPPOS*%
%AMOC8*
5,1,8,0,0,1.08239X$1,22.5*%
G01*
%ADD10C,2.601600*%
%ADD11R,0.851600X0.851600*%
%ADD12C,0.851600*%
%ADD13C,1.778000*%
%ADD14R,1.778000X1.778000*%
%ADD15C,1.406600*%
%ADD16R,1.406600X1.406600*%


D10*
X-555000Y315000D03*
X-555000Y25000D03*
X-25000Y315000D03*
X-25000Y25000D03*
D11*
X-480650Y10000D03*
D12*
X-467950Y10000D03*
X-455250Y10000D03*
X-442550Y10000D03*
X-429850Y10000D03*
X-417150Y10000D03*
X-404450Y10000D03*
X-391750Y10000D03*
X-379050Y10000D03*
X-366350Y10000D03*
X-353650Y10000D03*
X-340950Y10000D03*
X-328250Y10000D03*
X-315550Y10000D03*
X-302850Y10000D03*
X-290150Y10000D03*
X-277450Y10000D03*
X-264750Y10000D03*
X-252050Y10000D03*
X-239350Y10000D03*
D11*
X-480650Y330000D03*
D12*
X-467950Y330000D03*
X-455250Y330000D03*
X-442550Y330000D03*
X-429850Y330000D03*
X-417150Y330000D03*
X-404450Y330000D03*
X-391750Y330000D03*
X-379050Y330000D03*
X-366350Y330000D03*
X-353650Y330000D03*
X-340950Y330000D03*
X-328250Y330000D03*
X-315550Y330000D03*
X-302850Y330000D03*
X-290150Y330000D03*
X-277450Y330000D03*
X-264750Y330000D03*
X-252050Y330000D03*
X-239350Y330000D03*
D13*
X-350000Y157300D03*
D14*
X-350000Y106500D03*
D13*
X-350000Y131900D03*
X-350000Y182700D03*
X-350000Y208100D03*
X-350000Y233500D03*
X-305000Y157300D03*
D14*
X-305000Y106500D03*
D13*
X-305000Y131900D03*
X-305000Y182700D03*
X-305000Y208100D03*
X-305000Y233500D03*
X-260000Y157300D03*
D14*
X-260000Y106500D03*
D13*
X-260000Y131900D03*
X-260000Y182700D03*
X-260000Y208100D03*
X-260000Y233500D03*
X-511700Y285000D03*
D14*
X-562500Y285000D03*
D13*
X-537100Y285000D03*
X-486300Y285000D03*
X-460900Y285000D03*
X-435500Y285000D03*
D15*
X-81000Y236300D03*
D16*
X-81000Y261700D03*
D13*
X-215000Y157300D03*
D14*
X-215000Y106500D03*
D13*
X-215000Y131900D03*
X-215000Y182700D03*
X-215000Y208100D03*
X-215000Y233500D03*
D12*
X-83000Y9000D03*
M02*
