G04 EAGLE Gerber RS-274X export*
G75*
%MOMM*%
%FSLAX34Y34*%
%LPD*%
%INSoldermask Top*%
%IPPOS*%
%AMOC8*
5,1,8,0,0,1.08239X$1,22.5*%
G01*
%ADD10C,2.601600*%
%ADD11R,0.851600X0.851600*%
%ADD12C,0.851600*%
%ADD13R,1.001600X1.601600*%
%ADD14R,0.801600X0.801600*%
%ADD15C,1.778000*%
%ADD16R,1.778000X1.778000*%
%ADD17R,0.801600X1.401600*%
%ADD18R,0.701600X0.701600*%
%ADD19C,1.406600*%
%ADD20R,1.406600X1.406600*%
%ADD21C,0.157581*%
%ADD22R,1.801600X2.401600*%
%ADD23R,1.651600X0.701600*%
%ADD24R,0.701600X1.651600*%


D10*
X-555000Y315000D03*
X-555000Y25000D03*
X-25000Y315000D03*
X-25000Y25000D03*
D11*
X-480650Y10000D03*
D12*
X-467950Y10000D03*
X-455250Y10000D03*
X-442550Y10000D03*
X-429850Y10000D03*
X-417150Y10000D03*
X-404450Y10000D03*
X-391750Y10000D03*
X-379050Y10000D03*
X-366350Y10000D03*
X-353650Y10000D03*
X-340950Y10000D03*
X-328250Y10000D03*
X-315550Y10000D03*
X-302850Y10000D03*
X-290150Y10000D03*
X-277450Y10000D03*
X-264750Y10000D03*
X-252050Y10000D03*
X-239350Y10000D03*
D11*
X-480650Y330000D03*
D12*
X-467950Y330000D03*
X-455250Y330000D03*
X-442550Y330000D03*
X-429850Y330000D03*
X-417150Y330000D03*
X-404450Y330000D03*
X-391750Y330000D03*
X-379050Y330000D03*
X-366350Y330000D03*
X-353650Y330000D03*
X-340950Y330000D03*
X-328250Y330000D03*
X-315550Y330000D03*
X-302850Y330000D03*
X-290150Y330000D03*
X-277450Y330000D03*
X-264750Y330000D03*
X-252050Y330000D03*
X-239350Y330000D03*
D13*
X-504000Y82500D03*
X-489000Y82500D03*
X-474000Y82500D03*
X-459000Y82500D03*
X-444000Y82500D03*
X-429000Y82500D03*
X-414000Y82500D03*
X-399000Y82500D03*
X-384000Y82500D03*
X-384000Y257500D03*
X-399000Y257500D03*
X-414000Y257500D03*
X-429000Y257500D03*
X-444000Y257500D03*
X-459000Y257500D03*
X-474000Y257500D03*
X-489000Y257500D03*
X-504000Y257500D03*
D14*
X-442000Y179600D03*
X-442000Y190600D03*
X-442000Y168600D03*
X-453000Y168600D03*
X-453000Y179600D03*
X-453000Y190600D03*
X-431000Y190600D03*
X-431000Y179600D03*
X-431000Y168600D03*
D15*
X-350000Y157300D03*
D16*
X-350000Y106500D03*
D15*
X-350000Y131900D03*
X-350000Y182700D03*
X-350000Y208100D03*
X-350000Y233500D03*
D17*
X-523500Y25000D03*
X-504500Y25000D03*
D18*
X-514000Y51000D03*
X-504000Y51000D03*
X-479000Y43000D03*
X-489000Y43000D03*
X-489000Y58000D03*
X-479000Y58000D03*
D15*
X-305000Y157300D03*
D16*
X-305000Y106500D03*
D15*
X-305000Y131900D03*
X-305000Y182700D03*
X-305000Y208100D03*
X-305000Y233500D03*
X-260000Y157300D03*
D16*
X-260000Y106500D03*
D15*
X-260000Y131900D03*
X-260000Y182700D03*
X-260000Y208100D03*
X-260000Y233500D03*
X-511700Y285000D03*
D16*
X-562500Y285000D03*
D15*
X-537100Y285000D03*
X-486300Y285000D03*
X-460900Y285000D03*
X-435500Y285000D03*
D19*
X-81000Y236300D03*
D20*
X-81000Y261700D03*
D21*
X-198330Y294180D02*
X-207370Y294180D01*
X-207370Y295820D01*
X-198330Y295820D01*
X-198330Y294180D01*
X-198330Y295677D02*
X-207370Y295677D01*
X-207370Y290180D02*
X-198330Y290180D01*
X-207370Y290180D02*
X-207370Y291820D01*
X-198330Y291820D01*
X-198330Y290180D01*
X-198330Y291677D02*
X-207370Y291677D01*
X-207370Y286180D02*
X-198330Y286180D01*
X-207370Y286180D02*
X-207370Y287820D01*
X-198330Y287820D01*
X-198330Y286180D01*
X-198330Y287677D02*
X-207370Y287677D01*
X-207370Y282180D02*
X-198330Y282180D01*
X-207370Y282180D02*
X-207370Y283820D01*
X-198330Y283820D01*
X-198330Y282180D01*
X-198330Y283677D02*
X-207370Y283677D01*
X-207370Y278180D02*
X-198330Y278180D01*
X-207370Y278180D02*
X-207370Y279820D01*
X-198330Y279820D01*
X-198330Y278180D01*
X-198330Y279677D02*
X-207370Y279677D01*
X-207370Y274180D02*
X-198330Y274180D01*
X-207370Y274180D02*
X-207370Y275820D01*
X-198330Y275820D01*
X-198330Y274180D01*
X-198330Y275677D02*
X-207370Y275677D01*
X-207370Y270180D02*
X-198330Y270180D01*
X-207370Y270180D02*
X-207370Y271820D01*
X-198330Y271820D01*
X-198330Y270180D01*
X-198330Y271677D02*
X-207370Y271677D01*
X-175670Y271820D02*
X-166630Y271820D01*
X-166630Y270180D01*
X-175670Y270180D01*
X-175670Y271820D01*
X-175670Y271677D02*
X-166630Y271677D01*
X-166630Y275820D02*
X-175670Y275820D01*
X-166630Y275820D02*
X-166630Y274180D01*
X-175670Y274180D01*
X-175670Y275820D01*
X-175670Y275677D02*
X-166630Y275677D01*
X-166630Y279820D02*
X-175670Y279820D01*
X-166630Y279820D02*
X-166630Y278180D01*
X-175670Y278180D01*
X-175670Y279820D01*
X-175670Y279677D02*
X-166630Y279677D01*
X-166630Y283820D02*
X-175670Y283820D01*
X-166630Y283820D02*
X-166630Y282180D01*
X-175670Y282180D01*
X-175670Y283820D01*
X-175670Y283677D02*
X-166630Y283677D01*
X-166630Y287820D02*
X-175670Y287820D01*
X-166630Y287820D02*
X-166630Y286180D01*
X-175670Y286180D01*
X-175670Y287820D01*
X-175670Y287677D02*
X-166630Y287677D01*
X-166630Y291820D02*
X-175670Y291820D01*
X-166630Y291820D02*
X-166630Y290180D01*
X-175670Y290180D01*
X-175670Y291820D01*
X-175670Y291677D02*
X-166630Y291677D01*
X-166630Y295820D02*
X-175670Y295820D01*
X-166630Y295820D02*
X-166630Y294180D01*
X-175670Y294180D01*
X-175670Y295820D01*
X-175670Y295677D02*
X-166630Y295677D01*
D22*
X-187000Y283000D03*
D18*
X-200000Y311000D03*
X-200000Y321000D03*
X-213000Y311000D03*
X-213000Y321000D03*
X-152000Y263000D03*
X-142000Y263000D03*
X-152000Y276000D03*
X-142000Y276000D03*
X-152000Y302000D03*
X-142000Y302000D03*
X-152000Y289000D03*
X-142000Y289000D03*
X-152000Y315000D03*
X-142000Y315000D03*
X-128000Y302000D03*
X-118000Y302000D03*
X-128000Y315000D03*
X-118000Y315000D03*
X-128000Y276000D03*
X-118000Y276000D03*
X-118000Y289000D03*
X-128000Y289000D03*
X-226000Y311000D03*
X-226000Y321000D03*
D23*
X-94000Y175000D03*
X-94000Y167000D03*
X-94000Y159000D03*
X-94000Y151000D03*
X-94000Y143000D03*
X-94000Y135000D03*
D24*
X-81000Y132000D03*
D23*
X-68000Y135000D03*
X-68000Y143000D03*
X-68000Y151000D03*
X-68000Y159000D03*
X-68000Y167000D03*
X-68000Y175000D03*
D24*
X-81000Y178000D03*
D18*
X-64000Y111000D03*
X-74000Y111000D03*
X-46000Y167000D03*
X-36000Y167000D03*
X-88000Y111000D03*
X-98000Y111000D03*
X-36000Y135000D03*
X-46000Y135000D03*
D15*
X-215000Y157300D03*
D16*
X-215000Y106500D03*
D15*
X-215000Y131900D03*
X-215000Y182700D03*
X-215000Y208100D03*
X-215000Y233500D03*
D18*
X-455000Y43000D03*
X-465000Y43000D03*
D12*
X-83000Y9000D03*
M02*
