M48
;GenerationSoftware,Autodesk,EAGLE,9.6.2*%
;CreationDate,2023-10-27T21:16:36Z*%
FMAT,2
ICI,OFF
METRIC,TZ,000.000
T5C0.200
T4C0.500
T3C0.870
T2C1.000
T1C2.500
%
G90
M71
T1
X-2500Y2500
X-2500Y31500
X-55500Y2500
X-55500Y31500
T2
X-21500Y10650
X-21500Y15730
X-26000Y10650
X-21500Y20810
X-43550Y28500
X-46090Y28500
X-48630Y28500
X-53710Y28500
X-56250Y28500
X-51170Y28500
X-26000Y23350
X-26000Y20810
X-26000Y18270
X-26000Y13190
X-21500Y23350
X-26000Y15730
X-30500Y23350
X-30500Y20810
X-30500Y18270
X-30500Y13190
X-30500Y10650
X-30500Y15730
X-35000Y23350
X-35000Y20810
X-35000Y18270
X-35000Y13190
X-35000Y10650
X-35000Y15730
X-21500Y13190
X-21500Y18270
T3
X-8100Y23630
X-8100Y26170
T4
X-29015Y33000
X-30285Y33000
X-31555Y33000
X-32825Y33000
X-34095Y33000
X-35365Y33000
X-36635Y33000
X-37905Y33000
X-39175Y33000
X-40445Y33000
X-41715Y33000
X-42985Y33000
X-44255Y33000
X-45525Y33000
X-46795Y33000
X-48065Y33000
X-23935Y1000
X-25205Y1000
X-26475Y1000
X-27745Y1000
X-29015Y1000
X-30285Y1000
X-31555Y1000
X-32825Y1000
X-34095Y1000
X-35365Y1000
X-36635Y1000
X-37905Y1000
X-39175Y1000
X-40445Y1000
X-41715Y1000
X-42985Y1000
X-44255Y1000
X-45525Y1000
X-46795Y1000
X-48065Y1000
X-27745Y33000
X-26475Y33000
X-25205Y33000
X-23935Y33000
X-8300Y900
T5
X-12000Y12000
X-12000Y10000
X-12000Y8000
X-12000Y6000
X-12000Y4000
X-12000Y2000
X-14000Y2000
X-16000Y2000
X-18000Y2000
X-20000Y2000
X-22000Y2000
X-10000Y2000
X-8000Y2000
X-6000Y4000
X-4000Y6000
X-4000Y8000
X-6000Y8000
X-8000Y8000
X-10000Y8000
X-10000Y6000
X-8000Y6000
X-6000Y6000
X-8000Y4000
X-4000Y28000
X-4000Y26000
X-4000Y24000
X-4000Y22000
X-4000Y20000
X-6000Y28000
X-6000Y30000
X-8000Y30000
X-8000Y32000
X-8000Y28000
X-6000Y22000
X-8000Y22000
X-10000Y22000
X-38000Y20000
X-38000Y16000
X-38000Y22000
X-38000Y24000
X-42000Y24000
X-42000Y22000
X-42000Y14000
X-42000Y12000
X-38000Y12000
X-44000Y12000
X-44000Y14000
X-46000Y22000
X-44000Y22000
X-44000Y24000
X-46000Y24000
X-46000Y14000
X-46000Y12000
X-50000Y10000
X-50000Y12000
X-50000Y14000
X-50000Y16000
X-14200Y28900
X-50000Y20000
X-50000Y22000
X-50000Y24000
X-48000Y24000
X-48000Y22000
X-48000Y20000
X-48000Y18000
X-48000Y14000
X-48000Y12000
X-36000Y28000
X-34000Y28000
X-40000Y28000
X-42000Y28000
X-30000Y28000
X-28000Y28000
X-30000Y30000
X-26000Y30000
X-28000Y16000
X-26000Y8000
X-20000Y8000
X-24000Y8000
X-28000Y8000
X-40000Y4000
X-38000Y4000
X-34000Y4000
X-32000Y4000
X-30000Y4000
X-28000Y4000
X-26000Y4000
X-22000Y4000
X-20000Y4000
X-5000Y33000
X-1000Y29000
X-1000Y27000
X-1000Y25000
X-1000Y23000
X-1000Y21000
X-1000Y19000
X-1000Y17000
X-1000Y15000
X-1000Y13000
X-1000Y11000
X-1000Y9000
X-1000Y7000
X-1000Y4000
X-12000Y14000
X-21093Y29107
X-21100Y27900
X-42900Y8900
X-34400Y8600
X-44400Y9200
X-34400Y9200
X-41400Y19600
X-48900Y9300
X-16300Y27500
X-13236Y28900
X-16300Y28050
X-13250Y30200
X-12000Y16000
X-12000Y18000
X-12000Y20000
X-7000Y19000
X-23000Y27000
X-24000Y28000
X-22000Y28000
X-23000Y29000
X-23000Y30000
X-39000Y10000
X-38000Y10000
X-37000Y10000
X-38000Y8000
X-37000Y8000
X-54000Y1000
X-52000Y1000
X-52000Y3000
X-52000Y5000
X-52000Y7000
X-54000Y5000
X-54000Y7000
X-56000Y5000
X-56000Y7000
X-10000Y29000
X-10000Y30000
X-10000Y31000
X-10000Y32000
X-10000Y33000
X-13000Y33000
X-14000Y33000
X-15000Y33000
X-16000Y33000
X-16000Y32000
X-16000Y31000
X-17000Y31000
X-18000Y31000
X-19000Y31000
X-22000Y27000
X-21000Y26000
X-20000Y26000
X-19000Y26000
X-18000Y26000
X-17000Y26000
X-13000Y27000
X-11000Y28000
X-11000Y31000
X-11000Y30000
X-11000Y27000
X-12000Y27000
X-9000Y27000
X-10000Y27000
X-14000Y25000
X-9000Y25000
X-10000Y25000
X-11000Y25000
X-12000Y25000
X-13000Y25000
X-3000Y20000
X-3000Y19000
X-3000Y12000
X-4000Y12000
X-4000Y11000
X-3000Y11000
X-10500Y14300
X-10500Y15100
X-10500Y16700
X-43100Y16900
X-44200Y16900
X-45300Y16900
X-45300Y18000
X-44200Y18000
X-43100Y18000
X-43100Y19100
X-44200Y19100
X-45300Y19100
X-50000Y18000
M30